ISO-10303-21;
HEADER;
FILE_DESCRIPTION (( 'STEP AP214' ),
    '1' );
FILE_NAME ('fidget_nut.STEP',
    '2026-07-07T16:17:12',
    ( '' ),
    ( '' ),
    'SwSTEP 2.0',
    'SolidWorks 2026',
    '' );
FILE_SCHEMA (( 'AUTOMOTIVE_DESIGN' ));
ENDSEC;

DATA;
#1 = CARTESIAN_POINT ( 'NONE',  ( -17.98679214826758965, 123.2498689698851706, -63.00660392586618030 ) ) ;
#2 = CARTESIAN_POINT ( 'NONE',  ( 1.218448860873400985, 117.8749999999999716, -75.74999999999997158 ) ) ;
#3 = CARTESIAN_POINT ( 'NONE',  ( -3.942983340893505773, 118.3749999999999716, -71.99999999999997158 ) ) ;
#4 = CARTESIAN_POINT ( 'NONE',  ( 0.000000000000000000, 116.5000000000000000, -74.74999999999998579 ) ) ;
#5 = AXIS2_PLACEMENT_3D ( 'NONE', #662, #67, #195 ) ;
#6 = DIRECTION ( 'NONE',  ( 0.000000000000000000, 1.000000000000000000, 0.000000000000000000 ) ) ;
#7 = CARTESIAN_POINT ( 'NONE',  ( 1.224646799147353454E-15, 115.4999999999999858, -80.99999999999997158 ) ) ;
#8 = DIRECTION ( 'NONE',  ( 0.000000000000000000, 0.000000000000000000, -1.000000000000000000 ) ) ;
#9 = CARTESIAN_POINT ( 'NONE',  ( 0.000000000000000000, 117.2500000000000000, -75.24999999999998579 ) ) ;
#10 = ORIENTED_EDGE ( 'NONE', *, *, #375, .T. ) ;
#11 = CARTESIAN_POINT ( 'NONE',  ( 0.000000000000000000, 118.0000000000000000, -75.74999999999998579 ) ) ;
#12 = PRODUCT_DEFINITION_CONTEXT ( 'detailed design', #601, 'design' ) ;
#13 = CARTESIAN_POINT ( 'NONE',  ( -2.339289722968111995, 116.8750000000000000, -73.69959346906220787 ) ) ;
#14 = DIRECTION ( 'NONE',  ( -0.000000000000000000, -1.000000000000000000, -0.000000000000000000 ) ) ;
#15 = AXIS2_PLACEMENT_3D ( 'NONE', #709, #298, #72 ) ;
#16 = CARTESIAN_POINT ( 'NONE',  ( -14.31525514833642454, 123.2438072972984031, -79.15762757416818829 ) ) ;
#17 = DIRECTION ( 'NONE',  ( 1.000000000000000000, -0.000000000000000000, 1.224646799147353207E-16 ) ) ;
#18 = CARTESIAN_POINT ( 'NONE',  ( 3.189940531320152761, 119.8750000000000000, -74.31762745781207968 ) ) ;
#19 = ORIENTED_EDGE ( 'NONE', *, *, #59, .F. ) ;
#20 = PRODUCT_CONTEXT ( 'NONE', #174, 'mechanical' ) ;
#21 = CARTESIAN_POINT ( 'NONE',  ( 0.000000000000000000, 119.7500000000000000, -75.24999999999998579 ) ) ;
#22 = ADVANCED_FACE ( 'NONE', ( #109 ), #475, .F. ) ;
#23 = CARTESIAN_POINT ( 'NONE',  ( 0.000000000000000000, 123.2438072972984173, -64.84237242583176908 ) ) ;
#24 = EDGE_CURVE ( 'NONE', #216, #373, #558, .T. ) ;
#25 = ORIENTED_EDGE ( 'NONE', *, *, #48, .F. ) ;
#26 = CARTESIAN_POINT ( 'NONE',  ( 0.000000000000000000, 116.6249999999999858, -74.74999999999998579 ) ) ;
#27 = CARTESIAN_POINT ( 'NONE',  ( 2.339289722968111551, 118.1250000000000142, -70.30040653093776370 ) ) ;
#28 = B_SPLINE_CURVE_WITH_KNOTS ( 'NONE', 3,
 ( #140, #732, #23, #615 ),
 .UNSPECIFIED., .F., .F.,
 ( 4, 4 ),
 ( 0.000000000000000000, 0.9857798581952957884 ),
 .UNSPECIFIED. ) ;
#29 = ORIENTED_EDGE ( 'NONE', *, *, #651, .T. ) ;
#30 = AXIS2_PLACEMENT_3D ( 'NONE', #659, #81, #538 ) ;
#31 = CARTESIAN_POINT ( 'NONE',  ( 0.000000000000000000, 0.000000000000000000, 0.000000000000000000 ) ) ;
#32 = SPHERICAL_SURFACE ( 'NONE', #247, 20.00000000000000355 ) ;
#33 = CARTESIAN_POINT ( 'NONE',  ( 3.189940531320151873, 117.1249999999999716, -69.68237254218786347 ) ) ;
#34 =( BOUNDED_SURFACE ( )  B_SPLINE_SURFACE ( 1, 2, ( 
 ( #701, #533, #635, #467, #223, #528, #347, #584, #52, #288, #645, #708, #695, #524, #291, #460, #407, #104, #108, #166, #119 ),
 ( #705, #698, #169, #227, #521, #411, #296, #162, #343, #581, #763, #463, #350, #403, #642, #56, #766, #230, #587, #2, #47 ) ),
 .UNSPECIFIED., .F., .F., .F. ) 
 B_SPLINE_SURFACE_WITH_KNOTS ( ( 2, 2 ),
 ( 3, 2, 2, 2, 2, 2, 2, 2, 2, 2, 3 ),
 ( 0.000000000000000000, 1.000000000000000000 ),
 ( 0.000000000000000000, 0.1000000000000000056, 0.2000000000000000111, 0.2999999999999999889, 0.4000000000000000222, 0.5000000000000000000, 0.5999999999999999778, 0.6999999999999999556, 0.8000000000000000444, 0.9000000000000000222, 1.000000000000000000 ),
 .UNSPECIFIED. ) 
 GEOMETRIC_REPRESENTATION_ITEM ( )  RATIONAL_B_SPLINE_SURFACE ( (
 ( 1.000000000000000000, 0.9510565162951535312, 1.000000000000000000, 0.9510565162951535312, 1.000000000000000000, 0.9510565162951535312, 1.000000000000000000, 0.9510565162951535312, 1.000000000000000000, 0.9510565162951535312, 1.000000000000000000, 0.9510565162951535312, 1.000000000000000000, 0.9510565162951535312, 1.000000000000000000, 0.9510565162951535312, 1.000000000000000000, 0.9510565162951535312, 1.000000000000000000, 0.9510565162951535312, 1.000000000000000000),
 ( 1.000000000000000000, 0.9510565162951535312, 1.000000000000000000, 0.9510565162951535312, 1.000000000000000000, 0.9510565162951535312, 1.000000000000000000, 0.9510565162951535312, 1.000000000000000000, 0.9510565162951535312, 1.000000000000000000, 0.9510565162951535312, 1.000000000000000000, 0.9510565162951535312, 1.000000000000000000, 0.9510565162951535312, 1.000000000000000000, 0.9510565162951535312, 1.000000000000000000, 0.9510565162951535312, 1.000000000000000000) ) ) 
 REPRESENTATION_ITEM ( '' )  SURFACE ( )  );
#35 = EDGE_LOOP ( 'NONE', ( #93, #335 ) ) ;
#36 =( NAMED_UNIT ( * ) SI_UNIT ( $, .STERADIAN. ) SOLID_ANGLE_UNIT ( ) );
#37 = CARTESIAN_POINT ( 'NONE',  ( -2.204194696096775985, 118.0000000000000000, -75.03381372890603984 ) ) ;
#38 = CARTESIAN_POINT ( 'NONE',  ( -2.339289722968111995, 116.8750000000000000, -73.69959346906219366 ) ) ;
#39 = ORIENTED_EDGE ( 'NONE', *, *, #24, .F. ) ;
#40 = CARTESIAN_POINT ( 'NONE',  ( 0.000000000000000000, 123.2498689698851564, -71.99999999999998579 ) ) ;
#41 = CARTESIAN_POINT ( 'NONE',  ( -0.8935291646404930344, 116.6249999999999858, -74.74999999999998579 ) ) ;
#42 = VERTEX_POINT ( 'NONE', #305 ) ;
#43 = CARTESIAN_POINT ( 'NONE',  ( -1.616409443804302848, 117.7499999999999858, -69.77520326546887475 ) ) ;
#44 = DIRECTION ( 'NONE',  ( 0.000000000000000000, 0.000000000000000000, 1.000000000000000000 ) ) ;
#45 = VERTEX_POINT ( 'NONE', #551 ) ;
#46 = CARTESIAN_POINT ( 'NONE',  ( 2.339289722968111551, 118.3749999999999716, -70.30040653093776370 ) ) ;
#47 = CARTESIAN_POINT ( 'NONE',  ( 0.000000000000000000, 118.0000000000000000, -75.74999999999998579 ) ) ;
#48 = EDGE_CURVE ( 'NONE', #91, #561, #448, .T. ) ;
#49 = CARTESIAN_POINT ( 'NONE',  ( -3.566461936106828823, 118.2500000000000000, -73.15881372890603984 ) ) ;
#50 = EDGE_CURVE ( 'NONE', #643, #756, #160, .T. ) ;
#51 = CARTESIAN_POINT ( 'NONE',  ( 0.000000000000000000, 151.3626983722080581, -71.99999999999998579 ) ) ;
#52 = CARTESIAN_POINT ( 'NONE',  ( -1.616409443804302848, 117.5000000000000142, -69.77520326546887475 ) ) ;
#53 = CARTESIAN_POINT ( 'NONE',  ( -2.204194696096775985, 118.0000000000000000, -75.03381372890603984 ) ) ;
#54 = DIRECTION ( 'NONE',  ( 0.000000000000000000, 0.000000000000000000, 1.000000000000000000 ) ) ;
#55 = AXIS2_PLACEMENT_3D ( 'NONE', #547, #454, #388 ) ;
#56 = CARTESIAN_POINT ( 'NONE',  ( 3.942983340893505773, 117.3749999999999716, -71.99999999999997158 ) ) ;
#57 = VERTEX_POINT ( 'NONE', #598 ) ;
#58 = CYLINDRICAL_SURFACE ( 'NONE', #578, 3.750000000000003553 ) ;
#59 = EDGE_CURVE ( 'NONE', #575, #643, #236, .T. ) ;
#60 = CIRCLE ( 'NONE', #741, 10.99999999999999645 ) ;
#61 = CARTESIAN_POINT ( 'NONE',  ( 0.000000000000000000, 115.4999999999999858, -71.99999999999998579 ) ) ;
#62 = CARTESIAN_POINT ( 'NONE',  ( 0.000000000000000000, 119.2499999999999858, -74.74999999999998579 ) ) ;
#63 = CARTESIAN_POINT ( 'NONE',  ( 10.93363586808390586, 122.5116554330670766, -77.46681793404192717 ) ) ;
#64 = CARTESIAN_POINT ( 'NONE',  ( 3.566461936106828823, 117.2500000000000000, -70.84118627109393174 ) ) ;
#65 = CARTESIAN_POINT ( 'NONE',  ( 0.8935291646404938115, 119.1249999999999716, -74.74999999999998579 ) ) ;
#66 = PRESENTATION_LAYER_ASSIGNMENT (  '', '', ( #673 ) ) ;
#67 = DIRECTION ( 'NONE',  ( -1.000000000000000000, 0.000000000000000000, 0.000000000000000000 ) ) ;
#68 = DIRECTION ( 'NONE',  ( -0.000000000000000000, -1.000000000000000000, -0.000000000000000000 ) ) ;
#69 = DIRECTION ( 'NONE',  ( -1.000000000000000000, 0.000000000000000000, 0.000000000000000000 ) ) ;
#70 = CARTESIAN_POINT ( 'NONE',  ( -14.31525514833641921, 123.2438072972984031, -64.84237242583176908 ) ) ;
#71 = CARTESIAN_POINT ( 'NONE',  ( -2.615405419811674292, 117.0000000000000000, -72.84979673453108262 ) ) ;
#72 = DIRECTION ( 'NONE',  ( 0.000000000000000000, 0.000000000000000000, 1.000000000000000000 ) ) ;
#73 = EDGE_CURVE ( 'NONE', #42, #373, #613, .T. ) ;
#74 = EDGE_LOOP ( 'NONE', ( #696, #292, #199, #100 ) ) ;
#75 = CARTESIAN_POINT ( 'NONE',  ( 0.000000000000000000, 120.2500000000000000, -71.99999999999998579 ) ) ;
#76 = FACE_OUTER_BOUND ( 'NONE', #688, .T. ) ;
#77 = CYLINDRICAL_SURFACE ( 'NONE', #55, 3.750000000000003553 ) ;
#78 = CARTESIAN_POINT ( 'NONE',  ( 1.347111479062088602E-15, 117.5000000000000000, -60.99999999999998579 ) ) ;
#79 = UNCERTAINTY_MEASURE_WITH_UNIT (LENGTH_MEASURE( 1.000000000000000082E-05 ), #390, 'distance_accuracy_value', 'NONE');
#80 = CARTESIAN_POINT ( 'NONE',  ( 0.000000000000000000, 123.2498689698851564, -71.99999999999998579 ) ) ;
#81 = DIRECTION ( 'NONE',  ( -0.000000000000000000, -1.000000000000000000, -0.000000000000000000 ) ) ;
#82 = CIRCLE ( 'NONE', #30, 10.99999999999999645 ) ;
#83 = ORIENTED_EDGE ( 'NONE', *, *, #514, .F. ) ;
#84 = EDGE_CURVE ( 'NONE', #616, #45, #82, .T. ) ;
#85 = EDGE_CURVE ( 'NONE', #575, #736, #421, .T. ) ;
#86 = DIRECTION ( 'NONE',  ( 0.000000000000000000, 1.000000000000000000, 0.000000000000000000 ) ) ;
#87 = LINE ( 'NONE', #9, #697 ) ;
#88 = PRESENTATION_STYLE_ASSIGNMENT (( #690 ) ) ;
#89 = DIRECTION ( 'NONE',  ( 0.000000000000000000, 1.000000000000000000, 0.000000000000000000 ) ) ;
#90 = CIRCLE ( 'NONE', #718, 8.999999999999994671 ) ;
#91 = VERTEX_POINT ( 'NONE', #193 ) ;
#92 = DIRECTION ( 'NONE',  ( 0.000000000000000000, 0.000000000000000000, -1.000000000000000000 ) ) ;
#93 = ORIENTED_EDGE ( 'NONE', *, *, #48, .T. ) ;
#94 = ORIENTED_EDGE ( 'NONE', *, *, #491, .F. ) ;
#95 = AXIS2_PLACEMENT_3D ( 'NONE', #703, #102, #54 ) ;
#96 = FACE_OUTER_BOUND ( 'NONE', #234, .T. ) ;
#97 = CARTESIAN_POINT ( 'NONE',  ( 0.000000000000000000, 120.2500000000000000, -71.99999999999998579 ) ) ;
#98 = ORIENTED_EDGE ( 'NONE', *, *, #143, .T. ) ;
#99 = CARTESIAN_POINT ( 'NONE',  ( 0.000000000000000000, 141.7500000000000000, -71.99999999999998579 ) ) ;
#100 = ORIENTED_EDGE ( 'NONE', *, *, #179, .F. ) ;
#101 = EDGE_CURVE ( 'NONE', #500, #630, #225, .T. ) ;
#102 = DIRECTION ( 'NONE',  ( -0.000000000000000000, -1.000000000000000000, -0.000000000000000000 ) ) ;
#103 = EDGE_CURVE ( 'NONE', #630, #211, #28, .T. ) ;
#104 = CARTESIAN_POINT ( 'NONE',  ( 2.339289722968112439, 118.6250000000000142, -73.69959346906219366 ) ) ;
#105 = ORIENTED_EDGE ( 'NONE', *, *, #540, .F. ) ;
#106 = CIRCLE ( 'NONE', #5, 20.00000000000000355 ) ;
#107 = CARTESIAN_POINT ( 'NONE',  ( -14.56079043545168794, 123.0270062619660791, -64.71960478227413205 ) ) ;
#108 = CARTESIAN_POINT ( 'NONE',  ( 1.616409443804303292, 118.7500000000000142, -74.22479673453108262 ) ) ;
#109 = FACE_OUTER_BOUND ( 'NONE', #504, .T. ) ;
#110 = CARTESIAN_POINT ( 'NONE',  ( 8.915912699915638490E-16, 123.0270062619660933, -64.71960478227413205 ) ) ;
#111 = CARTESIAN_POINT ( 'NONE',  ( 1.616409443804303292, 118.9999999999999858, -74.22479673453108262 ) ) ;
#112 = CIRCLE ( 'NONE', #548, 8.993396074133796603 ) ;
#113 = LINE ( 'NONE', #394, #678 ) ;
#114 = CARTESIAN_POINT ( 'NONE',  ( 0.000000000000000000, 118.0000000000000000, -75.74999999999998579 ) ) ;
#115 = ADVANCED_FACE ( 'NONE', ( #490 ), #286, .T. ) ;
#116 = CARTESIAN_POINT ( 'NONE',  ( 2.615405419811674737, 118.7499999999999858, -72.84979673453108262 ) ) ;
#117 = CARTESIAN_POINT ( 'NONE',  ( 1.616409443804302182, 118.2499999999999858, -69.77520326546887475 ) ) ;
#118 = AXIS2_PLACEMENT_3D ( 'NONE', #75, #358, #476 ) ;
#119 = CARTESIAN_POINT ( 'NONE',  ( 0.000000000000000000, 119.0000000000000142, -74.74999999999998579 ) ) ;
#120 = CARTESIAN_POINT ( 'NONE',  ( -2.204194696096776429, 118.7500000000000000, -68.96618627109391753 ) ) ;
#121 = DIRECTION ( 'NONE',  ( 0.000000000000000000, 1.000000000000000000, 0.000000000000000000 ) ) ;
#122 = CARTESIAN_POINT ( 'NONE',  ( 0.000000000000000000, 121.2498798728741605, -71.99999999999998579 ) ) ;
#123 = CARTESIAN_POINT ( 'NONE',  ( 2.204194696096775541, 119.2500000000000000, -68.96618627109391753 ) ) ;
#124 = CARTESIAN_POINT ( 'NONE',  ( 0.000000000000000000, 117.5000000000000000, -82.99999999999997158 ) ) ;
#125 = FACE_OUTER_BOUND ( 'NONE', #729, .T. ) ;
#126 = EDGE_CURVE ( 'NONE', #153, #91, #127, .T. ) ;
#127 = LINE ( 'NONE', #603, #762 ) ;
#128 = DIRECTION ( 'NONE',  ( 0.000000000000000000, 0.000000000000000000, 1.000000000000000000 ) ) ;
#129 = UNCERTAINTY_MEASURE_WITH_UNIT (LENGTH_MEASURE( 1.000000000000000082E-05 ), #725, 'distance_accuracy_value', 'NONE');
#130 = CARTESIAN_POINT ( 'NONE',  ( 0.000000000000000000, 151.3626983722080581, -82.99999999999997158 ) ) ;
#131 = ORIENTED_EDGE ( 'NONE', *, *, #24, .T. ) ;
#132 = DIRECTION ( 'NONE',  ( 0.000000000000000000, 0.000000000000000000, 1.000000000000000000 ) ) ;
#133 = CARTESIAN_POINT ( 'NONE',  ( -3.367778697655224463E-16, 117.9999999999999858, -69.24999999999997158 ) ) ;
#134 = VECTOR ( 'NONE', #577, 1000.000000000000000 ) ;
#135 = CARTESIAN_POINT ( 'NONE',  ( 0.000000000000000000, 117.5000000000000000, -62.99999999999998579 ) ) ;
#136 = VERTEX_POINT ( 'NONE', #188 ) ;
#137 = EDGE_CURVE ( 'NONE', #630, #500, #599, .T. ) ;
#138 = DIRECTION ( 'NONE',  ( -1.000000000000000000, 0.000000000000000000, 0.000000000000000000 ) ) ;
#139 = CARTESIAN_POINT ( 'NONE',  ( 1.102182119232741171E-15, 121.2498798728741605, -81.00000000000099476 ) ) ;
#140 = CARTESIAN_POINT ( 'NONE',  ( 6.694921084445823177E-16, 122.5116554330670624, -66.53318206595803019 ) ) ;
#141 = CARTESIAN_POINT ( 'NONE',  ( 0.000000000000000000, 117.7500000000000000, -75.74999999999998579 ) ) ;
#142 = DIRECTION ( 'NONE',  ( 0.000000000000000000, 0.000000000000000000, 1.000000000000000000 ) ) ;
#143 = EDGE_CURVE ( 'NONE', #497, #452, #87, .T. ) ;
#144 = DIRECTION ( 'NONE',  ( -0.000000000000000000, -1.000000000000000000, -0.000000000000000000 ) ) ;
#145 = DIRECTION ( 'NONE',  ( -0.000000000000000000, 0.000000000000000000, -1.000000000000000000 ) ) ;
#146 = ORIENTED_EDGE ( 'NONE', *, *, #631, .T. ) ;
#147 = DIRECTION ( 'NONE',  ( 0.000000000000000000, 0.000000000000000000, 1.000000000000000000 ) ) ;
#148 = CARTESIAN_POINT ( 'NONE',  ( 0.000000000000000000, 141.7500000000000000, -71.99999999999998579 ) ) ;
#149 = EDGE_LOOP ( 'NONE', ( #492, #10, #328, #419 ) ) ;
#150 = SHAPE_DEFINITION_REPRESENTATION ( #747, #352 ) ;
#151 = DIRECTION ( 'NONE',  ( 1.000000000000000000, 0.000000000000000000, 0.000000000000000000 ) ) ;
#152 = CARTESIAN_POINT ( 'NONE',  ( 2.615405419811674292, 118.2500000000000142, -71.15020326546887475 ) ) ;
#153 = VERTEX_POINT ( 'NONE', #677 ) ;
#154 = DIRECTION ( 'NONE',  ( 0.000000000000000000, 1.000000000000000000, 0.000000000000000000 ) ) ;
#155 = ORIENTED_EDGE ( 'NONE', *, *, #156, .T. ) ;
#156 = EDGE_CURVE ( 'NONE', #216, #42, #482, .T. ) ;
#157 = CARTESIAN_POINT ( 'NONE',  ( 6.694921084445825149E-16, 122.5116554330670624, -66.53318206595803019 ) ) ;
#158 = LINE ( 'NONE', #395, #134 ) ;
#159 = ORIENTED_EDGE ( 'NONE', *, *, #285, .F. ) ;
#160 = CIRCLE ( 'NONE', #327, 10.99999999999999645 ) ;
#161 = CARTESIAN_POINT ( 'NONE',  ( -10.93363586808390764, 122.5116554330670766, -77.46681793404192717 ) ) ;
#162 = CARTESIAN_POINT ( 'NONE',  ( -3.189940531320151873, 116.3750000000000000, -69.68237254218784926 ) ) ;
#163 = CARTESIAN_POINT ( 'NONE',  ( 3.189940531320152761, 119.8750000000000000, -74.31762745781207968 ) ) ;
#164 = VECTOR ( 'NONE', #261, 1000.000000000000000 ) ;
#165 = CYLINDRICAL_SURFACE ( 'NONE', #441, 3.750000000000003553 ) ;
#166 = CARTESIAN_POINT ( 'NONE',  ( 0.8935291646404938115, 118.8749999999999858, -74.74999999999998579 ) ) ;
#167 = CARTESIAN_POINT ( 'NONE',  ( -3.189940531320151873, 118.1250000000000000, -74.31762745781207968 ) ) ;
#168 = DIRECTION ( 'NONE',  ( -0.000000000000000000, -1.000000000000000000, -0.000000000000000000 ) ) ;
#169 = CARTESIAN_POINT ( 'NONE',  ( -2.204194696096775985, 115.7499999999999858, -75.03381372890603984 ) ) ;
#170 = CARTESIAN_POINT ( 'NONE',  ( 2.891521116655237922, 118.6249999999999858, -71.99999999999997158 ) ) ;
#171 = CARTESIAN_POINT ( 'NONE',  ( 0.000000000000000000, 116.7499999999999858, -74.74999999999998579 ) ) ;
#172 = AXIS2_PLACEMENT_3D ( 'NONE', #253, #719, #183 ) ;
#173 = CARTESIAN_POINT ( 'NONE',  ( 0.000000000000000000, 118.5000000000000000, -75.24999999999998579 ) ) ;
#174 = APPLICATION_CONTEXT ( 'automotive_design' ) ;
#175 = ORIENTED_EDGE ( 'NONE', *, *, #285, .T. ) ;
#176 = FACE_OUTER_BOUND ( 'NONE', #449, .T. ) ;
#177 = DIRECTION ( 'NONE',  ( 1.224646799147352468E-16, 0.000000000000000000, -1.000000000000000000 ) ) ;
#178 = CARTESIAN_POINT ( 'NONE',  ( 0.000000000000000000, 117.7500000000000000, -75.74999999999998579 ) ) ;
#179 = EDGE_CURVE ( 'NONE', #616, #756, #664, .T. ) ;
#180 = LINE ( 'NONE', #235, #639 ) ;
#181 = ADVANCED_FACE ( 'NONE', ( #607 ), #77, .F. ) ;
#182 = CARTESIAN_POINT ( 'NONE',  ( -0.8935291646404933674, 117.6250000000000142, -69.24999999999998579 ) ) ;
#183 = DIRECTION ( 'NONE',  ( 0.000000000000000000, 0.000000000000000000, 1.000000000000000000 ) ) ;
#184 = EDGE_LOOP ( 'NONE', ( #508, #620, #274, #19 ) ) ;
#185 = CARTESIAN_POINT ( 'NONE',  ( 0.000000000000000000, 117.5000000000000000, -71.99999999999998579 ) ) ;
#186 = CARTESIAN_POINT ( 'NONE',  ( -1.616409443804302848, 117.7499999999999858, -69.77520326546887475 ) ) ;
#187 = CLOSED_SHELL ( 'NONE', ( #622, #115, #240, #572, #562, #550, #345, #203, #595, #737, #181, #239, #398, #22, #316, #423, #653, #436, #710, #689, #353 ) ) ;
#188 = CARTESIAN_POINT ( 'NONE',  ( 1.224242425313722199E-15, 123.2498689698851564, -80.99339607413378417 ) ) ;
#189 = ORIENTED_EDGE ( 'NONE', *, *, #85, .F. ) ;
#190 = CARTESIAN_POINT ( 'NONE',  ( 1.338984216889165030E-15, 122.5116554330670624, -66.53318206595803019 ) ) ;
#191 = PLANE ( 'NONE',  #455 ) ;
#192 = CIRCLE ( 'NONE', #502, 8.993396074133796603 ) ;
#193 = CARTESIAN_POINT ( 'NONE',  ( 0.000000000000000000, 115.4999999999999858, -75.74999999999998579 ) ) ;
#194 = ORIENTED_EDGE ( 'NONE', *, *, #597, .T. ) ;
#195 = DIRECTION ( 'NONE',  ( 0.000000000000000000, 0.000000000000000000, 1.000000000000000000 ) ) ;
#196 = CIRCLE ( 'NONE', #493, 3.750000000000003553 ) ;
#197 = CYLINDRICAL_SURFACE ( 'NONE', #494, 3.750000000000003553 ) ;
#198 = DIRECTION ( 'NONE',  ( 0.000000000000000000, 0.000000000000000000, 1.000000000000000000 ) ) ;
#199 = ORIENTED_EDGE ( 'NONE', *, *, #50, .T. ) ;
#200 = APPLICATION_PROTOCOL_DEFINITION ( 'draft international standard', 'automotive_design', 1998, #174 ) ;
#201 = CARTESIAN_POINT ( 'NONE',  ( -1.218448860873399431, 117.8749999999999858, -75.74999999999997158 ) ) ;
#202 = DIRECTION ( 'NONE',  ( 0.000000000000000000, 0.000000000000000000, -1.000000000000000000 ) ) ;
#203 = ADVANCED_FACE ( 'NONE', ( #574 ), #451, .T. ) ;
#204 = EDGE_LOOP ( 'NONE', ( #213, #282, #382 ) ) ;
#205 = LINE ( 'NONE', #680, #565 ) ;
#206 = CARTESIAN_POINT ( 'NONE',  ( 0.000000000000000000, 151.3626983722080581, -71.99999999999998579 ) ) ;
#207 = CIRCLE ( 'NONE', #526, 2.000000000000001776 ) ;
#208 = ORIENTED_EDGE ( 'NONE', *, *, #480, .F. ) ;
#209 = EDGE_CURVE ( 'NONE', #373, #216, #750, .T. ) ;
#210 = CARTESIAN_POINT ( 'NONE',  ( 2.204194696096775541, 117.0000000000000000, -68.96618627109391753 ) ) ;
#211 = VERTEX_POINT ( 'NONE', #385 ) ;
#212 = CARTESIAN_POINT ( 'NONE',  ( -2.204194696096775985, 115.7499999999999858, -75.03381372890603984 ) ) ;
#213 = ORIENTED_EDGE ( 'NONE', *, *, #137, .F. ) ;
#214 = DIRECTION ( 'NONE',  ( -0.000000000000000000, -1.000000000000000000, -0.000000000000000000 ) ) ;
#215 = PLANE ( 'NONE',  #655 ) ;
#216 = VERTEX_POINT ( 'NONE', #334 ) ;
#217 = EDGE_CURVE ( 'NONE', #91, #331, #535, .T. ) ;
#218 = CARTESIAN_POINT ( 'NONE',  ( 0.8935291646404938115, 119.1249999999999716, -74.74999999999998579 ) ) ;
#219 = CARTESIAN_POINT ( 'NONE',  ( 0.000000000000000000, 119.1250000000000000, -75.74999999999998579 ) ) ;
#220 = ORIENTED_EDGE ( 'NONE', *, *, #409, .F. ) ;
#221 = CIRCLE ( 'NONE', #693, 2.000000000000001776 ) ;
#222 = FACE_OUTER_BOUND ( 'NONE', #204, .T. ) ;
#223 = CARTESIAN_POINT ( 'NONE',  ( -2.615405419811674292, 117.0000000000000000, -72.84979673453108262 ) ) ;
#224 = ORIENTED_EDGE ( 'NONE', *, *, #217, .F. ) ;
#225 = CIRCLE ( 'NONE', #312, 5.466817934041953819 ) ;
#226 = CARTESIAN_POINT ( 'NONE',  ( 1.616409443804303292, 118.9999999999999858, -74.22479673453108262 ) ) ;
#227 = CARTESIAN_POINT ( 'NONE',  ( -3.189940531320151873, 115.8750000000000000, -74.31762745781207968 ) ) ;
#228 = CARTESIAN_POINT ( 'NONE',  ( -0.8935291646404933674, 117.8749999999999574, -69.24999999999998579 ) ) ;
#229 = DIRECTION ( 'NONE',  ( 0.000000000000000000, 0.000000000000000000, -1.000000000000000000 ) ) ;
#230 = CARTESIAN_POINT ( 'NONE',  ( 3.189940531320152761, 117.6250000000000000, -74.31762745781207968 ) ) ;
#231 = CARTESIAN_POINT ( 'NONE',  ( 0.8935291646404927013, 118.1249999999999858, -69.24999999999998579 ) ) ;
#232 = CARTESIAN_POINT ( 'NONE',  ( -3.367778697655224463E-16, 117.9999999999999858, -69.24999999999997158 ) ) ;
#233 = DIRECTION ( 'NONE',  ( 0.000000000000000000, 0.000000000000000000, 1.000000000000000000 ) ) ;
#234 = EDGE_LOOP ( 'NONE', ( #250, #608, #146 ) ) ;
#235 = CARTESIAN_POINT ( 'NONE',  ( 0.000000000000000000, 119.7500000000000000, -75.24999999999998579 ) ) ;
#236 = CIRCLE ( 'NONE', #624, 2.000000000000001776 ) ;
#237 = CARTESIAN_POINT ( 'NONE',  ( -4.592425496802578903E-16, 116.7499999999999858, -68.24999999999997158 ) ) ;
#238 = ORIENTED_EDGE ( 'NONE', *, *, #597, .F. ) ;
#239 = ADVANCED_FACE ( 'NONE', ( #681 ), #215, .T. ) ;
#240 = ADVANCED_FACE ( 'NONE', ( #391 ), #444, .T. ) ;
#241 = FACE_OUTER_BOUND ( 'NONE', #245, .T. ) ;
#242 = VECTOR ( 'NONE', #214, 1000.000000000000000 ) ;
#243 = CARTESIAN_POINT ( 'NONE',  ( 0.000000000000000000, 119.2499999999999858, -74.74999999999998579 ) ) ;
#244 = DIRECTION ( 'NONE',  ( 0.000000000000000000, 0.000000000000000000, 1.000000000000000000 ) ) ;
#245 = EDGE_LOOP ( 'NONE', ( #570, #567 ) ) ;
#246 = DIRECTION ( 'NONE',  ( 0.000000000000000000, 0.000000000000000000, 1.000000000000000000 ) ) ;
#247 = AXIS2_PLACEMENT_3D ( 'NONE', #148, #151, #383 ) ;
#248 = CARTESIAN_POINT ( 'NONE',  ( -2.615405419811674737, 117.4999999999999858, -71.15020326546887475 ) ) ;
#249 = DIRECTION ( 'NONE',  ( 0.000000000000000000, 0.000000000000000000, 1.000000000000000000 ) ) ;
#250 = ORIENTED_EDGE ( 'NONE', *, *, #457, .F. ) ;
#251 = CARTESIAN_POINT ( 'NONE',  ( 14.56079043545165952, 123.0270062619660791, -79.28039521772581111 ) ) ;
#252 = DIRECTION ( 'NONE',  ( 1.000000000000000000, -0.000000000000000000, 1.224646799147353207E-16 ) ) ;
#253 = CARTESIAN_POINT ( 'NONE',  ( 0.000000000000000000, 121.2498798728741605, -71.99999999999998579 ) ) ;
#254 = CARTESIAN_POINT ( 'NONE',  ( 8.765565698193916910E-16, 123.2438072972984173, -64.84237242583176908 ) ) ;
#255 = DIRECTION ( 'NONE',  ( 1.224646799147352468E-16, 0.000000000000000000, -1.000000000000000000 ) ) ;
#256 = B_SPLINE_CURVE_WITH_KNOTS ( 'NONE', 3,
 ( #304, #717, #731, #663 ),
 .UNSPECIFIED., .F., .F.,
 ( 4, 4 ),
 ( 0.000000000000000000, 0.9857798581952933459 ),
 .UNSPECIFIED. ) ;
#257 = CARTESIAN_POINT ( 'NONE',  ( 0.000000000000000000, 122.5116554330670624, -71.99999999999998579 ) ) ;
#258 = CARTESIAN_POINT ( 'NONE',  ( 0.000000000000000000, 116.7499999999999858, -74.74999999999998579 ) ) ;
#259 = DIRECTION ( 'NONE',  ( 0.000000000000000000, -0.7071067811865525687, -0.7071067811865425767 ) ) ;
#260 = ORIENTED_EDGE ( 'NONE', *, *, #322, .F. ) ;
#261 = DIRECTION ( 'NONE',  ( 0.000000000000000000, -1.000000000000000000, 0.000000000000000000 ) ) ;
#262 = CARTESIAN_POINT ( 'NONE',  ( 0.8935291646404938115, 118.8750000000000000, -74.74999999999998579 ) ) ;
#263 = AXIS2_PLACEMENT_3D ( 'NONE', #735, #319, #202 ) ;
#264 = ORIENTED_EDGE ( 'NONE', *, *, #679, .F. ) ;
#265 = EDGE_CURVE ( 'NONE', #153, #714, #589, .T. ) ;
#266 = CARTESIAN_POINT ( 'NONE',  ( 0.8935291646404938115, 118.8749999999999858, -74.74999999999998579 ) ) ;
#267 = CARTESIAN_POINT ( 'NONE',  ( -2.204194696096776429, 116.4999999999999858, -68.96618627109391753 ) ) ;
#268 = ORIENTED_EDGE ( 'NONE', *, *, #73, .T. ) ;
#269 = CARTESIAN_POINT ( 'NONE',  ( -3.566461936106829267, 118.5000000000000000, -70.84118627109393174 ) ) ;
#270 = CARTESIAN_POINT ( 'NONE',  ( -1.218448860873395656, 116.6249999999999858, -68.24999999999995737 ) ) ;
#271 = EDGE_LOOP ( 'NONE', ( #443, #386, #220, #445 ) ) ;
#272 = CARTESIAN_POINT ( 'NONE',  ( -4.592425496802578903E-16, 119.0000000000000000, -68.24999999999997158 ) ) ;
#273 = CARTESIAN_POINT ( 'NONE',  ( -0.8935291646404932564, 117.6250000000000142, -69.24999999999997158 ) ) ;
#274 = ORIENTED_EDGE ( 'NONE', *, *, #50, .F. ) ;
#275 = AXIS2_PLACEMENT_3D ( 'NONE', #206, #566, #92 ) ;
#276 = CARTESIAN_POINT ( 'NONE',  ( 2.339289722968112439, 118.8749999999999716, -73.69959346906217945 ) ) ;
#277 = CARTESIAN_POINT ( 'NONE',  ( -1.616409443804302626, 116.7500000000000000, -74.22479673453108262 ) ) ;
#278 = ORIENTED_EDGE ( 'NONE', *, *, #760, .T. ) ;
#279 = AXIS2_PLACEMENT_3D ( 'NONE', #711, #121, #246 ) ;
#280 = CARTESIAN_POINT ( 'NONE',  ( 2.615405419811674737, 118.7499999999999858, -72.84979673453108262 ) ) ;
#281 = CARTESIAN_POINT ( 'NONE',  ( 3.942983340893505773, 117.3749999999999858, -71.99999999999997158 ) ) ;
#282 = ORIENTED_EDGE ( 'NONE', *, *, #457, .T. ) ;
#283 = CARTESIAN_POINT ( 'NONE',  ( 2.204194696096776873, 117.7500000000000000, -75.03381372890603984 ) ) ;
#284 = CARTESIAN_POINT ( 'NONE',  ( -2.615405419811674292, 117.2499999999999858, -72.84979673453108262 ) ) ;
#285 = EDGE_CURVE ( 'NONE', #373, #627, #381, .T. ) ;
#286 = TOROIDAL_SURFACE ( 'NONE', #172, 9.000000000001007194, 2.000000000000000000 ) ;
#287 = CARTESIAN_POINT ( 'NONE',  ( 0.000000000000000000, 141.7500000000000000, -71.99999999999998579 ) ) ;
#288 = CARTESIAN_POINT ( 'NONE',  ( -0.8935291646404933674, 117.6250000000000142, -69.24999999999998579 ) ) ;
#289 = CARTESIAN_POINT ( 'NONE',  ( -2.339289722968111995, 117.6249999999999858, -70.30040653093776370 ) ) ;
#290 = CARTESIAN_POINT ( 'NONE',  ( -0.8935291646404930344, 116.8749999999999716, -74.74999999999998579 ) ) ;
#291 = CARTESIAN_POINT ( 'NONE',  ( 2.615405419811674292, 118.2500000000000142, -71.15020326546887475 ) ) ;
#292 = ORIENTED_EDGE ( 'NONE', *, *, #539, .T. ) ;
#293 = VECTOR ( 'NONE', #591, 999.9999999999998863 ) ;
#294 = CARTESIAN_POINT ( 'NONE',  ( -1.101373371565233720E-15, 123.2498689698851564, -80.99339607413378417 ) ) ;
#295 = EDGE_CURVE ( 'NONE', #331, #627, #393, .T. ) ;
#296 = CARTESIAN_POINT ( 'NONE',  ( -3.566461936106829267, 116.2499999999999858, -70.84118627109393174 ) ) ;
#297 =( BOUNDED_CURVE ( )  B_SPLINE_CURVE ( 2, ( #171, #290, #768, #517, #397, #757, #527, #754, #43, #648, #232, #469, #117, #46, #354, #637, #280, #276, #226, #218, #453 ),
 .UNSPECIFIED., .F., .T. ) 
 B_SPLINE_CURVE_WITH_KNOTS ( ( 3, 2, 2, 2, 2, 2, 2, 2, 2, 2, 3 ),
 ( 0.000000000000000000, 0.1000000000000000056, 0.2000000000000000111, 0.2999999999999999889, 0.4000000000000000222, 0.5000000000000000000, 0.5999999999999999778, 0.6999999999999999556, 0.8000000000000000444, 0.9000000000000000222, 1.000000000000000000 ),
 .UNSPECIFIED. ) 
 CURVE ( )  GEOMETRIC_REPRESENTATION_ITEM ( )  RATIONAL_B_SPLINE_CURVE ( ( 1.000000000000000000, 0.9510565162951535312, 1.000000000000000000, 0.9510565162951535312, 1.000000000000000000, 0.9510565162951535312, 1.000000000000000000, 0.9510565162951535312, 1.000000000000000000, 0.9510565162951535312, 1.000000000000000000, 0.9510565162951535312, 1.000000000000000000, 0.9510565162951535312, 1.000000000000000000, 0.9510565162951535312, 1.000000000000000000, 0.9510565162951535312, 1.000000000000000000, 0.9510565162951535312, 1.000000000000000000 ) ) 
 REPRESENTATION_ITEM ( '' )  );
#298 = DIRECTION ( 'NONE',  ( 0.000000000000000000, 1.000000000000000000, 0.000000000000000000 ) ) ;
#299 = CARTESIAN_POINT ( 'NONE',  ( 0.000000000000000000, 121.2498798728741605, -62.99999999999897682 ) ) ;
#300 = CARTESIAN_POINT ( 'NONE',  ( -1.616409443804302848, 117.5000000000000142, -69.77520326546887475 ) ) ;
#301 = CARTESIAN_POINT ( 'NONE',  ( 0.000000000000000000, 120.2500000000000000, -75.74999999999998579 ) ) ;
#302 = CARTESIAN_POINT ( 'NONE',  ( -1.753113139638786537E-15, 123.2438072972984173, -79.15762757416818829 ) ) ;
#303 = AXIS2_PLACEMENT_3D ( 'NONE', #287, #580, #229 ) ;
#304 = CARTESIAN_POINT ( 'NONE',  ( 0.000000000000000000, 122.5116554330670624, -77.46681793404194138 ) ) ;
#305 = CARTESIAN_POINT ( 'NONE',  ( -4.592425496802578903E-16, 119.0000000000000000, -68.24999999999997158 ) ) ;
#306 = EDGE_LOOP ( 'NONE', ( #585, #155, #365, #511, #159 ) ) ;
#307 = FACE_BOUND ( 'NONE', #35, .T. ) ;
#308 = DIRECTION ( 'NONE',  ( 0.000000000000000000, 0.000000000000000000, 1.000000000000000000 ) ) ;
#309 = CARTESIAN_POINT ( 'NONE',  ( 3.189940531320151873, 119.3750000000000000, -69.68237254218786347 ) ) ;
#310 = CARTESIAN_POINT ( 'NONE',  ( 10.93363586808390764, 122.5116554330670766, -66.53318206595803019 ) ) ;
#311 = CARTESIAN_POINT ( 'NONE',  ( -2.615405419811674292, 117.2499999999999858, -72.84979673453108262 ) ) ;
#312 = AXIS2_PLACEMENT_3D ( 'NONE', #257, #478, #543 ) ;
#313 = DIRECTION ( 'NONE',  ( 0.000000000000000000, 0.000000000000000000, 1.000000000000000000 ) ) ;
#314 = ORIENTED_EDGE ( 'NONE', *, *, #555, .T. ) ;
#315 = MECHANICAL_DESIGN_GEOMETRIC_PRESENTATION_REPRESENTATION (  '', ( #673 ), #720 ) ;
#316 = ADVANCED_FACE ( 'NONE', ( #518 ), #34, .F. ) ;
#317 = CARTESIAN_POINT ( 'NONE',  ( 0.000000000000000000, 120.2500000000000000, -75.74999999999998579 ) ) ;
#318 = EDGE_CURVE ( 'NONE', #736, #575, #90, .T. ) ;
#319 = DIRECTION ( 'NONE',  ( -0.000000000000000000, -1.000000000000000000, -0.000000000000000000 ) ) ;
#320 = ORIENTED_EDGE ( 'NONE', *, *, #156, .F. ) ;
#321 = AXIS2_PLACEMENT_3D ( 'NONE', #122, #86, #308 ) ;
#322 = EDGE_CURVE ( 'NONE', #561, #91, #196, .T. ) ;
#323 = CARTESIAN_POINT ( 'NONE',  ( -2.615405419811674292, 117.0000000000000000, -72.84979673453108262 ) ) ;
#324 = EDGE_CURVE ( 'NONE', #627, #714, #649, .T. ) ;
#325 = ORIENTED_EDGE ( 'NONE', *, *, #324, .F. ) ;
#326 = DIRECTION ( 'NONE',  ( -0.000000000000000000, -1.000000000000000000, -0.000000000000000000 ) ) ;
#327 = AXIS2_PLACEMENT_3D ( 'NONE', #611, #6, #313 ) ;
#328 = ORIENTED_EDGE ( 'NONE', *, *, #480, .T. ) ;
#329 = CARTESIAN_POINT ( 'NONE',  ( -3.942983340893505773, 118.3749999999999858, -71.99999999999997158 ) ) ;
#330 = CARTESIAN_POINT ( 'NONE',  ( -3.566461936106829267, 116.2499999999999858, -70.84118627109393174 ) ) ;
#331 = VERTEX_POINT ( 'NONE', #237 ) ;
#332 = EDGE_CURVE ( 'NONE', #91, #497, #158, .T. ) ;
#333 = CARTESIAN_POINT ( 'NONE',  ( -3.566461936106828823, 118.2500000000000000, -73.15881372890603984 ) ) ;
#334 = CARTESIAN_POINT ( 'NONE',  ( 4.592425496802572000E-16, 120.2500000000000000, -68.24999999999997158 ) ) ;
#335 = ORIENTED_EDGE ( 'NONE', *, *, #322, .T. ) ;
#336 = DIRECTION ( 'NONE',  ( -1.224646799147353207E-16, 0.000000000000000000, -1.000000000000000000 ) ) ;
#337 = CARTESIAN_POINT ( 'NONE',  ( -2.615405419811674737, 117.2500000000000000, -71.15020326546887475 ) ) ;
#338 = EDGE_LOOP ( 'NONE', ( #404, #740, #25 ) ) ;
#339 = CARTESIAN_POINT ( 'NONE',  ( 0.000000000000000000, 151.3626983722080581, -71.99999999999998579 ) ) ;
#340 = DIRECTION ( 'NONE',  ( 0.000000000000000000, 1.000000000000000000, 0.000000000000000000 ) ) ;
#341 = ORIENTED_EDGE ( 'NONE', *, *, #59, .T. ) ;
#342 = DIRECTION ( 'NONE',  ( -0.000000000000000000, -1.000000000000000000, -0.000000000000000000 ) ) ;
#343 = CARTESIAN_POINT ( 'NONE',  ( -2.204194696096776429, 116.4999999999999858, -68.96618627109391753 ) ) ;
#344 = EDGE_LOOP ( 'NONE', ( #604, #314, #623, #278 ) ) ;
#345 = ADVANCED_FACE ( 'NONE', ( #125 ), #197, .F. ) ;
#346 = CARTESIAN_POINT ( 'NONE',  ( 4.592425496802572000E-16, 115.4999999999999858, -68.24999999999997158 ) ) ;
#347 = CARTESIAN_POINT ( 'NONE',  ( -2.615405419811674737, 117.2500000000000000, -71.15020326546887475 ) ) ;
#348 = CARTESIAN_POINT ( 'NONE',  ( -1.218448860873400097, 118.8749999999999716, -68.24999999999995737 ) ) ;
#349 = CYLINDRICAL_SURFACE ( 'NONE', #728, 10.99999999999999645 ) ;
#350 = CARTESIAN_POINT ( 'NONE',  ( 2.204194696096775541, 117.0000000000000000, -68.96618627109391753 ) ) ;
#351 = CARTESIAN_POINT ( 'NONE',  ( 1.218448860873400985, 120.1249999999999858, -75.74999999999997158 ) ) ;
#352 = ADVANCED_BREP_SHAPE_REPRESENTATION ( 'fidget_nut', ( #429, #605 ), #402 ) ;
#353 = ADVANCED_FACE ( 'NONE', ( #363 ), #368, .T. ) ;
#354 = CARTESIAN_POINT ( 'NONE',  ( 2.615405419811674292, 118.4999999999999858, -71.15020326546887475 ) ) ;
#355 = CARTESIAN_POINT ( 'NONE',  ( 0.000000000000000000, 115.4999999999999858, -71.99999999999998579 ) ) ;
#356 = CARTESIAN_POINT ( 'NONE',  ( -1.616409443804302848, 117.7499999999999858, -69.77520326546887475 ) ) ;
#357 = EDGE_CURVE ( 'NONE', #616, #136, #529, .T. ) ;
#358 = DIRECTION ( 'NONE',  ( 0.000000000000000000, 1.000000000000000000, 0.000000000000000000 ) ) ;
#359 = CARTESIAN_POINT ( 'NONE',  ( -2.615405419811674737, 117.2500000000000000, -71.15020326546887475 ) ) ;
#360 = CARTESIAN_POINT ( 'NONE',  ( 3.942983340893505773, 119.6249999999999858, -71.99999999999997158 ) ) ;
#361 = CARTESIAN_POINT ( 'NONE',  ( -2.202746743130467440E-15, 123.2498689698851564, -80.99339607413378417 ) ) ;
#362 = AXIS2_PLACEMENT_3D ( 'NONE', #430, #674, #198 ) ;
#363 = FACE_OUTER_BOUND ( 'NONE', #544, .T. ) ;
#364 = CARTESIAN_POINT ( 'NONE',  ( 1.218448860873400985, 120.1249999999999858, -75.74999999999997158 ) ) ;
#365 = ORIENTED_EDGE ( 'NONE', *, *, #458, .F. ) ;
#366 = CARTESIAN_POINT ( 'NONE',  ( 0.000000000000000000, 116.7499999999999858, -74.74999999999998579 ) ) ;
#367 = DIRECTION ( 'NONE',  ( -0.000000000000000000, -1.000000000000000000, -0.000000000000000000 ) ) ;
#368 = TOROIDAL_SURFACE ( 'NONE', #321, 9.000000000001007194, 2.000000000000000000 ) ;
#369 = CARTESIAN_POINT ( 'NONE',  ( 0.8935291646404927013, 118.1249999999999858, -69.24999999999998579 ) ) ;
#370 = CARTESIAN_POINT ( 'NONE',  ( 1.218448860873403650, 119.1250000000000000, -68.24999999999995737 ) ) ;
#371 = ORIENTED_EDGE ( 'NONE', *, *, #375, .F. ) ;
#372 = DIRECTION ( 'NONE',  ( -1.000000000000000000, 0.000000000000000000, 0.000000000000000000 ) ) ;
#373 = VERTEX_POINT ( 'NONE', #317 ) ;
#374 = PRODUCT_DEFINITION ( 'UNKNOWN', '', #713, #12 ) ;
#375 = EDGE_CURVE ( 'NONE', #500, #136, #256, .T. ) ;
#376 = EDGE_CURVE ( 'NONE', #736, #756, #221, .T. ) ;
#377 = CARTESIAN_POINT ( 'NONE',  ( 0.000000000000000000, 122.5116554330670624, -77.46681793404194138 ) ) ;
#378 = CARTESIAN_POINT ( 'NONE',  ( -1.218448860873399431, 115.6249999999999716, -75.74999999999997158 ) ) ;
#379 = ORIENTED_EDGE ( 'NONE', *, *, #679, .T. ) ;
#380 = CARTESIAN_POINT ( 'NONE',  ( -3.189940531320151873, 118.6250000000000000, -69.68237254218786347 ) ) ;
#381 = LINE ( 'NONE', #219, #670 ) ;
#382 = ORIENTED_EDGE ( 'NONE', *, *, #631, .F. ) ;
#383 = DIRECTION ( 'NONE',  ( 0.000000000000000000, 0.000000000000000000, -1.000000000000000000 ) ) ;
#384 = PRODUCT_RELATED_PRODUCT_CATEGORY ( 'part', '', ( #406 ) ) ;
#385 = CARTESIAN_POINT ( 'NONE',  ( 0.000000000000000000, 123.2498689698851564, -63.00660392586618030 ) ) ;
#386 = ORIENTED_EDGE ( 'NONE', *, *, #357, .T. ) ;
#387 = CARTESIAN_POINT ( 'NONE',  ( -2.204194696096776429, 118.7500000000000000, -68.96618627109391753 ) ) ;
#388 = DIRECTION ( 'NONE',  ( 0.000000000000000000, 0.000000000000000000, -1.000000000000000000 ) ) ;
#389 = ORIENTED_EDGE ( 'NONE', *, *, #332, .F. ) ;
#390 =( LENGTH_UNIT ( ) NAMED_UNIT ( * ) SI_UNIT ( .MILLI., .METRE. ) );
#391 = FACE_OUTER_BOUND ( 'NONE', #184, .T. ) ;
#392 = ORIENTED_EDGE ( 'NONE', *, *, #357, .F. ) ;
#393 =( BOUNDED_CURVE ( )  B_SPLINE_CURVE ( 2, ( #560, #684, #210, #33, #64, #281, #758, #399, #283, #638, #114 ),
 .UNSPECIFIED., .F., .F. ) 
 B_SPLINE_CURVE_WITH_KNOTS ( ( 3, 2, 2, 2, 2, 3 ),
 ( 0.5000000000000004441, 0.6000000000000003109, 0.7000000000000001776, 0.8000000000000002665, 0.9000000000000001332, 1.000000000000000000 ),
 .UNSPECIFIED. ) 
 CURVE ( )  GEOMETRIC_REPRESENTATION_ITEM ( )  RATIONAL_B_SPLINE_CURVE ( ( 0.9999999999999997780, 0.9510565162951537532, 1.000000000000000000, 0.9510565162951535312, 1.000000000000000000, 0.9510565162951535312, 1.000000000000000000, 0.9510565162951535312, 1.000000000000000000, 0.9510565162951535312, 1.000000000000000000 ) ) 
 REPRESENTATION_ITEM ( '' )  );
#394 = CARTESIAN_POINT ( 'NONE',  ( 1.347111479062088207E-15, 151.3626983722080581, -60.99999999999998579 ) ) ;
#395 = CARTESIAN_POINT ( 'NONE',  ( 0.000000000000000000, 116.6249999999999858, -75.74999999999998579 ) ) ;
#396 = ORIENTED_EDGE ( 'NONE', *, *, #209, .F. ) ;
#397 = CARTESIAN_POINT ( 'NONE',  ( -2.615405419811674292, 117.2499999999999858, -72.84979673453108262 ) ) ;
#398 = ADVANCED_FACE ( 'NONE', ( #417 ), #191, .T. ) ;
#399 = CARTESIAN_POINT ( 'NONE',  ( 3.189940531320152761, 117.6250000000000000, -74.31762745781207968 ) ) ;
#400 = CIRCLE ( 'NONE', #427, 20.00000000000000355 ) ;
#401 = CARTESIAN_POINT ( 'NONE',  ( 0.000000000000000000, 120.2500000000000000, -75.74999999999998579 ) ) ;
#402 =( GEOMETRIC_REPRESENTATION_CONTEXT ( 3 ) GLOBAL_UNCERTAINTY_ASSIGNED_CONTEXT ( ( #129 ) ) GLOBAL_UNIT_ASSIGNED_CONTEXT ( ( #725, #563, #36 ) ) REPRESENTATION_CONTEXT ( 'NONE', 'WORKASPACE' ) );
#403 = CARTESIAN_POINT ( 'NONE',  ( 3.189940531320151429, 117.1249999999999716, -69.68237254218784926 ) ) ;
#404 = ORIENTED_EDGE ( 'NONE', *, *, #217, .T. ) ;
#405 = SPHERICAL_SURFACE ( 'NONE', #303, 20.00000000000000355 ) ;
#406 = PRODUCT ( 'fidget_nut', 'fidget_nut', '', ( #20 ) ) ;
#407 = CARTESIAN_POINT ( 'NONE',  ( 2.615405419811674737, 118.5000000000000142, -72.84979673453108262 ) ) ;
#408 = CARTESIAN_POINT ( 'NONE',  ( 3.942983340893505773, 119.6249999999999858, -71.99999999999997158 ) ) ;
#409 = EDGE_CURVE ( 'NONE', #211, #136, #112, .T. ) ;
#410 = DIRECTION ( 'NONE',  ( 0.000000000000000000, 0.000000000000000000, -1.000000000000000000 ) ) ;
#411 = CARTESIAN_POINT ( 'NONE',  ( -3.942983340893505773, 116.1249999999999858, -71.99999999999997158 ) ) ;
#412 = ORIENTED_EDGE ( 'NONE', *, *, #540, .T. ) ;
#413 = CARTESIAN_POINT ( 'NONE',  ( -1.783182539983128487E-15, 123.0270062619660933, -79.28039521772582532 ) ) ;
#414 = CARTESIAN_POINT ( 'NONE',  ( 2.615405419811674737, 118.7499999999999858, -72.84979673453108262 ) ) ;
#415 = CARTESIAN_POINT ( 'NONE',  ( -3.189940531320151873, 118.6250000000000000, -69.68237254218784926 ) ) ;
#416 = PLANE ( 'NONE',  #666 ) ;
#417 = FACE_OUTER_BOUND ( 'NONE', #519, .T. ) ;
#418 = CARTESIAN_POINT ( 'NONE',  ( 3.566461936106829267, 119.7500000000000000, -73.15881372890603984 ) ) ;
#419 = ORIENTED_EDGE ( 'NONE', *, *, #103, .F. ) ;
#420 = DIRECTION ( 'NONE',  ( 0.000000000000000000, 1.000000000000000000, 0.000000000000000000 ) ) ;
#421 = CIRCLE ( 'NONE', #647, 8.999999999999994671 ) ;
#422 = CARTESIAN_POINT ( 'NONE',  ( 0.8935291646404927013, 117.8749999999999858, -69.24999999999998579 ) ) ;
#423 = ADVANCED_FACE ( 'NONE', ( #76 ), #531, .F. ) ;
#424 = DIRECTION ( 'NONE',  ( -0.000000000000000000, -1.000000000000000000, -0.000000000000000000 ) ) ;
#425 = ORIENTED_EDGE ( 'NONE', *, *, #516, .T. ) ;
#426 = CARTESIAN_POINT ( 'NONE',  ( -8.915912699915638490E-16, 123.0270062619660933, -79.28039521772581111 ) ) ;
#427 = AXIS2_PLACEMENT_3D ( 'NONE', #99, #625, #336 ) ;
#428 = CARTESIAN_POINT ( 'NONE',  ( -0.8935291646404933674, 117.8749999999999574, -69.24999999999998579 ) ) ;
#429 = MANIFOLD_SOLID_BREP ( '\X2\57fa4f5396f64ef6\X0\-fidget_sketch-1', #187 ) ;
#430 = CARTESIAN_POINT ( 'NONE',  ( 0.000000000000000000, 115.4999999999999858, -71.99999999999998579 ) ) ;
#431 = EDGE_LOOP ( 'NONE', ( #396, #39 ) ) ;
#432 =( BOUNDED_SURFACE ( )  B_SPLINE_SURFACE ( 3, 3, ( 
 ( #157, #634, #161, #641 ),
 ( #110, #107, #761, #413 ),
 ( #254, #70, #16, #302 ),
 ( #600, #1, #488, #361 ) ),
 .UNSPECIFIED., .F., .F., .F. ) 
 B_SPLINE_SURFACE_WITH_KNOTS ( ( 4, 4 ),
 ( 4, 4 ),
 ( 0.000000000000000000, 0.9857798581952957884 ),
 ( 0.000000000000000000, 1.000000000000000000 ),
 .UNSPECIFIED. ) 
 GEOMETRIC_REPRESENTATION_ITEM ( )  RATIONAL_B_SPLINE_SURFACE ( (
 ( 1.000000000000000000, 0.3333333333333334259, 0.3333333333333334259, 1.000000000000000000),
 ( 1.000000000000000000, 0.3333333333333334259, 0.3333333333333334259, 1.000000000000000000),
 ( 1.000000000000000000, 0.3333333333333334259, 0.3333333333333334259, 1.000000000000000000),
 ( 1.000000000000000000, 0.3333333333333334259, 0.3333333333333334259, 1.000000000000000000) ) ) 
 REPRESENTATION_ITEM ( '' )  SURFACE ( )  );
#433 = CARTESIAN_POINT ( 'NONE',  ( 17.98679214826758965, 123.2498689698851706, -80.99339607413378417 ) ) ;
#434 = CARTESIAN_POINT ( 'NONE',  ( 1.102182119232617517E-15, 117.5000000000000000, -80.99999999999997158 ) ) ;
#435 = CARTESIAN_POINT ( 'NONE',  ( 2.204194696096775541, 119.2500000000000000, -68.96618627109391753 ) ) ;
#436 = ADVANCED_FACE ( 'NONE', ( #96 ), #32, .F. ) ;
#437 = ORIENTED_EDGE ( 'NONE', *, *, #126, .F. ) ;
#438 = CARTESIAN_POINT ( 'NONE',  ( 2.339289722968111551, 118.1250000000000142, -70.30040653093776370 ) ) ;
#439 = DIRECTION ( 'NONE',  ( 0.000000000000000000, -0.7071067811865525687, 0.7071067811865425767 ) ) ;
#440 = SURFACE_SIDE_STYLE ('',( #446 ) ) ;
#441 = AXIS2_PLACEMENT_3D ( 'NONE', #520, #342, #410 ) ;
#442 = CARTESIAN_POINT ( 'NONE',  ( -2.339289722968111995, 117.3750000000000000, -70.30040653093776370 ) ) ;
#443 = ORIENTED_EDGE ( 'NONE', *, *, #84, .F. ) ;
#444 = TOROIDAL_SURFACE ( 'NONE', #704, 8.999999999999998224, 2.000000000000000000 ) ;
#445 = ORIENTED_EDGE ( 'NONE', *, *, #651, .F. ) ;
#446 = SURFACE_STYLE_FILL_AREA ( #506 ) ;
#447 = CARTESIAN_POINT ( 'NONE',  ( -3.566461936106828823, 115.9999999999999858, -73.15881372890603984 ) ) ;
#448 = CIRCLE ( 'NONE', #362, 3.750000000000003553 ) ;
#449 = EDGE_LOOP ( 'NONE', ( #733, #189, #341, #474 ) ) ;
#450 = CARTESIAN_POINT ( 'NONE',  ( 2.615405419811674737, 118.5000000000000142, -72.84979673453108262 ) ) ;
#451 = CYLINDRICAL_SURFACE ( 'NONE', #275, 10.99999999999999645 ) ;
#452 = VERTEX_POINT ( 'NONE', #258 ) ;
#453 = CARTESIAN_POINT ( 'NONE',  ( 0.000000000000000000, 119.2499999999999858, -74.74999999999998579 ) ) ;
#454 = DIRECTION ( 'NONE',  ( -0.000000000000000000, -1.000000000000000000, -0.000000000000000000 ) ) ;
#455 = AXIS2_PLACEMENT_3D ( 'NONE', #21, #372, #477 ) ;
#456 = VERTEX_POINT ( 'NONE', #683 ) ;
#457 = EDGE_CURVE ( 'NONE', #630, #57, #400, .T. ) ;
#458 = EDGE_CURVE ( 'NONE', #497, #42, #715, .T. ) ;
#459 = CARTESIAN_POINT ( 'NONE',  ( 0.000000000000000000, 121.2498798728741605, -82.99999999999997158 ) ) ;
#460 = CARTESIAN_POINT ( 'NONE',  ( 2.891521116655237922, 118.3749999999999858, -71.99999999999997158 ) ) ;
#461 = CARTESIAN_POINT ( 'NONE',  ( 3.189940531320151429, 119.3749999999999858, -69.68237254218784926 ) ) ;
#462 = DIRECTION ( 'NONE',  ( -0.000000000000000000, -1.000000000000000000, -0.000000000000000000 ) ) ;
#463 = CARTESIAN_POINT ( 'NONE',  ( 1.218448860873399209, 116.8749999999999858, -68.24999999999995737 ) ) ;
#464 = CARTESIAN_POINT ( 'NONE',  ( 1.616409443804302182, 118.2499999999999858, -69.77520326546887475 ) ) ;
#465 = CIRCLE ( 'NONE', #95, 10.99999999999999645 ) ;
#466 = CARTESIAN_POINT ( 'NONE',  ( 0.000000000000000000, 119.1250000000000000, -74.74999999999998579 ) ) ;
#467 = CARTESIAN_POINT ( 'NONE',  ( -2.339289722968111995, 116.8750000000000000, -73.69959346906220787 ) ) ;
#468 = CARTESIAN_POINT ( 'NONE',  ( 2.339289722968111551, 118.3749999999999574, -70.30040653093776370 ) ) ;
#469 = CARTESIAN_POINT ( 'NONE',  ( 0.8935291646404928123, 118.1249999999999858, -69.24999999999997158 ) ) ;
#470 = DIRECTION ( 'NONE',  ( 0.000000000000000000, 0.000000000000000000, 1.000000000000000000 ) ) ;
#471 = ORIENTED_EDGE ( 'NONE', *, *, #295, .F. ) ;
#472 = DIRECTION ( 'NONE',  ( -0.000000000000000000, 0.7071067811865525687, -0.7071067811865425767 ) ) ;
#473 = CARTESIAN_POINT ( 'NONE',  ( -1.616409443804302626, 116.9999999999999858, -74.22479673453108262 ) ) ;
#474 = ORIENTED_EDGE ( 'NONE', *, *, #760, .F. ) ;
#475 =( BOUNDED_SURFACE ( )  B_SPLINE_SURFACE ( 1, 2, ( 
 ( #178, #525, #53, #167, #49, #3, #534, #415, #120, #348, #656, #593, #123, #461, #579, #408, #706, #163, #699, #351, #401 ),
 ( #640, #646, #582, #530, #284, #522, #764, #289, #356, #228, #767, #231, #464, #468, #702, #170, #116, #588, #111, #65, #62 ) ),
 .UNSPECIFIED., .F., .F., .F. ) 
 B_SPLINE_SURFACE_WITH_KNOTS ( ( 2, 2 ),
 ( 3, 2, 2, 2, 2, 2, 2, 2, 2, 2, 3 ),
 ( 0.000000000000000000, 1.000000000000000000 ),
 ( 0.000000000000000000, 0.1000000000000000056, 0.2000000000000000111, 0.2999999999999999889, 0.4000000000000000222, 0.5000000000000000000, 0.5999999999999999778, 0.6999999999999999556, 0.8000000000000000444, 0.9000000000000000222, 1.000000000000000000 ),
 .UNSPECIFIED. ) 
 GEOMETRIC_REPRESENTATION_ITEM ( )  RATIONAL_B_SPLINE_SURFACE ( (
 ( 1.000000000000000000, 0.9510565162951535312, 1.000000000000000000, 0.9510565162951535312, 1.000000000000000000, 0.9510565162951535312, 1.000000000000000000, 0.9510565162951535312, 1.000000000000000000, 0.9510565162951535312, 1.000000000000000000, 0.9510565162951535312, 1.000000000000000000, 0.9510565162951535312, 1.000000000000000000, 0.9510565162951535312, 1.000000000000000000, 0.9510565162951535312, 1.000000000000000000, 0.9510565162951535312, 1.000000000000000000),
 ( 1.000000000000000000, 0.9510565162951535312, 1.000000000000000000, 0.9510565162951535312, 1.000000000000000000, 0.9510565162951535312, 1.000000000000000000, 0.9510565162951535312, 1.000000000000000000, 0.9510565162951535312, 1.000000000000000000, 0.9510565162951535312, 1.000000000000000000, 0.9510565162951535312, 1.000000000000000000, 0.9510565162951535312, 1.000000000000000000, 0.9510565162951535312, 1.000000000000000000, 0.9510565162951535312, 1.000000000000000000) ) ) 
 REPRESENTATION_ITEM ( '' )  SURFACE ( )  );
#476 = DIRECTION ( 'NONE',  ( 0.000000000000000000, -0.000000000000000000, 1.000000000000000000 ) ) ;
#477 = DIRECTION ( 'NONE',  ( 0.000000000000000000, 0.000000000000000000, 1.000000000000000000 ) ) ;
#478 = DIRECTION ( 'NONE',  ( -0.000000000000000000, -1.000000000000000000, -0.000000000000000000 ) ) ;
#479 = FACE_OUTER_BOUND ( 'NONE', #431, .T. ) ;
#480 = EDGE_CURVE ( 'NONE', #136, #211, #192, .T. ) ;
#481 = CARTESIAN_POINT ( 'NONE',  ( -2.339289722968111995, 117.1249999999999716, -73.69959346906220787 ) ) ;
#482 = LINE ( 'NONE', #723, #612 ) ;
#483 = ORIENTED_EDGE ( 'NONE', *, *, #101, .T. ) ;
#484 = CARTESIAN_POINT ( 'NONE',  ( 14.56079043545166485, 123.0270062619660791, -64.71960478227414626 ) ) ;
#485 = DIRECTION ( 'NONE',  ( 0.000000000000000000, 1.000000000000000000, 0.000000000000000000 ) ) ;
#486 = CARTESIAN_POINT ( 'NONE',  ( 0.000000000000000000, 115.4999999999999858, -71.99999999999998579 ) ) ;
#487 = EDGE_LOOP ( 'NONE', ( #98, #724, #636, #682 ) ) ;
#488 = CARTESIAN_POINT ( 'NONE',  ( -17.98679214826759321, 123.2498689698851706, -80.99339607413378417 ) ) ;
#489 = CARTESIAN_POINT ( 'NONE',  ( -0.8935291646404931454, 116.6250000000000000, -74.74999999999998579 ) ) ;
#490 = FACE_OUTER_BOUND ( 'NONE', #271, .T. ) ;
#491 = EDGE_CURVE ( 'NONE', #331, #561, #751, .T. ) ;
#492 = ORIENTED_EDGE ( 'NONE', *, *, #137, .T. ) ;
#493 = AXIS2_PLACEMENT_3D ( 'NONE', #355, #340, #470 ) ;
#494 = AXIS2_PLACEMENT_3D ( 'NONE', #614, #68, #537 ) ;
#495 =( NAMED_UNIT ( * ) PLANE_ANGLE_UNIT ( ) SI_UNIT ( $, .RADIAN. ) );
#496 = CARTESIAN_POINT ( 'NONE',  ( 2.204194696096776873, 120.0000000000000000, -75.03381372890603984 ) ) ;
#497 = VERTEX_POINT ( 'NONE', #141 ) ;
#498 = DIRECTION ( 'NONE',  ( 0.000000000000000000, 1.000000000000000000, 0.000000000000000000 ) ) ;
#499 = CARTESIAN_POINT ( 'NONE',  ( -3.942983340893505773, 116.1249999999999716, -71.99999999999997158 ) ) ;
#500 = VERTEX_POINT ( 'NONE', #377 ) ;
#501 = CARTESIAN_POINT ( 'NONE',  ( 2.891521116655237922, 118.3749999999999858, -71.99999999999997158 ) ) ;
#502 = AXIS2_PLACEMENT_3D ( 'NONE', #40, #498, #509 ) ;
#503 = CARTESIAN_POINT ( 'NONE',  ( -1.616409443804302848, 117.5000000000000142, -69.77520326546887475 ) ) ;
#504 = EDGE_LOOP ( 'NONE', ( #650, #744, #268, #264, #238 ) ) ;
#505 =( BOUNDED_SURFACE ( )  B_SPLINE_SURFACE ( 3, 3, ( 
 ( #545, #63, #310, #190 ),
 ( #426, #251, #484, #730 ),
 ( #532, #536, #549, #667 ),
 ( #294, #433, #671, #609 ) ),
 .UNSPECIFIED., .F., .F., .T. ) 
 B_SPLINE_SURFACE_WITH_KNOTS ( ( 4, 4 ),
 ( 4, 4 ),
 ( 0.000000000000000000, 0.9857798581952957884 ),
 ( 0.000000000000000000, 1.000000000000000000 ),
 .UNSPECIFIED. ) 
 GEOMETRIC_REPRESENTATION_ITEM ( )  RATIONAL_B_SPLINE_SURFACE ( (
 ( 1.000000000000000000, 0.3333333333333334259, 0.3333333333333334259, 1.000000000000000000),
 ( 1.000000000000000000, 0.3333333333333334259, 0.3333333333333334259, 1.000000000000000000),
 ( 1.000000000000000000, 0.3333333333333334259, 0.3333333333333334259, 1.000000000000000000),
 ( 1.000000000000000000, 0.3333333333333334259, 0.3333333333333334259, 1.000000000000000000) ) ) 
 REPRESENTATION_ITEM ( '' )  SURFACE ( )  );
#506 = FILL_AREA_STYLE ('',( #686 ) ) ;
#507 = CARTESIAN_POINT ( 'NONE',  ( 2.891521116655237478, 118.3750000000000000, -71.99999999999997158 ) ) ;
#508 = ORIENTED_EDGE ( 'NONE', *, *, #318, .F. ) ;
#509 = DIRECTION ( 'NONE',  ( 0.000000000000000000, 0.000000000000000000, -1.000000000000000000 ) ) ;
#510 = CARTESIAN_POINT ( 'NONE',  ( 0.000000000000000000, 115.4999999999999858, -75.74999999999998579 ) ) ;
#511 = ORIENTED_EDGE ( 'NONE', *, *, #516, .F. ) ;
#512 = LINE ( 'NONE', #466, #628 ) ;
#513 = CARTESIAN_POINT ( 'NONE',  ( -3.367778697655224463E-16, 117.7500000000000142, -69.24999999999997158 ) ) ;
#514 = EDGE_CURVE ( 'NONE', #452, #153, #618, .T. ) ;
#515 = EDGE_LOOP ( 'NONE', ( #320, #131, #661 ) ) ;
#516 = EDGE_CURVE ( 'NONE', #627, #497, #205, .T. ) ;
#517 = CARTESIAN_POINT ( 'NONE',  ( -2.339289722968111995, 117.1249999999999716, -73.69959346906219366 ) ) ;
#518 = FACE_OUTER_BOUND ( 'NONE', #665, .T. ) ;
#519 = EDGE_LOOP ( 'NONE', ( #379, #175, #759, #412 ) ) ;
#520 = CARTESIAN_POINT ( 'NONE',  ( 0.000000000000000000, 151.3626983722080581, -71.99999999999998579 ) ) ;
#521 = CARTESIAN_POINT ( 'NONE',  ( -3.566461936106828823, 115.9999999999999858, -73.15881372890603984 ) ) ;
#522 = CARTESIAN_POINT ( 'NONE',  ( -2.891521116655237922, 117.3749999999999574, -71.99999999999997158 ) ) ;
#523 = CARTESIAN_POINT ( 'NONE',  ( 0.000000000000000000, 115.4999999999999858, -62.99999999999998579 ) ) ;
#524 = CARTESIAN_POINT ( 'NONE',  ( 2.339289722968111551, 118.1250000000000142, -70.30040653093776370 ) ) ;
#525 = CARTESIAN_POINT ( 'NONE',  ( -1.218448860873399431, 117.8749999999999716, -75.74999999999997158 ) ) ;
#526 = AXIS2_PLACEMENT_3D ( 'NONE', #299, #138, #132 ) ;
#527 = CARTESIAN_POINT ( 'NONE',  ( -2.615405419811674737, 117.4999999999999858, -71.15020326546887475 ) ) ;
#528 = CARTESIAN_POINT ( 'NONE',  ( -2.891521116655237922, 117.1249999999999858, -71.99999999999997158 ) ) ;
#529 = CIRCLE ( 'NONE', #592, 2.000000000000001776 ) ;
#530 = CARTESIAN_POINT ( 'NONE',  ( -2.339289722968111995, 117.1249999999999716, -73.69959346906220787 ) ) ;
#531 =( BOUNDED_SURFACE ( )  B_SPLINE_SURFACE ( 1, 2, ( 
 ( #366, #658, #473, #481, #311, #726, #248, #668, #186, #428, #133, #369, #554, #602, #606, #712, #414, #542, #610, #672, #243 ),
 ( #4, #489, #546, #13, #71, #654, #359, #596, #300, #182, #722, #422, #746, #438, #738, #501, #450, #742, #559, #266, #676 ) ),
 .UNSPECIFIED., .F., .F., .F. ) 
 B_SPLINE_SURFACE_WITH_KNOTS ( ( 2, 2 ),
 ( 3, 2, 2, 2, 2, 2, 2, 2, 2, 2, 3 ),
 ( 0.000000000000000000, 1.000000000000000000 ),
 ( 0.000000000000000000, 0.1000000000000000056, 0.2000000000000000111, 0.2999999999999999889, 0.4000000000000000222, 0.5000000000000000000, 0.5999999999999999778, 0.6999999999999999556, 0.8000000000000000444, 0.9000000000000000222, 1.000000000000000000 ),
 .UNSPECIFIED. ) 
 GEOMETRIC_REPRESENTATION_ITEM ( )  RATIONAL_B_SPLINE_SURFACE ( (
 ( 1.000000000000000000, 0.9510565162951535312, 1.000000000000000000, 0.9510565162951535312, 1.000000000000000000, 0.9510565162951535312, 1.000000000000000000, 0.9510565162951535312, 1.000000000000000000, 0.9510565162951535312, 1.000000000000000000, 0.9510565162951535312, 1.000000000000000000, 0.9510565162951535312, 1.000000000000000000, 0.9510565162951535312, 1.000000000000000000, 0.9510565162951535312, 1.000000000000000000, 0.9510565162951535312, 1.000000000000000000),
 ( 1.000000000000000000, 0.9510565162951535312, 1.000000000000000000, 0.9510565162951535312, 1.000000000000000000, 0.9510565162951535312, 1.000000000000000000, 0.9510565162951535312, 1.000000000000000000, 0.9510565162951535312, 1.000000000000000000, 0.9510565162951535312, 1.000000000000000000, 0.9510565162951535312, 1.000000000000000000, 0.9510565162951535312, 1.000000000000000000, 0.9510565162951535312, 1.000000000000000000, 0.9510565162951535312, 1.000000000000000000) ) ) 
 REPRESENTATION_ITEM ( '' )  SURFACE ( )  );
#532 = CARTESIAN_POINT ( 'NONE',  ( -8.765565698193916910E-16, 123.2438072972984173, -79.15762757416817408 ) ) ;
#533 = CARTESIAN_POINT ( 'NONE',  ( -0.8935291646404931454, 116.6250000000000000, -74.74999999999998579 ) ) ;
#534 = CARTESIAN_POINT ( 'NONE',  ( -3.566461936106829267, 118.5000000000000000, -70.84118627109393174 ) ) ;
#535 =( BOUNDED_CURVE ( )  B_SPLINE_CURVE ( 2, ( #510, #378, #212, #626, #447, #499, #330, #619, #267, #270, #687 ),
 .UNSPECIFIED., .F., .T. ) 
 B_SPLINE_CURVE_WITH_KNOTS ( ( 3, 2, 2, 2, 2, 3 ),
 ( 0.000000000000000000, 0.1000000000000000888, 0.2000000000000001776, 0.3000000000000002665, 0.4000000000000003553, 0.5000000000000004441 ),
 .UNSPECIFIED. ) 
 CURVE ( )  GEOMETRIC_REPRESENTATION_ITEM ( )  RATIONAL_B_SPLINE_CURVE ( ( 1.000000000000000000, 0.9510565162951535312, 1.000000000000000000, 0.9510565162951535312, 1.000000000000000000, 0.9510565162951535312, 1.000000000000000000, 0.9510565162951535312, 1.000000000000000000, 0.9510565162951533091, 1.000000000000000222 ) ) 
 REPRESENTATION_ITEM ( '' )  );
#536 = CARTESIAN_POINT ( 'NONE',  ( 14.31525514833639257, 123.2438072972984031, -79.15762757416817408 ) ) ;
#537 = DIRECTION ( 'NONE',  ( 0.000000000000000000, 0.000000000000000000, -1.000000000000000000 ) ) ;
#538 = DIRECTION ( 'NONE',  ( 0.000000000000000000, 0.000000000000000000, 1.000000000000000000 ) ) ;
#539 = EDGE_CURVE ( 'NONE', #45, #643, #113, .T. ) ;
#540 = EDGE_CURVE ( 'NONE', #714, #456, #512, .T. ) ;
#541 = PLANE ( 'NONE',  #118 ) ;
#542 = CARTESIAN_POINT ( 'NONE',  ( 2.339289722968112439, 118.8749999999999574, -73.69959346906219366 ) ) ;
#543 = DIRECTION ( 'NONE',  ( 0.000000000000000000, 0.000000000000000000, -1.000000000000000000 ) ) ;
#544 = EDGE_LOOP ( 'NONE', ( #392, #675, #29, #208 ) ) ;
#545 = CARTESIAN_POINT ( 'NONE',  ( -6.694921084445825149E-16, 122.5116554330670624, -77.46681793404194138 ) ) ;
#546 = CARTESIAN_POINT ( 'NONE',  ( -1.616409443804302626, 116.7500000000000000, -74.22479673453108262 ) ) ;
#547 = CARTESIAN_POINT ( 'NONE',  ( 0.000000000000000000, 151.3626983722080581, -71.99999999999998579 ) ) ;
#548 = AXIS2_PLACEMENT_3D ( 'NONE', #80, #485, #8 ) ;
#549 = CARTESIAN_POINT ( 'NONE',  ( 14.31525514833639612, 123.2438072972984031, -64.84237242583178329 ) ) ;
#550 = ADVANCED_FACE ( 'NONE', ( #707 ), #58, .F. ) ;
#551 = CARTESIAN_POINT ( 'NONE',  ( 1.347111479062088602E-15, 121.2498798728741605, -60.99999999999998579 ) ) ;
#552 = ORIENTED_EDGE ( 'NONE', *, *, #409, .T. ) ;
#553 = DIRECTION ( 'NONE',  ( 1.000000000000000000, 0.000000000000000000, 0.000000000000000000 ) ) ;
#554 = CARTESIAN_POINT ( 'NONE',  ( 1.616409443804302182, 118.2499999999999858, -69.77520326546887475 ) ) ;
#555 = EDGE_CURVE ( 'NONE', #45, #616, #465, .T. ) ;
#556 = CARTESIAN_POINT ( 'NONE',  ( -3.189940531320151873, 118.1250000000000000, -74.31762745781207968 ) ) ;
#557 = CARTESIAN_POINT ( 'NONE',  ( 0.8935291646404928123, 117.8750000000000000, -69.24999999999997158 ) ) ;
#558 = CIRCLE ( 'NONE', #15, 3.750000000000003553 ) ;
#559 = CARTESIAN_POINT ( 'NONE',  ( 1.616409443804303292, 118.7500000000000142, -74.22479673453108262 ) ) ;
#560 = CARTESIAN_POINT ( 'NONE',  ( -4.592425496802578903E-16, 116.7499999999999858, -68.24999999999997158 ) ) ;
#561 = VERTEX_POINT ( 'NONE', #346 ) ;
#562 = ADVANCED_FACE ( 'NONE', ( #576 ), #165, .F. ) ;
#563 =( NAMED_UNIT ( * ) PLANE_ANGLE_UNIT ( ) SI_UNIT ( $, .RADIAN. ) );
#564 =( NAMED_UNIT ( * ) SI_UNIT ( $, .STERADIAN. ) SOLID_ANGLE_UNIT ( ) );
#565 = VECTOR ( 'NONE', #144, 1000.000000000000000 ) ;
#566 = DIRECTION ( 'NONE',  ( -0.000000000000000000, -1.000000000000000000, -0.000000000000000000 ) ) ;
#567 = ORIENTED_EDGE ( 'NONE', *, *, #318, .T. ) ;
#568 = CARTESIAN_POINT ( 'NONE',  ( -1.218448860873395656, 118.8749999999999716, -68.24999999999995737 ) ) ;
#569 = CARTESIAN_POINT ( 'NONE',  ( 0.000000000000000000, 116.5000000000000000, -74.74999999999998579 ) ) ;
#570 = ORIENTED_EDGE ( 'NONE', *, *, #85, .T. ) ;
#571 = COLOUR_RGB ( '',1.000000000000000000, 1.000000000000000000, 1.000000000000000000 ) ;
#572 = ADVANCED_FACE ( 'NONE', ( #222 ), #405, .F. ) ;
#573 = CARTESIAN_POINT ( 'NONE',  ( 0.000000000000000000, 117.7500000000000000, -75.74999999999998579 ) ) ;
#574 = FACE_OUTER_BOUND ( 'NONE', #74, .T. ) ;
#575 = VERTEX_POINT ( 'NONE', #523 ) ;
#576 = FACE_OUTER_BOUND ( 'NONE', #306, .T. ) ;
#577 = DIRECTION ( 'NONE',  ( 0.000000000000000000, 1.000000000000000000, 0.000000000000000000 ) ) ;
#578 = AXIS2_PLACEMENT_3D ( 'NONE', #339, #700, #583 ) ;
#579 = CARTESIAN_POINT ( 'NONE',  ( 3.566461936106828823, 119.5000000000000000, -70.84118627109393174 ) ) ;
#580 = DIRECTION ( 'NONE',  ( 1.000000000000000000, 0.000000000000000000, 0.000000000000000000 ) ) ;
#581 = CARTESIAN_POINT ( 'NONE',  ( -1.218448860873400097, 116.6249999999999858, -68.24999999999995737 ) ) ;
#582 = CARTESIAN_POINT ( 'NONE',  ( -1.616409443804302626, 116.9999999999999858, -74.22479673453108262 ) ) ;
#583 = DIRECTION ( 'NONE',  ( 0.000000000000000000, 0.000000000000000000, -1.000000000000000000 ) ) ;
#584 = CARTESIAN_POINT ( 'NONE',  ( -2.339289722968111995, 117.3749999999999858, -70.30040653093776370 ) ) ;
#585 = ORIENTED_EDGE ( 'NONE', *, *, #209, .T. ) ;
#586 = DIRECTION ( 'NONE',  ( 0.000000000000000000, 0.000000000000000000, -1.000000000000000000 ) ) ;
#587 = CARTESIAN_POINT ( 'NONE',  ( 2.204194696096776873, 117.7500000000000000, -75.03381372890603984 ) ) ;
#588 = CARTESIAN_POINT ( 'NONE',  ( 2.339289722968112439, 118.8749999999999574, -73.69959346906219366 ) ) ;
#589 =( BOUNDED_CURVE ( )  B_SPLINE_CURVE ( 2, ( #569, #41, #277, #38, #323, #621, #337, #442, #503, #273, #513, #557, #755, #27, #152, #507, #629, #739, #748, #262, #743 ),
 .UNSPECIFIED., .F., .T. ) 
 B_SPLINE_CURVE_WITH_KNOTS ( ( 3, 2, 2, 2, 2, 2, 2, 2, 2, 2, 3 ),
 ( 0.000000000000000000, 0.1000000000000000056, 0.2000000000000000111, 0.2999999999999999889, 0.4000000000000000222, 0.5000000000000000000, 0.5999999999999999778, 0.6999999999999999556, 0.8000000000000000444, 0.9000000000000000222, 1.000000000000000000 ),
 .UNSPECIFIED. ) 
 CURVE ( )  GEOMETRIC_REPRESENTATION_ITEM ( )  RATIONAL_B_SPLINE_CURVE ( ( 1.000000000000000000, 0.9510565162951535312, 1.000000000000000000, 0.9510565162951535312, 1.000000000000000000, 0.9510565162951535312, 1.000000000000000000, 0.9510565162951535312, 1.000000000000000000, 0.9510565162951535312, 1.000000000000000000, 0.9510565162951535312, 1.000000000000000000, 0.9510565162951535312, 1.000000000000000000, 0.9510565162951535312, 1.000000000000000000, 0.9510565162951535312, 1.000000000000000000, 0.9510565162951535312, 1.000000000000000000 ) ) 
 REPRESENTATION_ITEM ( '' )  );
#590 = FACE_OUTER_BOUND ( 'NONE', #685, .T. ) ;
#591 = DIRECTION ( 'NONE',  ( -0.000000000000000000, 0.7071067811865525687, 0.7071067811865425767 ) ) ;
#592 = AXIS2_PLACEMENT_3D ( 'NONE', #139, #17, #255 ) ;
#593 = CARTESIAN_POINT ( 'NONE',  ( 1.218448860873399209, 119.1250000000000000, -68.24999999999995737 ) ) ;
#594 = CARTESIAN_POINT ( 'NONE',  ( 0.000000000000000000, 119.0000000000000142, -74.74999999999998579 ) ) ;
#595 = ADVANCED_FACE ( 'NONE', ( #765 ), #349, .T. ) ;
#596 = CARTESIAN_POINT ( 'NONE',  ( -2.339289722968111995, 117.3749999999999858, -70.30040653093776370 ) ) ;
#597 = EDGE_CURVE ( 'NONE', #452, #456, #297, .T. ) ;
#598 = CARTESIAN_POINT ( 'NONE',  ( 0.000000000000000000, 121.7499999999999858, -71.99999999999998579 ) ) ;
#599 = CIRCLE ( 'NONE', #263, 5.466817934041953819 ) ;
#600 = CARTESIAN_POINT ( 'NONE',  ( 1.101373371565233720E-15, 123.2498689698851564, -63.00660392586618030 ) ) ;
#601 = APPLICATION_CONTEXT ( 'automotive_design' ) ;
#602 = CARTESIAN_POINT ( 'NONE',  ( 2.339289722968111551, 118.3749999999999574, -70.30040653093776370 ) ) ;
#603 = CARTESIAN_POINT ( 'NONE',  ( 0.000000000000000000, 115.9999999999999858, -75.24999999999998579 ) ) ;
#604 = ORIENTED_EDGE ( 'NONE', *, *, #539, .F. ) ;
#605 = AXIS2_PLACEMENT_3D ( 'NONE', #31, #147, #553 ) ;
#606 = CARTESIAN_POINT ( 'NONE',  ( 2.615405419811674292, 118.4999999999999858, -71.15020326546887475 ) ) ;
#607 = FACE_OUTER_BOUND ( 'NONE', #515, .T. ) ;
#608 = ORIENTED_EDGE ( 'NONE', *, *, #101, .F. ) ;
#609 = CARTESIAN_POINT ( 'NONE',  ( 2.202746743130466652E-15, 123.2498689698851564, -63.00660392586618030 ) ) ;
#610 = CARTESIAN_POINT ( 'NONE',  ( 1.616409443804303292, 118.9999999999999858, -74.22479673453108262 ) ) ;
#611 = CARTESIAN_POINT ( 'NONE',  ( 0.000000000000000000, 117.5000000000000000, -71.99999999999998579 ) ) ;
#612 = VECTOR ( 'NONE', #424, 1000.000000000000000 ) ;
#613 =( BOUNDED_CURVE ( )  B_SPLINE_CURVE ( 2, ( #669, #370, #435, #309, #727, #360, #418, #18, #496, #364, #301 ),
 .UNSPECIFIED., .F., .F. ) 
 B_SPLINE_CURVE_WITH_KNOTS ( ( 3, 2, 2, 2, 2, 3 ),
 ( 0.5000000000000004441, 0.6000000000000003109, 0.7000000000000001776, 0.8000000000000002665, 0.9000000000000001332, 1.000000000000000000 ),
 .UNSPECIFIED. ) 
 CURVE ( )  GEOMETRIC_REPRESENTATION_ITEM ( )  RATIONAL_B_SPLINE_CURVE ( ( 0.9999999999999997780, 0.9510565162951537532, 1.000000000000000000, 0.9510565162951535312, 1.000000000000000000, 0.9510565162951535312, 1.000000000000000000, 0.9510565162951535312, 1.000000000000000000, 0.9510565162951535312, 1.000000000000000000 ) ) 
 REPRESENTATION_ITEM ( '' )  );
#614 = CARTESIAN_POINT ( 'NONE',  ( 0.000000000000000000, 151.3626983722080581, -71.99999999999998579 ) ) ;
#615 = CARTESIAN_POINT ( 'NONE',  ( 0.000000000000000000, 123.2498689698851564, -63.00660392586618030 ) ) ;
#616 = VERTEX_POINT ( 'NONE', #459 ) ;
#617 = TOROIDAL_SURFACE ( 'NONE', #279, 8.999999999999998224, 2.000000000000000000 ) ;
#618 = LINE ( 'NONE', #26, #164 ) ;
#619 = CARTESIAN_POINT ( 'NONE',  ( -3.189940531320151873, 116.3749999999999858, -69.68237254218786347 ) ) ;
#620 = ORIENTED_EDGE ( 'NONE', *, *, #376, .T. ) ;
#621 = CARTESIAN_POINT ( 'NONE',  ( -2.891521116655237478, 117.1250000000000000, -71.99999999999997158 ) ) ;
#622 = ADVANCED_FACE ( 'NONE', ( #694 ), #432, .F. ) ;
#623 = ORIENTED_EDGE ( 'NONE', *, *, #179, .T. ) ;
#624 = AXIS2_PLACEMENT_3D ( 'NONE', #135, #69, #249 ) ;
#625 = DIRECTION ( 'NONE',  ( 1.000000000000000000, 0.000000000000000000, -1.224646799147353207E-16 ) ) ;
#626 = CARTESIAN_POINT ( 'NONE',  ( -3.189940531320151873, 115.8749999999999858, -74.31762745781207968 ) ) ;
#627 = VERTEX_POINT ( 'NONE', #11 ) ;
#628 = VECTOR ( 'NONE', #644, 1000.000000000000000 ) ;
#629 = CARTESIAN_POINT ( 'NONE',  ( 2.615405419811674737, 118.5000000000000142, -72.84979673453108262 ) ) ;
#630 = VERTEX_POINT ( 'NONE', #652 ) ;
#631 = EDGE_CURVE ( 'NONE', #500, #57, #106, .T. ) ;
#632 = CARTESIAN_POINT ( 'NONE',  ( 0.000000000000000000, 117.5000000000000000, -71.99999999999998579 ) ) ;
#633 = ORIENTED_EDGE ( 'NONE', *, *, #265, .F. ) ;
#634 = CARTESIAN_POINT ( 'NONE',  ( -10.93363586808390586, 122.5116554330670766, -66.53318206595803019 ) ) ;
#635 = CARTESIAN_POINT ( 'NONE',  ( -1.616409443804302626, 116.7500000000000000, -74.22479673453108262 ) ) ;
#636 = ORIENTED_EDGE ( 'NONE', *, *, #126, .T. ) ;
#637 = CARTESIAN_POINT ( 'NONE',  ( 2.891521116655237478, 118.6249999999999858, -71.99999999999997158 ) ) ;
#638 = CARTESIAN_POINT ( 'NONE',  ( 1.218448860873400985, 117.8749999999999858, -75.74999999999997158 ) ) ;
#639 = VECTOR ( 'NONE', #472, 999.9999999999998863 ) ;
#640 = CARTESIAN_POINT ( 'NONE',  ( 0.000000000000000000, 116.7499999999999858, -74.74999999999998579 ) ) ;
#641 = CARTESIAN_POINT ( 'NONE',  ( -1.338984216889165030E-15, 122.5116554330670624, -77.46681793404194138 ) ) ;
#642 = CARTESIAN_POINT ( 'NONE',  ( 3.566461936106828823, 117.2500000000000000, -70.84118627109393174 ) ) ;
#643 = VERTEX_POINT ( 'NONE', #78 ) ;
#644 = DIRECTION ( 'NONE',  ( -0.000000000000000000, 1.000000000000000000, -0.000000000000000000 ) ) ;
#645 = CARTESIAN_POINT ( 'NONE',  ( -3.367778697655224463E-16, 117.7500000000000142, -69.24999999999997158 ) ) ;
#646 = CARTESIAN_POINT ( 'NONE',  ( -0.8935291646404931454, 116.8749999999999716, -74.74999999999998579 ) ) ;
#647 = AXIS2_PLACEMENT_3D ( 'NONE', #486, #14, #244 ) ;
#648 = CARTESIAN_POINT ( 'NONE',  ( -0.8935291646404932564, 117.8749999999999716, -69.24999999999997158 ) ) ;
#649 = LINE ( 'NONE', #173, #293 ) ;
#650 = ORIENTED_EDGE ( 'NONE', *, *, #143, .F. ) ;
#651 = EDGE_CURVE ( 'NONE', #45, #211, #207, .T. ) ;
#652 = CARTESIAN_POINT ( 'NONE',  ( 6.694921084445823177E-16, 122.5116554330670624, -66.53318206595803019 ) ) ;
#653 = ADVANCED_FACE ( 'NONE', ( #590 ), #505, .F. ) ;
#654 = CARTESIAN_POINT ( 'NONE',  ( -2.891521116655237922, 117.1249999999999858, -71.99999999999997158 ) ) ;
#655 = AXIS2_PLACEMENT_3D ( 'NONE', #752, #691, #145 ) ;
#656 = CARTESIAN_POINT ( 'NONE',  ( -4.592425496802578903E-16, 119.0000000000000000, -68.24999999999997158 ) ) ;
#657 = DIRECTION ( 'NONE',  ( 0.000000000000000000, 1.000000000000000000, 0.000000000000000000 ) ) ;
#658 = CARTESIAN_POINT ( 'NONE',  ( -0.8935291646404931454, 116.8749999999999716, -74.74999999999998579 ) ) ;
#659 = CARTESIAN_POINT ( 'NONE',  ( 0.000000000000000000, 121.2498798728741605, -71.99999999999998579 ) ) ;
#660 = VECTOR ( 'NONE', #367, 1000.000000000000000 ) ;
#661 = ORIENTED_EDGE ( 'NONE', *, *, #73, .F. ) ;
#662 = CARTESIAN_POINT ( 'NONE',  ( 0.000000000000000000, 141.7500000000000000, -71.99999999999998579 ) ) ;
#663 = CARTESIAN_POINT ( 'NONE',  ( 1.224242425313722199E-15, 123.2498689698851564, -80.99339607413378417 ) ) ;
#664 = LINE ( 'NONE', #130, #660 ) ;
#665 = EDGE_LOOP ( 'NONE', ( #437, #749, #325, #471, #224 ) ) ;
#666 = AXIS2_PLACEMENT_3D ( 'NONE', #716, #657, #721 ) ;
#667 = CARTESIAN_POINT ( 'NONE',  ( 1.753113139638783382E-15, 123.2438072972984173, -64.84237242583178329 ) ) ;
#668 = CARTESIAN_POINT ( 'NONE',  ( -2.339289722968111995, 117.6249999999999858, -70.30040653093776370 ) ) ;
#669 = CARTESIAN_POINT ( 'NONE',  ( -4.592425496802578903E-16, 119.0000000000000000, -68.24999999999997158 ) ) ;
#670 = VECTOR ( 'NONE', #326, 1000.000000000000000 ) ;
#671 = CARTESIAN_POINT ( 'NONE',  ( 17.98679214826759321, 123.2498689698851706, -63.00660392586618030 ) ) ;
#672 = CARTESIAN_POINT ( 'NONE',  ( 0.8935291646404938115, 119.1249999999999716, -74.74999999999998579 ) ) ;
#673 = STYLED_ITEM ( 'NONE', ( #88 ), #429 ) ;
#674 = DIRECTION ( 'NONE',  ( 0.000000000000000000, 1.000000000000000000, 0.000000000000000000 ) ) ;
#675 = ORIENTED_EDGE ( 'NONE', *, *, #555, .F. ) ;
#676 = CARTESIAN_POINT ( 'NONE',  ( 0.000000000000000000, 119.0000000000000142, -74.74999999999998579 ) ) ;
#677 = CARTESIAN_POINT ( 'NONE',  ( 0.000000000000000000, 116.5000000000000000, -74.74999999999998579 ) ) ;
#678 = VECTOR ( 'NONE', #462, 1000.000000000000000 ) ;
#679 = EDGE_CURVE ( 'NONE', #456, #373, #180, .T. ) ;
#680 = CARTESIAN_POINT ( 'NONE',  ( 0.000000000000000000, 151.3626983722080581, -75.74999999999998579 ) ) ;
#681 = FACE_OUTER_BOUND ( 'NONE', #487, .T. ) ;
#682 = ORIENTED_EDGE ( 'NONE', *, *, #332, .T. ) ;
#683 = CARTESIAN_POINT ( 'NONE',  ( 0.000000000000000000, 119.2499999999999858, -74.74999999999998579 ) ) ;
#684 = CARTESIAN_POINT ( 'NONE',  ( 1.218448860873403650, 116.8749999999999858, -68.24999999999995737 ) ) ;
#685 = EDGE_LOOP ( 'NONE', ( #371, #483, #753, #552 ) ) ;
#686 = FILL_AREA_STYLE_COLOUR ( '', #571 ) ;
#687 = CARTESIAN_POINT ( 'NONE',  ( -4.592425496802578903E-16, 116.7499999999999858, -68.24999999999997158 ) ) ;
#688 = EDGE_LOOP ( 'NONE', ( #83, #194, #105, #633 ) ) ;
#689 = ADVANCED_FACE ( 'NONE', ( #176 ), #617, .T. ) ;
#690 = SURFACE_STYLE_USAGE ( .BOTH. , #440 ) ;
#691 = DIRECTION ( 'NONE',  ( 1.000000000000000000, 0.000000000000000000, -0.000000000000000000 ) ) ;
#692 = ORIENTED_EDGE ( 'NONE', *, *, #295, .T. ) ;
#693 = AXIS2_PLACEMENT_3D ( 'NONE', #434, #252, #177 ) ;
#694 = FACE_OUTER_BOUND ( 'NONE', #149, .T. ) ;
#695 = CARTESIAN_POINT ( 'NONE',  ( 1.616409443804302182, 118.0000000000000142, -69.77520326546887475 ) ) ;
#696 = ORIENTED_EDGE ( 'NONE', *, *, #84, .T. ) ;
#697 = VECTOR ( 'NONE', #439, 999.9999999999998863 ) ;
#698 = CARTESIAN_POINT ( 'NONE',  ( -1.218448860873399431, 115.6249999999999858, -75.74999999999997158 ) ) ;
#699 = CARTESIAN_POINT ( 'NONE',  ( 2.204194696096776873, 120.0000000000000000, -75.03381372890603984 ) ) ;
#700 = DIRECTION ( 'NONE',  ( -0.000000000000000000, -1.000000000000000000, -0.000000000000000000 ) ) ;
#701 = CARTESIAN_POINT ( 'NONE',  ( 0.000000000000000000, 116.5000000000000000, -74.74999999999998579 ) ) ;
#702 = CARTESIAN_POINT ( 'NONE',  ( 2.615405419811674292, 118.4999999999999858, -71.15020326546887475 ) ) ;
#703 = CARTESIAN_POINT ( 'NONE',  ( 0.000000000000000000, 121.2498798728741605, -71.99999999999998579 ) ) ;
#704 = AXIS2_PLACEMENT_3D ( 'NONE', #632, #89, #44 ) ;
#705 = CARTESIAN_POINT ( 'NONE',  ( 0.000000000000000000, 115.4999999999999858, -75.74999999999998579 ) ) ;
#706 = CARTESIAN_POINT ( 'NONE',  ( 3.566461936106829267, 119.7500000000000000, -73.15881372890603984 ) ) ;
#707 = FACE_OUTER_BOUND ( 'NONE', #338, .T. ) ;
#708 = CARTESIAN_POINT ( 'NONE',  ( 0.8935291646404927013, 117.8749999999999858, -69.24999999999998579 ) ) ;
#709 = CARTESIAN_POINT ( 'NONE',  ( 0.000000000000000000, 120.2500000000000000, -71.99999999999998579 ) ) ;
#710 = ADVANCED_FACE ( 'NONE', ( #479 ), #541, .F. ) ;
#711 = CARTESIAN_POINT ( 'NONE',  ( 0.000000000000000000, 117.5000000000000000, -71.99999999999998579 ) ) ;
#712 = CARTESIAN_POINT ( 'NONE',  ( 2.891521116655237922, 118.6249999999999858, -71.99999999999997158 ) ) ;
#713 = PRODUCT_DEFINITION_FORMATION_WITH_SPECIFIED_SOURCE ( 'ANY', '', #406, .NOT_KNOWN. ) ;
#714 = VERTEX_POINT ( 'NONE', #594 ) ;
#715 =( BOUNDED_CURVE ( )  B_SPLINE_CURVE ( 2, ( #573, #201, #37, #556, #333, #329, #269, #380, #387, #568, #272 ),
 .UNSPECIFIED., .F., .T. ) 
 B_SPLINE_CURVE_WITH_KNOTS ( ( 3, 2, 2, 2, 2, 3 ),
 ( 0.000000000000000000, 0.1000000000000000888, 0.2000000000000001776, 0.3000000000000002665, 0.4000000000000003553, 0.5000000000000004441 ),
 .UNSPECIFIED. ) 
 CURVE ( )  GEOMETRIC_REPRESENTATION_ITEM ( )  RATIONAL_B_SPLINE_CURVE ( ( 1.000000000000000000, 0.9510565162951535312, 1.000000000000000000, 0.9510565162951535312, 1.000000000000000000, 0.9510565162951535312, 1.000000000000000000, 0.9510565162951535312, 1.000000000000000000, 0.9510565162951533091, 1.000000000000000222 ) ) 
 REPRESENTATION_ITEM ( '' )  );
#716 = CARTESIAN_POINT ( 'NONE',  ( 0.000000000000000000, 115.4999999999999858, -71.99999999999998579 ) ) ;
#717 = CARTESIAN_POINT ( 'NONE',  ( -8.915912699915634545E-16, 123.0270062619660791, -79.28039521772581111 ) ) ;
#718 = AXIS2_PLACEMENT_3D ( 'NONE', #61, #770, #233 ) ;
#719 = DIRECTION ( 'NONE',  ( 0.000000000000000000, 1.000000000000000000, 0.000000000000000000 ) ) ;
#720 =( GEOMETRIC_REPRESENTATION_CONTEXT ( 3 ) GLOBAL_UNCERTAINTY_ASSIGNED_CONTEXT ( ( #79 ) ) GLOBAL_UNIT_ASSIGNED_CONTEXT ( ( #390, #495, #564 ) ) REPRESENTATION_CONTEXT ( 'NONE', 'WORKASPACE' ) );
#721 = DIRECTION ( 'NONE',  ( 0.000000000000000000, -0.000000000000000000, 1.000000000000000000 ) ) ;
#722 = CARTESIAN_POINT ( 'NONE',  ( -3.367778697655224463E-16, 117.7500000000000142, -69.24999999999997158 ) ) ;
#723 = CARTESIAN_POINT ( 'NONE',  ( 4.592425496802574958E-16, 151.3626983722080581, -68.24999999999997158 ) ) ;
#724 = ORIENTED_EDGE ( 'NONE', *, *, #514, .T. ) ;
#725 =( LENGTH_UNIT ( ) NAMED_UNIT ( * ) SI_UNIT ( .MILLI., .METRE. ) );
#726 = CARTESIAN_POINT ( 'NONE',  ( -2.891521116655237922, 117.3749999999999574, -71.99999999999997158 ) ) ;
#727 = CARTESIAN_POINT ( 'NONE',  ( 3.566461936106828823, 119.5000000000000000, -70.84118627109393174 ) ) ;
#728 = AXIS2_PLACEMENT_3D ( 'NONE', #51, #168, #586 ) ;
#729 = EDGE_LOOP ( 'NONE', ( #94, #692, #425, #389, #260 ) ) ;
#730 = CARTESIAN_POINT ( 'NONE',  ( 1.783182539983126909E-15, 123.0270062619660933, -64.71960478227414626 ) ) ;
#731 = CARTESIAN_POINT ( 'NONE',  ( -8.765565698193916910E-16, 123.2438072972984173, -79.15762757416817408 ) ) ;
#732 = CARTESIAN_POINT ( 'NONE',  ( 0.000000000000000000, 123.0270062619660933, -64.71960478227413205 ) ) ;
#733 = ORIENTED_EDGE ( 'NONE', *, *, #376, .F. ) ;
#734 = CARTESIAN_POINT ( 'NONE',  ( 4.592425496802574958E-16, 151.3626983722080581, -68.24999999999997158 ) ) ;
#735 = CARTESIAN_POINT ( 'NONE',  ( 0.000000000000000000, 122.5116554330670624, -71.99999999999998579 ) ) ;
#736 = VERTEX_POINT ( 'NONE', #7 ) ;
#737 = ADVANCED_FACE ( 'NONE', ( #241, #307 ), #416, .F. ) ;
#738 = CARTESIAN_POINT ( 'NONE',  ( 2.615405419811674292, 118.2500000000000142, -71.15020326546887475 ) ) ;
#739 = CARTESIAN_POINT ( 'NONE',  ( 2.339289722968112439, 118.6250000000000142, -73.69959346906217945 ) ) ;
#740 = ORIENTED_EDGE ( 'NONE', *, *, #491, .T. ) ;
#741 = AXIS2_PLACEMENT_3D ( 'NONE', #185, #420, #128 ) ;
#742 = CARTESIAN_POINT ( 'NONE',  ( 2.339289722968112439, 118.6250000000000142, -73.69959346906219366 ) ) ;
#743 = CARTESIAN_POINT ( 'NONE',  ( 0.000000000000000000, 119.0000000000000142, -74.74999999999998579 ) ) ;
#744 = ORIENTED_EDGE ( 'NONE', *, *, #458, .T. ) ;
#745 = APPLICATION_PROTOCOL_DEFINITION ( 'draft international standard', 'automotive_design', 1998, #601 ) ;
#746 = CARTESIAN_POINT ( 'NONE',  ( 1.616409443804302182, 118.0000000000000142, -69.77520326546887475 ) ) ;
#747 = PRODUCT_DEFINITION_SHAPE ( 'NONE', 'NONE',  #374 ) ;
#748 = CARTESIAN_POINT ( 'NONE',  ( 1.616409443804303292, 118.7500000000000142, -74.22479673453108262 ) ) ;
#749 = ORIENTED_EDGE ( 'NONE', *, *, #265, .T. ) ;
#750 = CIRCLE ( 'NONE', #769, 3.750000000000003553 ) ;
#751 = LINE ( 'NONE', #734, #242 ) ;
#752 = CARTESIAN_POINT ( 'NONE',  ( 0.000000000000000000, 117.2500000000000000, -75.24999999999998579 ) ) ;
#753 = ORIENTED_EDGE ( 'NONE', *, *, #103, .T. ) ;
#754 = CARTESIAN_POINT ( 'NONE',  ( -2.339289722968111995, 117.6249999999999858, -70.30040653093776370 ) ) ;
#755 = CARTESIAN_POINT ( 'NONE',  ( 1.616409443804302182, 118.0000000000000142, -69.77520326546887475 ) ) ;
#756 = VERTEX_POINT ( 'NONE', #124 ) ;
#757 = CARTESIAN_POINT ( 'NONE',  ( -2.891521116655237478, 117.3749999999999716, -71.99999999999997158 ) ) ;
#758 = CARTESIAN_POINT ( 'NONE',  ( 3.566461936106829267, 117.5000000000000000, -73.15881372890603984 ) ) ;
#759 = ORIENTED_EDGE ( 'NONE', *, *, #324, .T. ) ;
#760 = EDGE_CURVE ( 'NONE', #756, #643, #60, .T. ) ;
#761 = CARTESIAN_POINT ( 'NONE',  ( -14.56079043545169149, 123.0270062619660791, -79.28039521772582532 ) ) ;
#762 = VECTOR ( 'NONE', #259, 999.9999999999998863 ) ;
#763 = CARTESIAN_POINT ( 'NONE',  ( -4.592425496802578903E-16, 116.7499999999999858, -68.24999999999997158 ) ) ;
#764 = CARTESIAN_POINT ( 'NONE',  ( -2.615405419811674737, 117.4999999999999858, -71.15020326546887475 ) ) ;
#765 = FACE_OUTER_BOUND ( 'NONE', #344, .T. ) ;
#766 = CARTESIAN_POINT ( 'NONE',  ( 3.566461936106829267, 117.5000000000000000, -73.15881372890603984 ) ) ;
#767 = CARTESIAN_POINT ( 'NONE',  ( -3.367778697655224463E-16, 117.9999999999999858, -69.24999999999997158 ) ) ;
#768 = CARTESIAN_POINT ( 'NONE',  ( -1.616409443804302626, 116.9999999999999858, -74.22479673453108262 ) ) ;
#769 = AXIS2_PLACEMENT_3D ( 'NONE', #97, #154, #142 ) ;
#770 = DIRECTION ( 'NONE',  ( -0.000000000000000000, -1.000000000000000000, -0.000000000000000000 ) ) ;
ENDSEC;
END-ISO-10303-21;
