ISO-10303-21;
HEADER;
FILE_DESCRIPTION (( 'STEP AP214' ),
    '1' );
FILE_NAME ('sphere_handle.STEP',
    '2026-07-07T16:54:24',
    ( '' ),
    ( '' ),
    'SwSTEP 2.0',
    'SolidWorks 2026',
    '' );
FILE_SCHEMA (( 'AUTOMOTIVE_DESIGN' ));
ENDSEC;

DATA;
#1 = AXIS2_PLACEMENT_3D ( 'NONE', #173, #355, #358 ) ;
#2 = CIRCLE ( 'NONE', #261, 23.50000000000000000 ) ;
#3 =( NAMED_UNIT ( * ) PLANE_ANGLE_UNIT ( ) SI_UNIT ( $, .RADIAN. ) );
#4 = EDGE_LOOP ( 'NONE', ( #532, #70, #32, #438 ) ) ;
#5 = ADVANCED_FACE ( 'NONE', ( #294 ), #598, .T. ) ;
#6 = ORIENTED_EDGE ( 'NONE', *, *, #541, .T. ) ;
#7 = CARTESIAN_POINT ( 'NONE',  ( 0.000000000000000000, 0.000000000000000000, 0.000000000000000000 ) ) ;
#8 = EDGE_CURVE ( 'NONE', #331, #447, #544, .T. ) ;
#9 = DIRECTION ( 'NONE',  ( 1.000000000000000000, 0.000000000000000000, 0.000000000000000000 ) ) ;
#10 = EDGE_LOOP ( 'NONE', ( #96, #200 ) ) ;
#11 = CARTESIAN_POINT ( 'NONE',  ( -1.340988245066351134E-14, 0.000000000000000000, 3.835873865673300465 ) ) ;
#12 = VERTEX_POINT ( 'NONE', #423 ) ;
#13 = DIRECTION ( 'NONE',  ( -0.000000000000000000, -0.000000000000000000, 1.000000000000000000 ) ) ;
#14 = DIRECTION ( 'NONE',  ( -0.000000000000000000, -0.000000000000000000, 1.000000000000000000 ) ) ;
#15 = DIRECTION ( 'NONE',  ( 1.000000000000000000, 0.000000000000000000, 0.000000000000000000 ) ) ;
#16 = ORIENTED_EDGE ( 'NONE', *, *, #586, .F. ) ;
#17 = CARTESIAN_POINT ( 'NONE',  ( -1.749821440526566074E-15, 3.464101615137755719, -25.00000000000000000 ) ) ;
#18 = CARTESIAN_POINT ( 'NONE',  ( 3.000000000000000888, -1.732050807568877415, -40.00000000000000000 ) ) ;
#19 = ORIENTED_EDGE ( 'NONE', *, *, #403, .T. ) ;
#20 = DIRECTION ( 'NONE',  ( 1.000000000000000000, 0.000000000000000000, 0.000000000000000000 ) ) ;
#21 = VERTEX_POINT ( 'NONE', #507 ) ;
#22 = CARTESIAN_POINT ( 'NONE',  ( 7.000000000000039080, 0.000000000000000000, 0.000000000000000000 ) ) ;
#23 = ORIENTED_EDGE ( 'NONE', *, *, #481, .T. ) ;
#24 = ORIENTED_EDGE ( 'NONE', *, *, #452, .F. ) ;
#25 = PRESENTATION_LAYER_ASSIGNMENT (  '', '', ( #263 ) ) ;
#26 = DIRECTION ( 'NONE',  ( -0.000000000000000000, -0.000000000000000000, 1.000000000000000000 ) ) ;
#27 = ADVANCED_FACE ( 'NONE', ( #92 ), #59, .F. ) ;
#28 = ORIENTED_EDGE ( 'NONE', *, *, #166, .F. ) ;
#29 = ORIENTED_EDGE ( 'NONE', *, *, #499, .T. ) ;
#30 = LINE ( 'NONE', #22, #414 ) ;
#31 = AXIS2_PLACEMENT_3D ( 'NONE', #362, #550, #542 ) ;
#32 = ORIENTED_EDGE ( 'NONE', *, *, #580, .T. ) ;
#33 = CARTESIAN_POINT ( 'NONE',  ( 3.000000000000000888, 1.732050807568876083, -25.00000000000000000 ) ) ;
#34 = BREP_WITH_VOIDS ( 'NONE', #313, ( #50 ) );
#35 = EDGE_CURVE ( 'NONE', #21, #74, #415, .T. ) ;
#36 = CARTESIAN_POINT ( 'NONE',  ( 3.000000000000000888, 1.732050807568876083, -40.00000000000000000 ) ) ;
#37 = CARTESIAN_POINT ( 'NONE',  ( 8.626363445208182944E-16, 0.000000000000000000, 27.33587386567328892 ) ) ;
#38 = FACE_BOUND ( 'NONE', #71, .T. ) ;
#39 = CARTESIAN_POINT ( 'NONE',  ( 3.000000000000000888, 1.732050807568876083, -25.00000000000000000 ) ) ;
#40 = AXIS2_PLACEMENT_3D ( 'NONE', #37, #188, #89 ) ;
#41 = DIRECTION ( 'NONE',  ( 1.000000000000000000, 0.000000000000000000, 0.000000000000000000 ) ) ;
#42 = PRODUCT_CONTEXT ( 'NONE', #402, 'mechanical' ) ;
#43 = FACE_OUTER_BOUND ( 'NONE', #4, .T. ) ;
#44 = ADVANCED_FACE ( 'NONE', ( #371 ), #513, .F. ) ;
#45 = VERTEX_POINT ( 'NONE', #93 ) ;
#46 = AXIS2_PLACEMENT_3D ( 'NONE', #379, #65, #339 ) ;
#47 = DIRECTION ( 'NONE',  ( -0.000000000000000000, -0.000000000000000000, 1.000000000000000000 ) ) ;
#48 = VECTOR ( 'NONE', #88, 1000.000000000000000 ) ;
#49 = EDGE_LOOP ( 'NONE', ( #212, #299, #467 ) ) ;
#50 = ORIENTED_CLOSED_SHELL ( 'NONE', *, #464, .F. );
#51 = ORIENTED_EDGE ( 'NONE', *, *, #452, .T. ) ;
#52 =( NAMED_UNIT ( * ) SI_UNIT ( $, .STERADIAN. ) SOLID_ANGLE_UNIT ( ) );
#53 = VERTEX_POINT ( 'NONE', #462 ) ;
#54 = LINE ( 'NONE', #242, #399 ) ;
#55 = ORIENTED_EDGE ( 'NONE', *, *, #177, .F. ) ;
#56 = FACE_OUTER_BOUND ( 'NONE', #472, .T. ) ;
#57 = ORIENTED_EDGE ( 'NONE', *, *, #580, .F. ) ;
#58 = DIRECTION ( 'NONE',  ( 1.000000000000000000, 0.000000000000000000, 0.000000000000000000 ) ) ;
#59 = PLANE ( 'NONE',  #517 ) ;
#60 = FACE_OUTER_BOUND ( 'NONE', #515, .T. ) ;
#61 = VECTOR ( 'NONE', #488, 999.9999999999998863 ) ;
#62 = LINE ( 'NONE', #540, #109 ) ;
#63 = DIRECTION ( 'NONE',  ( 1.000000000000000000, 0.000000000000000000, 0.000000000000000000 ) ) ;
#64 = EDGE_LOOP ( 'NONE', ( #306, #305, #75, #537 ) ) ;
#65 = DIRECTION ( 'NONE',  ( 1.224646799147353207E-16, 1.000000000000000000, 0.000000000000000000 ) ) ;
#66 = ADVANCED_FACE ( 'NONE', ( #276 ), #213, .T. ) ;
#67 = ORIENTED_EDGE ( 'NONE', *, *, #392, .F. ) ;
#68 = EDGE_CURVE ( 'NONE', #74, #573, #508, .T. ) ;
#69 = DIRECTION ( 'NONE',  ( -0.000000000000000000, -0.000000000000000000, 1.000000000000000000 ) ) ;
#70 = ORIENTED_EDGE ( 'NONE', *, *, #392, .T. ) ;
#71 = EDGE_LOOP ( 'NONE', ( #459, #207, #262, #389, #159, #198 ) ) ;
#72 = AXIS2_PLACEMENT_3D ( 'NONE', #99, #334, #147 ) ;
#73 = CARTESIAN_POINT ( 'NONE',  ( -2.999999999999998224, 1.732050807568880968, -40.00000000000000000 ) ) ;
#74 = VERTEX_POINT ( 'NONE', #421 ) ;
#75 = ORIENTED_EDGE ( 'NONE', *, *, #160, .T. ) ;
#76 = LINE ( 'NONE', #536, #575 ) ;
#77 = AXIS2_PLACEMENT_3D ( 'NONE', #373, #498, #546 ) ;
#78 = VECTOR ( 'NONE', #290, 999.9999999999998863 ) ;
#79 = AXIS2_PLACEMENT_3D ( 'NONE', #567, #112, #15 ) ;
#80 = PLANE ( 'NONE',  #368 ) ;
#81 = EDGE_CURVE ( 'NONE', #470, #53, #236, .T. ) ;
#82 = ADVANCED_BREP_SHAPE_REPRESENTATION ( 'sphere_handle', ( #34, #163 ), #577 ) ;
#83 = CARTESIAN_POINT ( 'NONE',  ( 1.770597932034259475E-15, -3.464101615137754830, -49.16515138991168499 ) ) ;
#84 = EDGE_CURVE ( 'NONE', #443, #487, #134, .T. ) ;
#85 = CARTESIAN_POINT ( 'NONE',  ( 0.000000000000000000, 0.000000000000000000, -20.00000000000000000 ) ) ;
#86 = DIRECTION ( 'NONE',  ( -0.000000000000000000, -0.000000000000000000, 1.000000000000000000 ) ) ;
#87 = DIRECTION ( 'NONE',  ( 1.000000000000000000, 0.000000000000000000, 0.000000000000000000 ) ) ;
#88 = DIRECTION ( 'NONE',  ( 0.000000000000000000, -1.000000000000000000, 0.000000000000000000 ) ) ;
#89 = DIRECTION ( 'NONE',  ( 0.000000000000000000, 0.000000000000000000, 1.000000000000000000 ) ) ;
#90 = APPLICATION_PROTOCOL_DEFINITION ( 'draft international standard', 'automotive_design', 1998, #402 ) ;
#91 = CARTESIAN_POINT ( 'NONE',  ( -1.749821440526566074E-15, 3.464101615137755719, -40.00000000000000000 ) ) ;
#92 = FACE_OUTER_BOUND ( 'NONE', #256, .T. ) ;
#93 = CARTESIAN_POINT ( 'NONE',  ( -23.50000000000000000, 2.877919977996280320E-15, 27.33587386567331379 ) ) ;
#94 = ORIENTED_EDGE ( 'NONE', *, *, #352, .T. ) ;
#95 = CARTESIAN_POINT ( 'NONE',  ( 3.000000000000000888, 1.732050807568876083, -49.16515138991168499 ) ) ;
#96 = ORIENTED_EDGE ( 'NONE', *, *, #352, .F. ) ;
#97 = AXIS2_PLACEMENT_3D ( 'NONE', #95, #249, #154 ) ;
#98 = CARTESIAN_POINT ( 'NONE',  ( 0.000000000000000000, 0.000000000000000000, 27.33587386567331379 ) ) ;
#99 = CARTESIAN_POINT ( 'NONE',  ( -1.749821440526566074E-15, 3.464101615137755719, -49.16515138991168499 ) ) ;
#100 = VERTEX_POINT ( 'NONE', #227 ) ;
#101 = ORIENTED_EDGE ( 'NONE', *, *, #84, .T. ) ;
#102 = DIRECTION ( 'NONE',  ( -1.000000000000000000, 0.000000000000000000, 0.000000000000000000 ) ) ;
#103 = ORIENTED_EDGE ( 'NONE', *, *, #468, .T. ) ;
#104 = DIRECTION ( 'NONE',  ( -0.000000000000000000, -0.000000000000000000, 1.000000000000000000 ) ) ;
#105 = SURFACE_SIDE_STYLE ('',( #340 ) ) ;
#106 = CIRCLE ( 'NONE', #495, 2.999999999999999112 ) ;
#107 = CARTESIAN_POINT ( 'NONE',  ( 8.626363445208182944E-16, 0.000000000000000000, 1.541193104796338087 ) ) ;
#108 = CARTESIAN_POINT ( 'NONE',  ( 3.000000000000000888, -1.732050807568877415, -40.00000000000000000 ) ) ;
#109 = VECTOR ( 'NONE', #116, 1000.000000000000000 ) ;
#110 = CARTESIAN_POINT ( 'NONE',  ( 0.000000000000000000, 0.000000000000000000, 0.000000000000000000 ) ) ;
#111 = ORIENTED_EDGE ( 'NONE', *, *, #81, .F. ) ;
#112 = DIRECTION ( 'NONE',  ( -0.000000000000000000, 1.000000000000000000, 0.000000000000000000 ) ) ;
#113 = EDGE_CURVE ( 'NONE', #460, #422, #314, .T. ) ;
#114 = ORIENTED_EDGE ( 'NONE', *, *, #282, .F. ) ;
#115 = ADVANCED_FACE ( 'NONE', ( #43 ), #380, .F. ) ;
#116 = DIRECTION ( 'NONE',  ( -0.000000000000000000, -0.000000000000000000, 1.000000000000000000 ) ) ;
#117 = PRODUCT_RELATED_PRODUCT_CATEGORY ( 'part', '', ( #361 ) ) ;
#118 = ORIENTED_EDGE ( 'NONE', *, *, #132, .F. ) ;
#119 = LINE ( 'NONE', #73, #449 ) ;
#120 = EDGE_LOOP ( 'NONE', ( #16, #291, #527, #118 ) ) ;
#121 = ORIENTED_EDGE ( 'NONE', *, *, #177, .T. ) ;
#122 = CARTESIAN_POINT ( 'NONE',  ( 7.000000000000039080, 8.572527594031520521E-16, -24.00000000000000000 ) ) ;
#123 = PRODUCT_DEFINITION_SHAPE ( 'NONE', 'NONE',  #530 ) ;
#124 = CARTESIAN_POINT ( 'NONE',  ( 0.000000000000000000, 0.000000000000000000, -24.00000000000000000 ) ) ;
#125 = CIRCLE ( 'NONE', #523, 9.533333333333333215 ) ;
#126 = ADVANCED_FACE ( 'NONE', ( #593 ), #549, .F. ) ;
#127 = AXIS2_PLACEMENT_3D ( 'NONE', #254, #434, #199 ) ;
#128 = DIRECTION ( 'NONE',  ( 1.000000000000000000, 0.000000000000000000, 0.000000000000000000 ) ) ;
#129 = COLOUR_RGB ( '',1.000000000000000000, 1.000000000000000000, 1.000000000000000000 ) ;
#130 = EDGE_CURVE ( 'NONE', #444, #521, #504, .T. ) ;
#131 = DIRECTION ( 'NONE',  ( -0.000000000000000000, -0.000000000000000000, 1.000000000000000000 ) ) ;
#132 = EDGE_CURVE ( 'NONE', #12, #329, #466, .T. ) ;
#133 = VECTOR ( 'NONE', #501, 1000.000000000000000 ) ;
#134 = LINE ( 'NONE', #317, #180 ) ;
#135 = DIRECTION ( 'NONE',  ( -0.000000000000000000, -0.000000000000000000, 1.000000000000000000 ) ) ;
#136 = CARTESIAN_POINT ( 'NONE',  ( 8.626363445208182944E-16, 0.000000000000000000, 27.33587386567328892 ) ) ;
#137 = VECTOR ( 'NONE', #587, 1000.000000000000000 ) ;
#138 = DIRECTION ( 'NONE',  ( 0.000000000000000000, 0.000000000000000000, -1.000000000000000000 ) ) ;
#139 = CARTESIAN_POINT ( 'NONE',  ( -1.749821440526566074E-15, 3.464101615137755719, -49.16515138991168499 ) ) ;
#140 = CARTESIAN_POINT ( 'NONE',  ( -13.00000000000000000, 1.592040838891559095E-15, -7.838690808249826780 ) ) ;
#141 = DIRECTION ( 'NONE',  ( 0.4999999999999998890, -0.8660254037844387076, 0.000000000000000000 ) ) ;
#142 = EDGE_CURVE ( 'NONE', #12, #331, #125, .T. ) ;
#143 = EDGE_LOOP ( 'NONE', ( #248, #234, #29 ) ) ;
#144 = LINE ( 'NONE', #336, #346 ) ;
#145 = ORIENTED_EDGE ( 'NONE', *, *, #265, .F. ) ;
#146 = CARTESIAN_POINT ( 'NONE',  ( 0.000000000000000000, 0.000000000000000000, -24.00000000000000000 ) ) ;
#147 = DIRECTION ( 'NONE',  ( 0.8660254037844385966, -0.5000000000000002220, 0.000000000000000000 ) ) ;
#148 = CARTESIAN_POINT ( 'NONE',  ( -2.999999999999998224, -1.732050807568876083, -49.16515138991168499 ) ) ;
#149 = DIRECTION ( 'NONE',  ( -1.000000000000000000, 0.000000000000000000, 0.000000000000000000 ) ) ;
#150 = ORIENTED_EDGE ( 'NONE', *, *, #450, .F. ) ;
#151 = FACE_OUTER_BOUND ( 'NONE', #143, .T. ) ;
#152 = AXIS2_PLACEMENT_3D ( 'NONE', #237, #280, #9 ) ;
#153 = FILL_AREA_STYLE ('',( #335 ) ) ;
#154 = DIRECTION ( 'NONE',  ( -0.000000000000000000, 0.000000000000000000, 1.000000000000000000 ) ) ;
#155 = SPHERICAL_SURFACE ( 'NONE', #79, 23.50000000000000000 ) ;
#156 = VECTOR ( 'NONE', #409, 1000.000000000000000 ) ;
#157 = CYLINDRICAL_SURFACE ( 'NONE', #312, 2.999999999999999112 ) ;
#158 = PRODUCT_DEFINITION_CONTEXT ( 'detailed design', #252, 'design' ) ;
#159 = ORIENTED_EDGE ( 'NONE', *, *, #519, .F. ) ;
#160 = EDGE_CURVE ( 'NONE', #422, #329, #204, .T. ) ;
#161 = CONICAL_SURFACE ( 'NONE', #588, 7.000000000000039080, 0.7853981633974532750 ) ;
#162 = DIRECTION ( 'NONE',  ( -0.000000000000000000, -0.000000000000000000, 1.000000000000000000 ) ) ;
#163 = AXIS2_PLACEMENT_3D ( 'NONE', #319, #596, #87 ) ;
#164 = EDGE_LOOP ( 'NONE', ( #357, #375, #214, #419 ) ) ;
#165 = AXIS2_PLACEMENT_3D ( 'NONE', #140, #324, #465 ) ;
#166 = EDGE_CURVE ( 'NONE', #21, #444, #279, .T. ) ;
#167 = CARTESIAN_POINT ( 'NONE',  ( 1.770597932034259475E-15, -3.464101615137754830, -25.00000000000000000 ) ) ;
#168 = ORIENTED_EDGE ( 'NONE', *, *, #68, .T. ) ;
#169 = ORIENTED_EDGE ( 'NONE', *, *, #68, .F. ) ;
#170 = CARTESIAN_POINT ( 'NONE',  ( 23.50000000000000000, 0.000000000000000000, 27.33587386567331379 ) ) ;
#171 = EDGE_LOOP ( 'NONE', ( #244, #103, #302, #230 ) ) ;
#172 = EDGE_LOOP ( 'NONE', ( #350, #425, #518 ) ) ;
#173 = CARTESIAN_POINT ( 'NONE',  ( 8.626363445208182944E-16, 0.000000000000000000, 27.33587386567328892 ) ) ;
#174 = DIRECTION ( 'NONE',  ( -0.8660254037844384856, 0.5000000000000003331, 0.000000000000000000 ) ) ;
#175 = UNCERTAINTY_MEASURE_WITH_UNIT (LENGTH_MEASURE( 1.000000000000000082E-05 ), #330, 'distance_accuracy_value', 'NONE');
#176 = EDGE_CURVE ( 'NONE', #422, #460, #446, .T. ) ;
#177 = EDGE_CURVE ( 'NONE', #443, #377, #318, .T. ) ;
#178 = AXIS2_PLACEMENT_3D ( 'NONE', #390, #162, #483 ) ;
#179 = CARTESIAN_POINT ( 'NONE',  ( 2.999999999999999112, 0.000000000000000000, 0.000000000000000000 ) ) ;
#180 = VECTOR ( 'NONE', #454, 1000.000000000000000 ) ;
#181 = LINE ( 'NONE', #36, #133 ) ;
#182 = AXIS2_PLACEMENT_3D ( 'NONE', #595, #86, #41 ) ;
#183 = DIRECTION ( 'NONE',  ( -0.8660254037844385966, -0.5000000000000001110, 0.000000000000000000 ) ) ;
#184 = PLANE ( 'NONE',  #388 ) ;
#185 = CARTESIAN_POINT ( 'NONE',  ( 8.626363445208182944E-16, 0.000000000000000000, 1.541193104796338087 ) ) ;
#186 = VECTOR ( 'NONE', #398, 1000.000000000000000 ) ;
#187 = ORIENTED_EDGE ( 'NONE', *, *, #142, .F. ) ;
#188 = DIRECTION ( 'NONE',  ( 0.000000000000000000, 1.000000000000000000, 0.000000000000000000 ) ) ;
#189 = CIRCLE ( 'NONE', #348, 9.533333333333333215 ) ;
#190 =( NAMED_UNIT ( * ) SI_UNIT ( $, .STERADIAN. ) SOLID_ANGLE_UNIT ( ) );
#191 = CARTESIAN_POINT ( 'NONE',  ( -1.749821440526566074E-15, 3.464101615137755719, -25.00000000000000000 ) ) ;
#192 = ORIENTED_EDGE ( 'NONE', *, *, #282, .T. ) ;
#193 = DIRECTION ( 'NONE',  ( 1.000000000000000000, 0.000000000000000000, 0.000000000000000000 ) ) ;
#194 = DIRECTION ( 'NONE',  ( -0.000000000000000000, -0.000000000000000000, 1.000000000000000000 ) ) ;
#195 = EDGE_CURVE ( 'NONE', #331, #285, #457, .T. ) ;
#196 =( LENGTH_UNIT ( ) NAMED_UNIT ( * ) SI_UNIT ( .MILLI., .METRE. ) );
#197 = CARTESIAN_POINT ( 'NONE',  ( 3.000000000000000888, -1.732050807568877415, -25.00000000000000000 ) ) ;
#198 = ORIENTED_EDGE ( 'NONE', *, *, #481, .F. ) ;
#199 = DIRECTION ( 'NONE',  ( 1.000000000000000000, 0.000000000000000000, 0.000000000000000000 ) ) ;
#200 = ORIENTED_EDGE ( 'NONE', *, *, #271, .F. ) ;
#201 = EDGE_CURVE ( 'NONE', #220, #443, #413, .T. ) ;
#202 = DIRECTION ( 'NONE',  ( 0.000000000000000000, 0.000000000000000000, 1.000000000000000000 ) ) ;
#203 = CARTESIAN_POINT ( 'NONE',  ( 2.999999999999999112, 0.000000000000000000, -7.838690808249826780 ) ) ;
#204 = LINE ( 'NONE', #179, #228 ) ;
#205 = DIRECTION ( 'NONE',  ( 0.8660254037844384856, -0.5000000000000001110, 0.000000000000000000 ) ) ;
#206 = CARTESIAN_POINT ( 'NONE',  ( 23.50000000000000000, 0.000000000000000000, 27.33587386567331379 ) ) ;
#207 = ORIENTED_EDGE ( 'NONE', *, *, #130, .F. ) ;
#208 = CARTESIAN_POINT ( 'NONE',  ( 0.000000000000000000, 0.000000000000000000, 0.000000000000000000 ) ) ;
#209 = ORIENTED_EDGE ( 'NONE', *, *, #224, .T. ) ;
#210 = LINE ( 'NONE', #122, #61 ) ;
#211 = AXIS2_PLACEMENT_3D ( 'NONE', #554, #412, #510 ) ;
#212 = ORIENTED_EDGE ( 'NONE', *, *, #303, .F. ) ;
#213 = CONICAL_SURFACE ( 'NONE', #442, 7.000000000000039080, 0.7853981633974532750 ) ;
#214 = ORIENTED_EDGE ( 'NONE', *, *, #450, .T. ) ;
#215 = CARTESIAN_POINT ( 'NONE',  ( 1.770597932034259475E-15, -3.464101615137754830, -25.00000000000000000 ) ) ;
#216 = ORIENTED_EDGE ( 'NONE', *, *, #243, .F. ) ;
#217 = ORIENTED_EDGE ( 'NONE', *, *, #303, .T. ) ;
#218 = VECTOR ( 'NONE', #277, 1000.000000000000000 ) ;
#219 = FACE_OUTER_BOUND ( 'NONE', #120, .T. ) ;
#220 = VERTEX_POINT ( 'NONE', #226 ) ;
#221 = DIRECTION ( 'NONE',  ( -0.000000000000000000, -0.000000000000000000, 1.000000000000000000 ) ) ;
#222 = VECTOR ( 'NONE', #351, 1000.000000000000000 ) ;
#223 = EDGE_CURVE ( 'NONE', #329, #447, #594, .T. ) ;
#224 = EDGE_CURVE ( 'NONE', #356, #573, #407, .T. ) ;
#225 = CARTESIAN_POINT ( 'NONE',  ( -2.999999999999998224, 1.732050807568880968, -49.16515138991168499 ) ) ;
#226 = CARTESIAN_POINT ( 'NONE',  ( -2.999999999999998224, 1.732050807568880968, -40.00000000000000000 ) ) ;
#227 = CARTESIAN_POINT ( 'NONE',  ( 7.000000000000038192, 0.000000000000000000, -25.00000000000000000 ) ) ;
#228 = VECTOR ( 'NONE', #505, 1000.000000000000000 ) ;
#229 = CARTESIAN_POINT ( 'NONE',  ( 13.00000000000000000, 0.000000000000000000, -7.838690808249826780 ) ) ;
#230 = ORIENTED_EDGE ( 'NONE', *, *, #541, .F. ) ;
#231 = DIRECTION ( 'NONE',  ( 0.8660254037844384856, -0.5000000000000003331, 0.000000000000000000 ) ) ;
#232 = DIRECTION ( 'NONE',  ( 0.000000000000000000, 0.000000000000000000, -1.000000000000000000 ) ) ;
#233 = CIRCLE ( 'NONE', #1, 27.50000000000000000 ) ;
#234 = ORIENTED_EDGE ( 'NONE', *, *, #378, .T. ) ;
#235 = CIRCLE ( 'NONE', #528, 7.000000000000038192 ) ;
#236 = CIRCLE ( 'NONE', #152, 7.000000000000039080 ) ;
#237 = CARTESIAN_POINT ( 'NONE',  ( 0.000000000000000000, 0.000000000000000000, -24.00000000000000000 ) ) ;
#238 = ORIENTED_EDGE ( 'NONE', *, *, #35, .T. ) ;
#239 = ADVANCED_FACE ( 'NONE', ( #592, #38 ), #599, .F. ) ;
#240 = DIRECTION ( 'NONE',  ( 1.000000000000000000, 0.000000000000000000, -0.000000000000000000 ) ) ;
#241 = ORIENTED_EDGE ( 'NONE', *, *, #132, .T. ) ;
#242 = CARTESIAN_POINT ( 'NONE',  ( -23.50000000000000000, 2.877919977996280320E-15, 27.33587386567331379 ) ) ;
#243 = EDGE_CURVE ( 'NONE', #433, #266, #493, .T. ) ;
#244 = ORIENTED_EDGE ( 'NONE', *, *, #176, .F. ) ;
#245 = PLANE ( 'NONE',  #97 ) ;
#246 = EDGE_LOOP ( 'NONE', ( #289, #121, #491, #23 ) ) ;
#247 = FACE_OUTER_BOUND ( 'NONE', #538, .T. ) ;
#248 = ORIENTED_EDGE ( 'NONE', *, *, #333, .F. ) ;
#249 = DIRECTION ( 'NONE',  ( -1.000000000000000000, 0.000000000000000000, -0.000000000000000000 ) ) ;
#250 = AXIS2_PLACEMENT_3D ( 'NONE', #259, #26, #492 ) ;
#251 = CARTESIAN_POINT ( 'NONE',  ( -9.533333333333333215, 0.000000000000000000, 1.541193104796336311 ) ) ;
#252 = APPLICATION_CONTEXT ( 'automotive_design' ) ;
#253 = ORIENTED_EDGE ( 'NONE', *, *, #8, .F. ) ;
#254 = CARTESIAN_POINT ( 'NONE',  ( 0.000000000000000000, 0.000000000000000000, 0.000000000000000000 ) ) ;
#255 = ADVANCED_FACE ( 'NONE', ( #325 ), #268, .F. ) ;
#256 = EDGE_LOOP ( 'NONE', ( #576, #585, #101, #382 ) ) ;
#257 = DIRECTION ( 'NONE',  ( 0.000000000000000000, 0.000000000000000000, -1.000000000000000000 ) ) ;
#258 = ORIENTED_EDGE ( 'NONE', *, *, #201, .F. ) ;
#259 = CARTESIAN_POINT ( 'NONE',  ( 0.000000000000000000, 0.000000000000000000, -7.838690808249826780 ) ) ;
#260 = ADVANCED_FACE ( 'NONE', ( #316 ), #184, .F. ) ;
#261 = AXIS2_PLACEMENT_3D ( 'NONE', #386, #332, #512 ) ;
#262 = ORIENTED_EDGE ( 'NONE', *, *, #590, .F. ) ;
#263 = STYLED_ITEM ( 'NONE', ( #418 ), #34 ) ;
#264 = CARTESIAN_POINT ( 'NONE',  ( -7.000000000000039080, 8.572527594031520521E-16, 0.000000000000000000 ) ) ;
#265 = EDGE_CURVE ( 'NONE', #353, #21, #181, .T. ) ;
#266 = VERTEX_POINT ( 'NONE', #548 ) ;
#267 = EDGE_LOOP ( 'NONE', ( #490, #436, #381 ) ) ;
#268 = TOROIDAL_SURFACE ( 'NONE', #343, 13.00000000000000000, 10.00000000000000000 ) ;
#269 = LINE ( 'NONE', #264, #137 ) ;
#270 = VECTOR ( 'NONE', #478, 1000.000000000000000 ) ;
#271 = EDGE_CURVE ( 'NONE', #509, #100, #547, .T. ) ;
#272 = CONICAL_SURFACE ( 'NONE', #526, 23.50000000000000000, 0.7853981633974477239 ) ;
#273 = ADVANCED_FACE ( 'NONE', ( #315 ), #80, .F. ) ;
#274 = DIRECTION ( 'NONE',  ( 0.5000000000000003331, 0.8660254037844384856, 0.000000000000000000 ) ) ;
#275 = CARTESIAN_POINT ( 'NONE',  ( 0.000000000000000000, 0.000000000000000000, -7.838690808249826780 ) ) ;
#276 = FACE_OUTER_BOUND ( 'NONE', #482, .T. ) ;
#277 = DIRECTION ( 'NONE',  ( -0.000000000000000000, -1.000000000000000000, 0.000000000000000000 ) ) ;
#278 = DIRECTION ( 'NONE',  ( 0.000000000000000000, -1.000000000000000000, 0.000000000000000000 ) ) ;
#279 = LINE ( 'NONE', #456, #156 ) ;
#280 = DIRECTION ( 'NONE',  ( -0.000000000000000000, -0.000000000000000000, 1.000000000000000000 ) ) ;
#281 = ORIENTED_EDGE ( 'NONE', *, *, #590, .T. ) ;
#282 = EDGE_CURVE ( 'NONE', #447, #329, #106, .T. ) ;
#283 = ORIENTED_EDGE ( 'NONE', *, *, #35, .F. ) ;
#284 =( NAMED_UNIT ( * ) PLANE_ANGLE_UNIT ( ) SI_UNIT ( $, .RADIAN. ) );
#285 = VERTEX_POINT ( 'NONE', #383 ) ;
#286 = AXIS2_PLACEMENT_3D ( 'NONE', #7, #349, #193 ) ;
#287 = ADVANCED_FACE ( 'NONE', ( #432 ), #155, .F. ) ;
#288 = CARTESIAN_POINT ( 'NONE',  ( 1.770597932034259475E-15, -3.464101615137754830, -40.00000000000000000 ) ) ;
#289 = ORIENTED_EDGE ( 'NONE', *, *, #84, .F. ) ;
#290 = DIRECTION ( 'NONE',  ( -0.7071067811865510144, 0.000000000000000000, -0.7071067811865441310 ) ) ;
#291 = ORIENTED_EDGE ( 'NONE', *, *, #8, .T. ) ;
#292 = FACE_OUTER_BOUND ( 'NONE', #64, .T. ) ;
#293 = AXIS2_PLACEMENT_3D ( 'NONE', #366, #135, #128 ) ;
#294 = FACE_OUTER_BOUND ( 'NONE', #267, .T. ) ;
#295 = CARTESIAN_POINT ( 'NONE',  ( 0.000000000000000000, 0.000000000000000000, -40.00000000000000000 ) ) ;
#296 = DIRECTION ( 'NONE',  ( 1.000000000000000000, 0.000000000000000000, 0.000000000000000000 ) ) ;
#297 = AXIS2_PLACEMENT_3D ( 'NONE', #400, #69, #583 ) ;
#298 = CARTESIAN_POINT ( 'NONE',  ( -2.999999999999998224, 1.732050807568880968, -25.00000000000000000 ) ) ;
#299 = ORIENTED_EDGE ( 'NONE', *, *, #367, .F. ) ;
#300 = DIRECTION ( 'NONE',  ( -0.000000000000000000, -0.000000000000000000, 1.000000000000000000 ) ) ;
#301 = ORIENTED_EDGE ( 'NONE', *, *, #468, .F. ) ;
#302 = ORIENTED_EDGE ( 'NONE', *, *, #81, .T. ) ;
#303 = EDGE_CURVE ( 'NONE', #45, #266, #416, .T. ) ;
#304 = CARTESIAN_POINT ( 'NONE',  ( -2.999999999999999112, 3.673940397442058882E-16, -7.838690808249826780 ) ) ;
#305 = ORIENTED_EDGE ( 'NONE', *, *, #113, .T. ) ;
#306 = ORIENTED_EDGE ( 'NONE', *, *, #496, .F. ) ;
#307 = ADVANCED_FACE ( 'NONE', ( #292 ), #525, .T. ) ;
#308 = DIRECTION ( 'NONE',  ( -0.000000000000000000, -0.000000000000000000, 1.000000000000000000 ) ) ;
#309 = EDGE_LOOP ( 'NONE', ( #568, #217, #216 ) ) ;
#310 = VECTOR ( 'NONE', #231, 1000.000000000000114 ) ;
#311 = ADVANCED_FACE ( 'NONE', ( #151 ), #463, .F. ) ;
#312 = AXIS2_PLACEMENT_3D ( 'NONE', #110, #342, #531 ) ;
#313 = CLOSED_SHELL ( 'NONE', ( #484, #354, #500, #327, #560, #239, #5, #307, #66, #364, #564, #44, #260, #27, #273, #115, #543, #255 ) ) ;
#314 = CIRCLE ( 'NONE', #545, 2.999999999999999112 ) ;
#315 = FACE_OUTER_BOUND ( 'NONE', #246, .T. ) ;
#316 = FACE_OUTER_BOUND ( 'NONE', #563, .T. ) ;
#317 = CARTESIAN_POINT ( 'NONE',  ( -2.999999999999998224, -1.732050807568876083, -49.16515138991168499 ) ) ;
#318 = LINE ( 'NONE', #503, #310 ) ;
#319 = CARTESIAN_POINT ( 'NONE',  ( 0.000000000000000000, 0.000000000000000000, 0.000000000000000000 ) ) ;
#320 = AXIS2_PLACEMENT_3D ( 'NONE', #516, #569, #102 ) ;
#321 = DIRECTION ( 'NONE',  ( 1.000000000000000000, 0.000000000000000000, 0.000000000000000000 ) ) ;
#322 = CARTESIAN_POINT ( 'NONE',  ( 8.626363445208182944E-16, 0.000000000000000000, 27.33587386567328892 ) ) ;
#323 = DIRECTION ( 'NONE',  ( 1.000000000000000000, 0.000000000000000000, 0.000000000000000000 ) ) ;
#324 = DIRECTION ( 'NONE',  ( 1.224646799147353207E-16, 1.000000000000000000, 0.000000000000000000 ) ) ;
#325 = FACE_OUTER_BOUND ( 'NONE', #372, .T. ) ;
#326 = APPLICATION_PROTOCOL_DEFINITION ( 'draft international standard', 'automotive_design', 1998, #252 ) ;
#327 = ADVANCED_FACE ( 'NONE', ( #247 ), #157, .T. ) ;
#328 = DIRECTION ( 'NONE',  ( -1.000000000000000000, 0.000000000000000000, 0.000000000000000000 ) ) ;
#329 = VERTEX_POINT ( 'NONE', #203 ) ;
#330 =( LENGTH_UNIT ( ) NAMED_UNIT ( * ) SI_UNIT ( .MILLI., .METRE. ) );
#331 = VERTEX_POINT ( 'NONE', #251 ) ;
#332 = DIRECTION ( 'NONE',  ( -0.000000000000000000, -0.000000000000000000, 1.000000000000000000 ) ) ;
#333 = EDGE_CURVE ( 'NONE', #584, #433, #561, .T. ) ;
#334 = DIRECTION ( 'NONE',  ( -0.5000000000000002220, -0.8660254037844385966, 0.000000000000000000 ) ) ;
#335 = FILL_AREA_STYLE_COLOUR ( '', #129 ) ;
#336 = CARTESIAN_POINT ( 'NONE',  ( -2.999999999999998224, -1.732050807568876083, -25.00000000000000000 ) ) ;
#337 = ORIENTED_EDGE ( 'NONE', *, *, #360, .T. ) ;
#338 =( GEOMETRIC_REPRESENTATION_CONTEXT ( 3 ) GLOBAL_UNCERTAINTY_ASSIGNED_CONTEXT ( ( #534 ) ) GLOBAL_UNIT_ASSIGNED_CONTEXT ( ( #196, #3, #190 ) ) REPRESENTATION_CONTEXT ( 'NONE', 'WORKASPACE' ) );
#339 = DIRECTION ( 'NONE',  ( -1.000000000000000000, 1.224646799147353207E-16, 0.000000000000000000 ) ) ;
#340 = SURFACE_STYLE_FILL_AREA ( #153 ) ;
#341 = DIRECTION ( 'NONE',  ( -0.000000000000000000, -0.000000000000000000, 1.000000000000000000 ) ) ;
#342 = DIRECTION ( 'NONE',  ( -0.000000000000000000, -0.000000000000000000, 1.000000000000000000 ) ) ;
#343 = AXIS2_PLACEMENT_3D ( 'NONE', #451, #131, #555 ) ;
#344 = DIRECTION ( 'NONE',  ( 0.000000000000000000, 0.000000000000000000, -1.000000000000000000 ) ) ;
#345 = ORIENTED_EDGE ( 'NONE', *, *, #475, .T. ) ;
#346 = VECTOR ( 'NONE', #376, 1000.000000000000000 ) ;
#347 = VECTOR ( 'NONE', #520, 1000.000000000000000 ) ;
#348 = AXIS2_PLACEMENT_3D ( 'NONE', #107, #341, #558 ) ;
#349 = DIRECTION ( 'NONE',  ( -0.000000000000000000, -0.000000000000000000, 1.000000000000000000 ) ) ;
#350 = ORIENTED_EDGE ( 'NONE', *, *, #586, .T. ) ;
#351 = DIRECTION ( 'NONE',  ( -0.000000000000000000, -0.000000000000000000, 1.000000000000000000 ) ) ;
#352 = EDGE_CURVE ( 'NONE', #100, #509, #235, .T. ) ;
#353 = VERTEX_POINT ( 'NONE', #18 ) ;
#354 = ADVANCED_FACE ( 'NONE', ( #387 ), #420, .T. ) ;
#355 = DIRECTION ( 'NONE',  ( -1.224646799147353207E-16, -1.000000000000000000, -0.000000000000000000 ) ) ;
#356 = VERTEX_POINT ( 'NONE', #298 ) ;
#357 = ORIENTED_EDGE ( 'NONE', *, *, #475, .F. ) ;
#358 = DIRECTION ( 'NONE',  ( 1.000000000000000000, -1.224646799147353207E-16, 0.000000000000000000 ) ) ;
#359 = CARTESIAN_POINT ( 'NONE',  ( 7.000000000000039080, 8.572527594031520521E-16, -24.00000000000000000 ) ) ;
#360 = EDGE_CURVE ( 'NONE', #53, #470, #514, .T. ) ;
#361 = PRODUCT ( 'sphere_handle', 'sphere_handle', '', ( #42 ) ) ;
#362 = CARTESIAN_POINT ( 'NONE',  ( -7.000000000000038192, 0.000000000000000000, -25.00000000000000000 ) ) ;
#363 = AXIS2_PLACEMENT_3D ( 'NONE', #208, #300, #58 ) ;
#364 = ADVANCED_FACE ( 'NONE', ( #480 ), #572, .T. ) ;
#365 = DIRECTION ( 'NONE',  ( 0.8660254037844387076, 0.4999999999999998890, 0.000000000000000000 ) ) ;
#366 = CARTESIAN_POINT ( 'NONE',  ( 0.000000000000000000, 0.000000000000000000, -25.00000000000000000 ) ) ;
#367 = EDGE_CURVE ( 'NONE', #433, #45, #2, .T. ) ;
#368 = AXIS2_PLACEMENT_3D ( 'NONE', #83, #274, #591 ) ;
#369 = DIRECTION ( 'NONE',  ( 0.8660254037844387076, 0.4999999999999998890, 0.000000000000000000 ) ) ;
#370 = CIRCLE ( 'NONE', #297, 23.50000000000000000 ) ;
#371 = FACE_OUTER_BOUND ( 'NONE', #582, .T. ) ;
#372 = EDGE_LOOP ( 'NONE', ( #253, #187, #241, #114 ) ) ;
#373 = CARTESIAN_POINT ( 'NONE',  ( 0.000000000000000000, 0.000000000000000000, -7.838690808249826780 ) ) ;
#374 = ADVANCED_FACE ( 'NONE', ( #474 ), #272, .F. ) ;
#375 = ORIENTED_EDGE ( 'NONE', *, *, #271, .T. ) ;
#376 = DIRECTION ( 'NONE',  ( 0.000000000000000000, 1.000000000000000000, 0.000000000000000000 ) ) ;
#377 = VERTEX_POINT ( 'NONE', #288 ) ;
#378 = EDGE_CURVE ( 'NONE', #584, #45, #54, .T. ) ;
#379 = CARTESIAN_POINT ( 'NONE',  ( 8.626363445208182944E-16, 0.000000000000000000, 27.33587386567328892 ) ) ;
#380 = PLANE ( 'NONE',  #489 ) ;
#381 = ORIENTED_EDGE ( 'NONE', *, *, #195, .T. ) ;
#382 = ORIENTED_EDGE ( 'NONE', *, *, #519, .T. ) ;
#383 = CARTESIAN_POINT ( 'NONE',  ( -8.212530043067923593E-16, 0.000000000000000000, 54.83587386567329247 ) ) ;
#384 = ORIENTED_EDGE ( 'NONE', *, *, #130, .T. ) ;
#385 = CARTESIAN_POINT ( 'NONE',  ( -7.000000000000038192, 8.572527594031519535E-16, -25.00000000000000000 ) ) ;
#386 = CARTESIAN_POINT ( 'NONE',  ( 0.000000000000000000, 0.000000000000000000, 27.33587386567331379 ) ) ;
#387 = FACE_OUTER_BOUND ( 'NONE', #391, .T. ) ;
#388 = AXIS2_PLACEMENT_3D ( 'NONE', #225, #141, #365 ) ;
#389 = ORIENTED_EDGE ( 'NONE', *, *, #224, .F. ) ;
#390 = CARTESIAN_POINT ( 'NONE',  ( 0.000000000000000000, 0.000000000000000000, 27.33587386567331379 ) ) ;
#391 = EDGE_LOOP ( 'NONE', ( #94, #345, #111, #150 ) ) ;
#392 = EDGE_CURVE ( 'NONE', #377, #353, #524, .T. ) ;
#393 = CARTESIAN_POINT ( 'NONE',  ( 2.999999999999999112, 0.000000000000000000, -20.00000000000000000 ) ) ;
#394 = AXIS2_PLACEMENT_3D ( 'NONE', #136, #411, #321 ) ;
#395 = ORIENTED_EDGE ( 'NONE', *, *, #367, .T. ) ;
#396 = CARTESIAN_POINT ( 'NONE',  ( -2.999999999999998224, -1.732050807568876083, -25.00000000000000000 ) ) ;
#397 = ORIENTED_EDGE ( 'NONE', *, *, #160, .F. ) ;
#398 = DIRECTION ( 'NONE',  ( -0.8660254037844385966, -0.5000000000000001110, 0.000000000000000000 ) ) ;
#399 = VECTOR ( 'NONE', #426, 1000.000000000000000 ) ;
#400 = CARTESIAN_POINT ( 'NONE',  ( 0.000000000000000000, 0.000000000000000000, 27.33587386567331379 ) ) ;
#401 = VECTOR ( 'NONE', #14, 1000.000000000000000 ) ;
#402 = APPLICATION_CONTEXT ( 'automotive_design' ) ;
#403 = EDGE_CURVE ( 'NONE', #220, #356, #62, .T. ) ;
#404 = DIRECTION ( 'NONE',  ( 0.000000000000000000, -1.000000000000000000, 0.000000000000000000 ) ) ;
#405 = EDGE_CURVE ( 'NONE', #377, #485, #437, .T. ) ;
#406 = VECTOR ( 'NONE', #47, 1000.000000000000000 ) ;
#407 = LINE ( 'NONE', #455, #571 ) ;
#408 = DIRECTION ( 'NONE',  ( -0.5000000000000001110, 0.8660254037844385966, 0.000000000000000000 ) ) ;
#409 = DIRECTION ( 'NONE',  ( -0.000000000000000000, -0.000000000000000000, 1.000000000000000000 ) ) ;
#410 = AXIS2_PLACEMENT_3D ( 'NONE', #229, #278, #597 ) ;
#411 = DIRECTION ( 'NONE',  ( -0.000000000000000000, 1.000000000000000000, 0.000000000000000000 ) ) ;
#412 = DIRECTION ( 'NONE',  ( -0.000000000000000000, -1.000000000000000000, 0.000000000000000000 ) ) ;
#413 = LINE ( 'NONE', #453, #218 ) ;
#414 = VECTOR ( 'NONE', #308, 1000.000000000000000 ) ;
#415 = LINE ( 'NONE', #91, #497 ) ;
#416 = CIRCLE ( 'NONE', #46, 23.50000000000000000 ) ;
#417 = ORIENTED_EDGE ( 'NONE', *, *, #333, .T. ) ;
#418 = PRESENTATION_STYLE_ASSIGNMENT (( #476 ) ) ;
#419 = ORIENTED_EDGE ( 'NONE', *, *, #360, .F. ) ;
#420 = CYLINDRICAL_SURFACE ( 'NONE', #286, 7.000000000000039080 ) ;
#421 = CARTESIAN_POINT ( 'NONE',  ( -1.749821440526566074E-15, 3.464101615137755719, -40.00000000000000000 ) ) ;
#422 = VERTEX_POINT ( 'NONE', #393 ) ;
#423 = CARTESIAN_POINT ( 'NONE',  ( 9.533333333333333215, -1.167496615187143205E-15, 1.541193104796336311 ) ) ;
#424 = FACE_OUTER_BOUND ( 'NONE', #172, .T. ) ;
#425 = ORIENTED_EDGE ( 'NONE', *, *, #435, .T. ) ;
#426 = DIRECTION ( 'NONE',  ( -0.7071067811865471286, 8.659560562354927928E-17, 0.7071067811865479058 ) ) ;
#427 = DIRECTION ( 'NONE',  ( 0.000000000000000000, 0.000000000000000000, -1.000000000000000000 ) ) ;
#428 = LINE ( 'NONE', #431, #401 ) ;
#429 = ORIENTED_EDGE ( 'NONE', *, *, #378, .F. ) ;
#430 = DIRECTION ( 'NONE',  ( 1.000000000000000000, -0.000000000000000000, 0.000000000000000000 ) ) ;
#431 = CARTESIAN_POINT ( 'NONE',  ( 3.000000000000000888, -1.732050807568877415, -49.16515138991168499 ) ) ;
#432 = FACE_OUTER_BOUND ( 'NONE', #49, .T. ) ;
#433 = VERTEX_POINT ( 'NONE', #170 ) ;
#434 = DIRECTION ( 'NONE',  ( -0.000000000000000000, -0.000000000000000000, 1.000000000000000000 ) ) ;
#435 = EDGE_CURVE ( 'NONE', #12, #285, #233, .T. ) ;
#436 = ORIENTED_EDGE ( 'NONE', *, *, #142, .T. ) ;
#437 = LINE ( 'NONE', #448, #222 ) ;
#438 = ORIENTED_EDGE ( 'NONE', *, *, #439, .T. ) ;
#439 = EDGE_CURVE ( 'NONE', #521, #485, #533, .T. ) ;
#440 = AXIS2_PLACEMENT_3D ( 'NONE', #146, #104, #63 ) ;
#441 = CARTESIAN_POINT ( 'NONE',  ( -2.999999999999998224, -1.732050807568876083, -40.00000000000000000 ) ) ;
#442 = AXIS2_PLACEMENT_3D ( 'NONE', #506, #232, #328 ) ;
#443 = VERTEX_POINT ( 'NONE', #441 ) ;
#444 = VERTEX_POINT ( 'NONE', #33 ) ;
#445 = LINE ( 'NONE', #167, #479 ) ;
#446 = CIRCLE ( 'NONE', #182, 2.999999999999999112 ) ;
#447 = VERTEX_POINT ( 'NONE', #304 ) ;
#448 = CARTESIAN_POINT ( 'NONE',  ( 1.770597932034259475E-15, -3.464101615137754830, -49.16515138991168499 ) ) ;
#449 = VECTOR ( 'NONE', #579, 1000.000000000000114 ) ;
#450 = EDGE_CURVE ( 'NONE', #100, #470, #30, .T. ) ;
#451 = CARTESIAN_POINT ( 'NONE',  ( 0.000000000000000000, 0.000000000000000000, -7.838690808249826780 ) ) ;
#452 = EDGE_CURVE ( 'NONE', #74, #220, #119, .T. ) ;
#453 = CARTESIAN_POINT ( 'NONE',  ( -2.999999999999998224, -1.732050807568876083, -40.00000000000000000 ) ) ;
#454 = DIRECTION ( 'NONE',  ( -0.000000000000000000, -0.000000000000000000, 1.000000000000000000 ) ) ;
#455 = CARTESIAN_POINT ( 'NONE',  ( -2.999999999999998224, 1.732050807568880968, -25.00000000000000000 ) ) ;
#456 = CARTESIAN_POINT ( 'NONE',  ( 3.000000000000000888, 1.732050807568876083, -49.16515138991168499 ) ) ;
#457 = CIRCLE ( 'NONE', #40, 27.50000000000000000 ) ;
#458 = DIRECTION ( 'NONE',  ( 1.000000000000000000, 0.000000000000000000, 0.000000000000000000 ) ) ;
#459 = ORIENTED_EDGE ( 'NONE', *, *, #439, .F. ) ;
#460 = VERTEX_POINT ( 'NONE', #539 ) ;
#461 = CARTESIAN_POINT ( 'NONE',  ( -7.000000000000039080, 0.000000000000000000, -24.00000000000000000 ) ) ;
#462 = CARTESIAN_POINT ( 'NONE',  ( -7.000000000000039080, 0.000000000000000000, -24.00000000000000000 ) ) ;
#463 = CONICAL_SURFACE ( 'NONE', #178, 23.50000000000000000, 0.7853981633974477239 ) ;
#464 = CLOSED_SHELL ( 'NONE', ( #126, #311, #374, #287 ) ) ;
#465 = DIRECTION ( 'NONE',  ( -1.000000000000000000, 1.224646799147353207E-16, 0.000000000000000000 ) ) ;
#466 = CIRCLE ( 'NONE', #410, 9.999999999999998224 ) ;
#467 = ORIENTED_EDGE ( 'NONE', *, *, #243, .T. ) ;
#468 = EDGE_CURVE ( 'NONE', #422, #470, #210, .T. ) ;
#469 = DIRECTION ( 'NONE',  ( 1.000000000000000000, 0.000000000000000000, 0.000000000000000000 ) ) ;
#470 = VERTEX_POINT ( 'NONE', #359 ) ;
#471 = PLANE ( 'NONE',  #494 ) ;
#472 = EDGE_LOOP ( 'NONE', ( #57, #581, #535, #384 ) ) ;
#473 = AXIS2_PLACEMENT_3D ( 'NONE', #322, #404, #138 ) ;
#474 = FACE_OUTER_BOUND ( 'NONE', #559, .T. ) ;
#475 = EDGE_CURVE ( 'NONE', #509, #53, #269, .T. ) ;
#476 = SURFACE_STYLE_USAGE ( .BOTH. , #105 ) ;
#477 = LINE ( 'NONE', #17, #529 ) ;
#478 = DIRECTION ( 'NONE',  ( 0.8660254037844385966, 0.5000000000000001110, -0.000000000000000000 ) ) ;
#479 = VECTOR ( 'NONE', #174, 1000.000000000000114 ) ;
#480 = FACE_OUTER_BOUND ( 'NONE', #164, .T. ) ;
#481 = EDGE_CURVE ( 'NONE', #485, #487, #445, .T. ) ;
#482 = EDGE_LOOP ( 'NONE', ( #301, #557, #6, #337 ) ) ;
#483 = DIRECTION ( 'NONE',  ( 1.000000000000000000, 0.000000000000000000, 0.000000000000000000 ) ) ;
#484 = ADVANCED_FACE ( 'NONE', ( #219 ), #551, .F. ) ;
#485 = VERTEX_POINT ( 'NONE', #215 ) ;
#486 = CARTESIAN_POINT ( 'NONE',  ( 3.000000000000000888, -1.732050807568877415, -25.00000000000000000 ) ) ;
#487 = VERTEX_POINT ( 'NONE', #396 ) ;
#488 = DIRECTION ( 'NONE',  ( 0.7071067811865510144, 8.659560562354977232E-17, -0.7071067811865441310 ) ) ;
#489 = AXIS2_PLACEMENT_3D ( 'NONE', #562, #408, #183 ) ;
#490 = ORIENTED_EDGE ( 'NONE', *, *, #435, .F. ) ;
#491 = ORIENTED_EDGE ( 'NONE', *, *, #405, .T. ) ;
#492 = DIRECTION ( 'NONE',  ( 1.000000000000000000, 0.000000000000000000, 0.000000000000000000 ) ) ;
#493 = CIRCLE ( 'NONE', #473, 23.50000000000000000 ) ;
#494 = AXIS2_PLACEMENT_3D ( 'NONE', #295, #202, #240 ) ;
#495 = AXIS2_PLACEMENT_3D ( 'NONE', #275, #344, #20 ) ;
#496 = EDGE_CURVE ( 'NONE', #460, #447, #76, .T. ) ;
#497 = VECTOR ( 'NONE', #556, 1000.000000000000227 ) ;
#498 = DIRECTION ( 'NONE',  ( 0.000000000000000000, 0.000000000000000000, -1.000000000000000000 ) ) ;
#499 = EDGE_CURVE ( 'NONE', #45, #433, #370, .T. ) ;
#500 = ADVANCED_FACE ( 'NONE', ( #589 ), #161, .T. ) ;
#501 = DIRECTION ( 'NONE',  ( 0.000000000000000000, 1.000000000000000000, 0.000000000000000000 ) ) ;
#502 = SHAPE_DEFINITION_REPRESENTATION ( #123, #82 ) ;
#503 = CARTESIAN_POINT ( 'NONE',  ( 1.770597932034259475E-15, -3.464101615137754830, -40.00000000000000000 ) ) ;
#504 = LINE ( 'NONE', #39, #48 ) ;
#505 = DIRECTION ( 'NONE',  ( -0.000000000000000000, -0.000000000000000000, 1.000000000000000000 ) ) ;
#506 = CARTESIAN_POINT ( 'NONE',  ( 0.000000000000000000, 0.000000000000000000, -24.00000000000000000 ) ) ;
#507 = CARTESIAN_POINT ( 'NONE',  ( 3.000000000000000888, 1.732050807568876083, -40.00000000000000000 ) ) ;
#508 = LINE ( 'NONE', #139, #406 ) ;
#509 = VERTEX_POINT ( 'NONE', #385 ) ;
#510 = DIRECTION ( 'NONE',  ( -1.000000000000000000, 0.000000000000000000, 0.000000000000000000 ) ) ;
#511 = ORIENTED_EDGE ( 'NONE', *, *, #176, .T. ) ;
#512 = DIRECTION ( 'NONE',  ( 1.000000000000000000, 0.000000000000000000, 0.000000000000000000 ) ) ;
#513 = PLANE ( 'NONE',  #72 ) ;
#514 = CIRCLE ( 'NONE', #440, 7.000000000000039080 ) ;
#515 = EDGE_LOOP ( 'NONE', ( #55, #258, #24, #283, #145, #67 ) ) ;
#516 = CARTESIAN_POINT ( 'NONE',  ( 8.626363445208182944E-16, 0.000000000000000000, 27.33587386567328892 ) ) ;
#517 = AXIS2_PLACEMENT_3D ( 'NONE', #148, #430, #427 ) ;
#518 = ORIENTED_EDGE ( 'NONE', *, *, #195, .F. ) ;
#519 = EDGE_CURVE ( 'NONE', #487, #356, #144, .T. ) ;
#520 = DIRECTION ( 'NONE',  ( 0.7071067811865471286, 0.000000000000000000, 0.7071067811865479058 ) ) ;
#521 = VERTEX_POINT ( 'NONE', #197 ) ;
#522 = LINE ( 'NONE', #461, #78 ) ;
#523 = AXIS2_PLACEMENT_3D ( 'NONE', #185, #553, #323 ) ;
#524 = LINE ( 'NONE', #108, #270 ) ;
#525 = CYLINDRICAL_SURFACE ( 'NONE', #363, 2.999999999999999112 ) ;
#526 = AXIS2_PLACEMENT_3D ( 'NONE', #98, #13, #469 ) ;
#527 = ORIENTED_EDGE ( 'NONE', *, *, #223, .F. ) ;
#528 = AXIS2_PLACEMENT_3D ( 'NONE', #574, #570, #296 ) ;
#529 = VECTOR ( 'NONE', #205, 1000.000000000000227 ) ;
#530 = PRODUCT_DEFINITION ( 'UNKNOWN', '', #552, #158 ) ;
#531 = DIRECTION ( 'NONE',  ( 1.000000000000000000, 0.000000000000000000, 0.000000000000000000 ) ) ;
#532 = ORIENTED_EDGE ( 'NONE', *, *, #405, .F. ) ;
#533 = LINE ( 'NONE', #486, #186 ) ;
#534 = UNCERTAINTY_MEASURE_WITH_UNIT (LENGTH_MEASURE( 1.000000000000000082E-05 ), #196, 'distance_accuracy_value', 'NONE');
#535 = ORIENTED_EDGE ( 'NONE', *, *, #166, .T. ) ;
#536 = CARTESIAN_POINT ( 'NONE',  ( -2.999999999999999112, 3.673940397442058882E-16, 0.000000000000000000 ) ) ;
#537 = ORIENTED_EDGE ( 'NONE', *, *, #223, .T. ) ;
#538 = EDGE_LOOP ( 'NONE', ( #511, #566, #192, #397 ) ) ;
#539 = CARTESIAN_POINT ( 'NONE',  ( -2.999999999999999112, 3.673940397442058882E-16, -20.00000000000000000 ) ) ;
#540 = CARTESIAN_POINT ( 'NONE',  ( -2.999999999999998224, 1.732050807568880968, -49.16515138991168499 ) ) ;
#541 = EDGE_CURVE ( 'NONE', #460, #53, #522, .T. ) ;
#542 = DIRECTION ( 'NONE',  ( 1.000000000000000000, 0.000000000000000000, 0.000000000000000000 ) ) ;
#543 = ADVANCED_FACE ( 'NONE', ( #60 ), #471, .F. ) ;
#544 = CIRCLE ( 'NONE', #165, 10.00000000000000000 ) ;
#545 = AXIS2_PLACEMENT_3D ( 'NONE', #85, #194, #458 ) ;
#546 = DIRECTION ( 'NONE',  ( 1.000000000000000000, 0.000000000000000000, 0.000000000000000000 ) ) ;
#547 = CIRCLE ( 'NONE', #293, 7.000000000000038192 ) ;
#548 = CARTESIAN_POINT ( 'NONE',  ( 2.301596333518958257E-15, 0.000000000000000000, 50.83587386567328537 ) ) ;
#549 = SPHERICAL_SURFACE ( 'NONE', #394, 23.50000000000000000 ) ;
#550 = DIRECTION ( 'NONE',  ( 0.000000000000000000, -0.000000000000000000, 1.000000000000000000 ) ) ;
#551 = TOROIDAL_SURFACE ( 'NONE', #250, 13.00000000000000000, 10.00000000000000000 ) ;
#552 = PRODUCT_DEFINITION_FORMATION_WITH_SPECIFIED_SOURCE ( 'ANY', '', #361, .NOT_KNOWN. ) ;
#553 = DIRECTION ( 'NONE',  ( -0.000000000000000000, -0.000000000000000000, 1.000000000000000000 ) ) ;
#554 = CARTESIAN_POINT ( 'NONE',  ( 8.626363445208182944E-16, 0.000000000000000000, 27.33587386567328892 ) ) ;
#555 = DIRECTION ( 'NONE',  ( 1.000000000000000000, 0.000000000000000000, 0.000000000000000000 ) ) ;
#556 = DIRECTION ( 'NONE',  ( -0.8660254037844384856, 0.5000000000000001110, 0.000000000000000000 ) ) ;
#557 = ORIENTED_EDGE ( 'NONE', *, *, #113, .F. ) ;
#558 = DIRECTION ( 'NONE',  ( 1.000000000000000000, 0.000000000000000000, 0.000000000000000000 ) ) ;
#559 = EDGE_LOOP ( 'NONE', ( #429, #417, #395 ) ) ;
#560 = ADVANCED_FACE ( 'NONE', ( #424 ), #565, .T. ) ;
#561 = LINE ( 'NONE', #206, #347 ) ;
#562 = CARTESIAN_POINT ( 'NONE',  ( 3.000000000000000888, -1.732050807568877415, -49.16515138991168499 ) ) ;
#563 = EDGE_LOOP ( 'NONE', ( #169, #51, #19, #209 ) ) ;
#564 = ADVANCED_FACE ( 'NONE', ( #56 ), #245, .F. ) ;
#565 = SPHERICAL_SURFACE ( 'NONE', #320, 27.50000000000000000 ) ;
#566 = ORIENTED_EDGE ( 'NONE', *, *, #496, .T. ) ;
#567 = CARTESIAN_POINT ( 'NONE',  ( 8.626363445208182944E-16, 0.000000000000000000, 27.33587386567328892 ) ) ;
#568 = ORIENTED_EDGE ( 'NONE', *, *, #499, .F. ) ;
#569 = DIRECTION ( 'NONE',  ( -0.000000000000000000, -1.000000000000000000, 0.000000000000000000 ) ) ;
#570 = DIRECTION ( 'NONE',  ( -0.000000000000000000, -0.000000000000000000, 1.000000000000000000 ) ) ;
#571 = VECTOR ( 'NONE', #369, 1000.000000000000000 ) ;
#572 = CYLINDRICAL_SURFACE ( 'NONE', #127, 7.000000000000039080 ) ;
#573 = VERTEX_POINT ( 'NONE', #191 ) ;
#574 = CARTESIAN_POINT ( 'NONE',  ( 0.000000000000000000, 0.000000000000000000, -25.00000000000000000 ) ) ;
#575 = VECTOR ( 'NONE', #221, 1000.000000000000000 ) ;
#576 = ORIENTED_EDGE ( 'NONE', *, *, #403, .F. ) ;
#577 =( GEOMETRIC_REPRESENTATION_CONTEXT ( 3 ) GLOBAL_UNCERTAINTY_ASSIGNED_CONTEXT ( ( #175 ) ) GLOBAL_UNIT_ASSIGNED_CONTEXT ( ( #330, #284, #52 ) ) REPRESENTATION_CONTEXT ( 'NONE', 'WORKASPACE' ) );
#578 = MECHANICAL_DESIGN_GEOMETRIC_PRESENTATION_REPRESENTATION (  '', ( #263 ), #338 ) ;
#579 = DIRECTION ( 'NONE',  ( -0.8660254037844387076, -0.4999999999999998890, 0.000000000000000000 ) ) ;
#580 = EDGE_CURVE ( 'NONE', #353, #521, #428, .T. ) ;
#581 = ORIENTED_EDGE ( 'NONE', *, *, #265, .T. ) ;
#582 = EDGE_LOOP ( 'NONE', ( #28, #238, #168, #281 ) ) ;
#583 = DIRECTION ( 'NONE',  ( 1.000000000000000000, 0.000000000000000000, 0.000000000000000000 ) ) ;
#584 = VERTEX_POINT ( 'NONE', #11 ) ;
#585 = ORIENTED_EDGE ( 'NONE', *, *, #201, .T. ) ;
#586 = EDGE_CURVE ( 'NONE', #331, #12, #189, .T. ) ;
#587 = DIRECTION ( 'NONE',  ( -0.000000000000000000, -0.000000000000000000, 1.000000000000000000 ) ) ;
#588 = AXIS2_PLACEMENT_3D ( 'NONE', #124, #257, #149 ) ;
#589 = FACE_OUTER_BOUND ( 'NONE', #171, .T. ) ;
#590 = EDGE_CURVE ( 'NONE', #573, #444, #477, .T. ) ;
#591 = DIRECTION ( 'NONE',  ( -0.8660254037844384856, 0.5000000000000003331, 0.000000000000000000 ) ) ;
#592 = FACE_OUTER_BOUND ( 'NONE', #10, .T. ) ;
#593 = FACE_OUTER_BOUND ( 'NONE', #309, .T. ) ;
#594 = CIRCLE ( 'NONE', #77, 2.999999999999999112 ) ;
#595 = CARTESIAN_POINT ( 'NONE',  ( 0.000000000000000000, 0.000000000000000000, -20.00000000000000000 ) ) ;
#596 = DIRECTION ( 'NONE',  ( 0.000000000000000000, 0.000000000000000000, 1.000000000000000000 ) ) ;
#597 = DIRECTION ( 'NONE',  ( 0.000000000000000000, 0.000000000000000000, -1.000000000000000000 ) ) ;
#598 = SPHERICAL_SURFACE ( 'NONE', #211, 27.50000000000000000 ) ;
#599 = PLANE ( 'NONE',  #31 ) ;
ENDSEC;
END-ISO-10303-21;
