ISO-10303-21;
HEADER;
FILE_DESCRIPTION (( 'STEP AP214' ),
    '1' );
FILE_NAME ('slide_long_rod.STEP',
    '2026-07-07T16:30:48',
    ( '' ),
    ( '' ),
    'SwSTEP 2.0',
    'SolidWorks 2026',
    '' );
FILE_SCHEMA (( 'AUTOMOTIVE_DESIGN' ));
ENDSEC;

DATA;
#1 = CARTESIAN_POINT ( 'NONE',  ( 0.000000000000000000, 0.000000000000000000, 0.000000000000000000 ) ) ;
#2 = CARTESIAN_POINT ( 'NONE',  ( 1.499999999999999334, 8.708099243547831492, -319.0636550296246696 ) ) ;
#3 = EDGE_CURVE ( 'NONE', #23, #98, #182, .T. ) ;
#4 = DIRECTION ( 'NONE',  ( 1.301042606982605321E-16, -1.000000000000000000, 0.000000000000000000 ) ) ;
#5 = MANIFOLD_SOLID_BREP ( '\X2\501289d2\X0\1', #237 ) ;
#6 = AXIS2_PLACEMENT_3D ( 'NONE', #118, #241, #95 ) ;
#7 =( NAMED_UNIT ( * ) SI_UNIT ( $, .STERADIAN. ) SOLID_ANGLE_UNIT ( ) );
#8 = AXIS2_PLACEMENT_3D ( 'NONE', #193, #278, #87 ) ;
#9 = ORIENTED_EDGE ( 'NONE', *, *, #27, .T. ) ;
#10 = ORIENTED_EDGE ( 'NONE', *, *, #136, .F. ) ;
#11 = CARTESIAN_POINT ( 'NONE',  ( -1.500000000000000000, 3.708099243547831492, -318.8999999999999773 ) ) ;
#12 = VERTEX_POINT ( 'NONE', #66 ) ;
#13 = ORIENTED_EDGE ( 'NONE', *, *, #27, .F. ) ;
#14 = ORIENTED_EDGE ( 'NONE', *, *, #179, .T. ) ;
#15 = ORIENTED_EDGE ( 'NONE', *, *, #46, .F. ) ;
#16 = EDGE_LOOP ( 'NONE', ( #13, #201, #268, #41 ) ) ;
#17 = ADVANCED_FACE ( 'NONE', ( #105 ), #148, .T. ) ;
#18 = LINE ( 'NONE', #170, #222 ) ;
#19 = CARTESIAN_POINT ( 'NONE',  ( 1.500000000000000000, 3.708099243547831492, -323.9000000000000341 ) ) ;
#20 =( GEOMETRIC_REPRESENTATION_CONTEXT ( 3 ) GLOBAL_UNCERTAINTY_ASSIGNED_CONTEXT ( ( #127 ) ) GLOBAL_UNIT_ASSIGNED_CONTEXT ( ( #185, #270, #61 ) ) REPRESENTATION_CONTEXT ( 'NONE', 'WORKASPACE' ) );
#21 = CARTESIAN_POINT ( 'NONE',  ( 1.500000000000000000, 3.708099243547831492, -323.9000000000000341 ) ) ;
#22 = DIRECTION ( 'NONE',  ( 0.000000000000000000, 0.000000000000000000, 1.000000000000000000 ) ) ;
#23 = VERTEX_POINT ( 'NONE', #147 ) ;
#24 = LINE ( 'NONE', #171, #165 ) ;
#25 = VECTOR ( 'NONE', #267, 1000.000000000000000 ) ;
#26 = DIRECTION ( 'NONE',  ( 0.000000000000000000, 0.000000000000000000, 1.000000000000000000 ) ) ;
#27 = EDGE_CURVE ( 'NONE', #224, #223, #221, .T. ) ;
#28 = APPLICATION_PROTOCOL_DEFINITION ( 'draft international standard', 'automotive_design', 1998, #207 ) ;
#29 = UNCERTAINTY_MEASURE_WITH_UNIT (LENGTH_MEASURE( 1.000000000000000082E-05 ), #196, 'distance_accuracy_value', 'NONE');
#30 = CIRCLE ( 'NONE', #254, 4.000000000000000000 ) ;
#31 = CARTESIAN_POINT ( 'NONE',  ( -4.000000000000000000, 4.898587196589412829E-16, -325.8999999999999773 ) ) ;
#32 = ADVANCED_FACE ( 'NONE', ( #228 ), #78, .T. ) ;
#33 = ORIENTED_EDGE ( 'NONE', *, *, #76, .T. ) ;
#34 = DIRECTION ( 'NONE',  ( 0.000000000000000000, 0.000000000000000000, 1.000000000000000000 ) ) ;
#35 = DIRECTION ( 'NONE',  ( 1.000000000000000000, 0.000000000000000000, -0.000000000000000000 ) ) ;
#36 = VECTOR ( 'NONE', #122, 1000.000000000000000 ) ;
#37 = EDGE_CURVE ( 'NONE', #144, #263, #82, .T. ) ;
#38 = ORIENTED_EDGE ( 'NONE', *, *, #174, .F. ) ;
#39 = SURFACE_SIDE_STYLE ('',( #106 ) ) ;
#40 = CARTESIAN_POINT ( 'NONE',  ( -1.003550309358116177, 8.708099243547831492, -319.1479290748843027 ) ) ;
#41 = ORIENTED_EDGE ( 'NONE', *, *, #276, .F. ) ;
#42 = EDGE_CURVE ( 'NONE', #141, #12, #197, .T. ) ;
#43 = VECTOR ( 'NONE', #4, 1000.000000000000000 ) ;
#44 = CARTESIAN_POINT ( 'NONE',  ( 0.000000000000000000, 0.000000000000000000, 0.000000000000000000 ) ) ;
#45 = CARTESIAN_POINT ( 'NONE',  ( 1.499999999999999334, 8.708099243547831492, -318.8999999999999773 ) ) ;
#46 = EDGE_CURVE ( 'NONE', #141, #144, #234, .T. ) ;
#47 = AXIS2_PLACEMENT_3D ( 'NONE', #65, #229, #205 ) ;
#48 = CARTESIAN_POINT ( 'NONE',  ( 1.499999999999999334, 8.708099243547831492, -318.8999999999999773 ) ) ;
#49 = ORIENTED_EDGE ( 'NONE', *, *, #276, .T. ) ;
#50 = FACE_OUTER_BOUND ( 'NONE', #145, .T. ) ;
#51 = FACE_OUTER_BOUND ( 'NONE', #143, .T. ) ;
#52 = CARTESIAN_POINT ( 'NONE',  ( -1.500000000000000000, 3.708099243547831492, -323.9000000000000341 ) ) ;
#53 = AXIS2_PLACEMENT_3D ( 'NONE', #70, #26, #58 ) ;
#54 = DIRECTION ( 'NONE',  ( -0.000000000000000000, 0.000000000000000000, -1.000000000000000000 ) ) ;
#55 = B_SPLINE_CURVE_WITH_KNOTS ( 'NONE', 3,
 ( #117, #137, #240, #215, #56, #52 ),
 .UNSPECIFIED., .F., .F.,
 ( 4, 2, 4 ),
 ( 0.000000000000000000, 0.003478154419820759548, 0.006956308839641519096 ),
 .UNSPECIFIED. ) ;
#56 = CARTESIAN_POINT ( 'NONE',  ( -1.500000000000000000, 4.558535665009518567, -323.1116243372231338 ) ) ;
#57 = DIRECTION ( 'NONE',  ( -0.000000000000000000, -0.000000000000000000, -1.000000000000000000 ) ) ;
#58 = DIRECTION ( 'NONE',  ( 1.000000000000000000, 0.000000000000000000, 0.000000000000000000 ) ) ;
#59 = DIRECTION ( 'NONE',  ( -0.000000000000000000, -0.000000000000000000, -1.000000000000000000 ) ) ;
#60 = APPLICATION_CONTEXT ( 'automotive_design' ) ;
#61 =( NAMED_UNIT ( * ) SI_UNIT ( $, .STERADIAN. ) SOLID_ANGLE_UNIT ( ) );
#62 = EDGE_LOOP ( 'NONE', ( #220, #245, #226, #232 ) ) ;
#63 = AXIS2_PLACEMENT_3D ( 'NONE', #1, #22, #277 ) ;
#64 = ORIENTED_EDGE ( 'NONE', *, *, #249, .T. ) ;
#65 = CARTESIAN_POINT ( 'NONE',  ( -1.500000000000000666, 8.708099243547831492, -318.8999999999999773 ) ) ;
#66 = CARTESIAN_POINT ( 'NONE',  ( 1.499999999999999334, 8.708099243547831492, -310.8999999999999773 ) ) ;
#67 = CIRCLE ( 'NONE', #262, 4.000000000000000000 ) ;
#68 = DIRECTION ( 'NONE',  ( -1.000000000000000000, 0.000000000000000000, 0.000000000000000000 ) ) ;
#69 = DIRECTION ( 'NONE',  ( 0.000000000000000000, 0.000000000000000000, -1.000000000000000000 ) ) ;
#70 = CARTESIAN_POINT ( 'NONE',  ( 0.000000000000000000, 0.000000000000000000, 0.000000000000000000 ) ) ;
#71 = ADVANCED_FACE ( 'NONE', ( #200 ), #251, .T. ) ;
#72 = CYLINDRICAL_SURFACE ( 'NONE', #111, 4.000000000000000000 ) ;
#73 = STYLED_ITEM ( 'NONE', ( #273 ), #5 ) ;
#74 = EDGE_LOOP ( 'NONE', ( #100, #166, #146, #15 ) ) ;
#75 = CARTESIAN_POINT ( 'NONE',  ( 1.003550309358114401, 8.708099243547831492, -319.1479290748843596 ) ) ;
#76 = EDGE_CURVE ( 'NONE', #150, #98, #169, .T. ) ;
#77 = CARTESIAN_POINT ( 'NONE',  ( 0.5036548814332295620, 8.708099243547831492, -319.1919007564521849 ) ) ;
#78 = PLANE ( 'NONE',  #99 ) ;
#79 = PRODUCT_DEFINITION_FORMATION_WITH_SPECIFIED_SOURCE ( 'ANY', '', #219, .NOT_KNOWN. ) ;
#80 = EDGE_CURVE ( 'NONE', #12, #263, #18, .T. ) ;
#81 = SURFACE_STYLE_USAGE ( .BOTH. , #39 ) ;
#82 = LINE ( 'NONE', #164, #177 ) ;
#83 = VERTEX_POINT ( 'NONE', #132 ) ;
#84 = DIRECTION ( 'NONE',  ( -1.000000000000000000, 1.776356839400250465E-15, 0.000000000000000000 ) ) ;
#85 = ADVANCED_FACE ( 'NONE', ( #255 ), #130, .T. ) ;
#86 = DIRECTION ( 'NONE',  ( 0.000000000000000000, 0.000000000000000000, 1.000000000000000000 ) ) ;
#87 = DIRECTION ( 'NONE',  ( 1.000000000000000000, 0.000000000000000000, 0.000000000000000000 ) ) ;
#88 = CARTESIAN_POINT ( 'NONE',  ( 0.000000000000000000, 0.000000000000000000, -310.8999999999999773 ) ) ;
#89 = DIRECTION ( 'NONE',  ( 1.000000000000000000, 0.000000000000000000, 0.000000000000000000 ) ) ;
#90 = EDGE_CURVE ( 'NONE', #248, #223, #142, .T. ) ;
#91 = VECTOR ( 'NONE', #183, 1000.000000000000000 ) ;
#92 = ADVANCED_FACE ( 'NONE', ( #192 ), #235, .T. ) ;
#93 = CARTESIAN_POINT ( 'NONE',  ( 0.000000000000000000, 0.000000000000000000, -325.8999999999999773 ) ) ;
#94 = CIRCLE ( 'NONE', #53, 4.000000000000000000 ) ;
#95 = DIRECTION ( 'NONE',  ( 1.000000000000000000, 0.000000000000000000, 0.000000000000000000 ) ) ;
#96 = PRODUCT_DEFINITION_CONTEXT ( 'detailed design', #207, 'design' ) ;
#97 = DIRECTION ( 'NONE',  ( 1.000000000000000000, 0.000000000000000000, 0.000000000000000000 ) ) ;
#98 = VERTEX_POINT ( 'NONE', #109 ) ;
#99 = AXIS2_PLACEMENT_3D ( 'NONE', #44, #108, #35 ) ;
#100 = ORIENTED_EDGE ( 'NONE', *, *, #216, .F. ) ;
#101 = CARTESIAN_POINT ( 'NONE',  ( -4.000000000000000000, 4.898587196589412829E-16, -337.2137084989847153 ) ) ;
#102 = AXIS2_PLACEMENT_3D ( 'NONE', #257, #69, #153 ) ;
#103 = CARTESIAN_POINT ( 'NONE',  ( 1.499999999999999334, 8.708099243547831492, -319.0636550296246696 ) ) ;
#104 = B_SPLINE_CURVE_WITH_KNOTS ( 'NONE', 3,
 ( #19, #189, #275, #154, #175, #2 ),
 .UNSPECIFIED., .F., .F.,
 ( 4, 2, 4 ),
 ( 0.000000000000000000, 0.003478156244448124979, 0.006956312488896249958 ),
 .UNSPECIFIED. ) ;
#105 = FACE_OUTER_BOUND ( 'NONE', #74, .T. ) ;
#106 = SURFACE_STYLE_FILL_AREA ( #253 ) ;
#107 = ORIENTED_EDGE ( 'NONE', *, *, #214, .T. ) ;
#108 = DIRECTION ( 'NONE',  ( 0.000000000000000000, 0.000000000000000000, 1.000000000000000000 ) ) ;
#109 = CARTESIAN_POINT ( 'NONE',  ( -1.499999999999999556, 3.708099243547831492, -310.8999999999999773 ) ) ;
#110 = CARTESIAN_POINT ( 'NONE',  ( 0.000000000000000000, 0.000000000000000000, -310.8999999999999773 ) ) ;
#111 = AXIS2_PLACEMENT_3D ( 'NONE', #259, #34, #160 ) ;
#112 = ORIENTED_EDGE ( 'NONE', *, *, #179, .F. ) ;
#113 = DIRECTION ( 'NONE',  ( 1.000000000000000000, 1.301042606982605321E-16, -0.000000000000000000 ) ) ;
#114 = CYLINDRICAL_SURFACE ( 'NONE', #8, 4.000000000000000000 ) ;
#115 = MECHANICAL_DESIGN_GEOMETRIC_PRESENTATION_REPRESENTATION (  '', ( #73 ), #20 ) ;
#116 = PRODUCT_CONTEXT ( 'NONE', #60, 'mechanical' ) ;
#117 = CARTESIAN_POINT ( 'NONE',  ( -1.500000000000000666, 8.708099243547831492, -319.0636550296246696 ) ) ;
#118 = CARTESIAN_POINT ( 'NONE',  ( 0.000000000000000000, 0.000000000000000000, 0.000000000000000000 ) ) ;
#119 = DIRECTION ( 'NONE',  ( 0.000000000000000000, 0.000000000000000000, 1.000000000000000000 ) ) ;
#120 = AXIS2_PLACEMENT_3D ( 'NONE', #202, #225, #188 ) ;
#121 = ORIENTED_EDGE ( 'NONE', *, *, #129, .T. ) ;
#122 = DIRECTION ( 'NONE',  ( 0.000000000000000000, 0.000000000000000000, 1.000000000000000000 ) ) ;
#123 = ORIENTED_EDGE ( 'NONE', *, *, #42, .T. ) ;
#124 = CARTESIAN_POINT ( 'NONE',  ( -1.500000000000000666, 8.708099243547831492, -319.0636550296246696 ) ) ;
#125 = PRODUCT_RELATED_PRODUCT_CATEGORY ( 'part', '', ( #219 ) ) ;
#126 = DIRECTION ( 'NONE',  ( 0.000000000000000000, 1.000000000000000000, -0.000000000000000000 ) ) ;
#127 = UNCERTAINTY_MEASURE_WITH_UNIT (LENGTH_MEASURE( 1.000000000000000082E-05 ), #185, 'distance_accuracy_value', 'NONE');
#128 = CARTESIAN_POINT ( 'NONE',  ( 1.499999999999999334, 8.708099243547831492, -310.8999999999999773 ) ) ;
#129 = EDGE_CURVE ( 'NONE', #83, #224, #67, .T. ) ;
#130 = PLANE ( 'NONE',  #213 ) ;
#131 = CARTESIAN_POINT ( 'NONE',  ( -1.500000000000000666, 8.708099243547831492, -319.0636550296246696 ) ) ;
#132 = CARTESIAN_POINT ( 'NONE',  ( 4.000000000000000000, 0.000000000000000000, -325.8999999999999773 ) ) ;
#133 = PLANE ( 'NONE',  #269 ) ;
#134 = VECTOR ( 'NONE', #236, 1000.000000000000000 ) ;
#135 = CARTESIAN_POINT ( 'NONE',  ( -4.000000000000000000, 4.898587196589412829E-16, 0.000000000000000000 ) ) ;
#136 = EDGE_CURVE ( 'NONE', #263, #98, #176, .T. ) ;
#137 = CARTESIAN_POINT ( 'NONE',  ( -1.500000000000000666, 7.882283921059145548, -319.8774849343175788 ) ) ;
#138 =( NAMED_UNIT ( * ) PLANE_ANGLE_UNIT ( ) SI_UNIT ( $, .RADIAN. ) );
#139 = EDGE_CURVE ( 'NONE', #224, #83, #30, .T. ) ;
#140 = EDGE_LOOP ( 'NONE', ( #10, #186, #64, #172 ) ) ;
#141 = VERTEX_POINT ( 'NONE', #180 ) ;
#142 = CIRCLE ( 'NONE', #63, 4.000000000000000000 ) ;
#143 = EDGE_LOOP ( 'NONE', ( #121, #198 ) ) ;
#144 = VERTEX_POINT ( 'NONE', #131 ) ;
#145 = EDGE_LOOP ( 'NONE', ( #168, #9, #244, #38 ) ) ;
#146 = ORIENTED_EDGE ( 'NONE', *, *, #249, .F. ) ;
#147 = CARTESIAN_POINT ( 'NONE',  ( -1.500000000000000000, 3.708099243547831492, -323.9000000000000341 ) ) ;
#148 = CONICAL_SURFACE ( 'NONE', #120, 9.000000000000087041, 0.7853981633974511656 ) ;
#149 = PRODUCT_DEFINITION ( 'UNKNOWN', '', #79, #96 ) ;
#150 = VERTEX_POINT ( 'NONE', #206 ) ;
#151 = CIRCLE ( 'NONE', #102, 4.000000000000000000 ) ;
#152 = CARTESIAN_POINT ( 'NONE',  ( 1.500000000000000000, 3.708099243547831492, -318.8999999999999773 ) ) ;
#153 = DIRECTION ( 'NONE',  ( -1.000000000000000000, 0.000000000000000000, 0.000000000000000000 ) ) ;
#154 = CARTESIAN_POINT ( 'NONE',  ( 1.499999999999999334, 7.055039662121465049, -320.6898928416949843 ) ) ;
#155 = PRODUCT_DEFINITION_SHAPE ( 'NONE', 'NONE',  #149 ) ;
#156 = EDGE_CURVE ( 'NONE', #150, #12, #211, .T. ) ;
#157 = CARTESIAN_POINT ( 'NONE',  ( -1.500000000000000666, 8.708099243547831492, -310.8999999999999773 ) ) ;
#158 = PRESENTATION_LAYER_ASSIGNMENT (  '', '', ( #73 ) ) ;
#159 = ORIENTED_EDGE ( 'NONE', *, *, #216, .T. ) ;
#160 = DIRECTION ( 'NONE',  ( 1.000000000000000000, 0.000000000000000000, 0.000000000000000000 ) ) ;
#161 = EDGE_LOOP ( 'NONE', ( #167, #107, #14, #33 ) ) ;
#162 = CARTESIAN_POINT ( 'NONE',  ( -0.5036548814332225676, 8.708099243547831492, -319.1919007564521280 ) ) ;
#163 = VERTEX_POINT ( 'NONE', #21 ) ;
#164 = CARTESIAN_POINT ( 'NONE',  ( -1.500000000000000666, 8.708099243547831492, -318.8999999999999773 ) ) ;
#165 = VECTOR ( 'NONE', #86, 1000.000000000000000 ) ;
#166 = ORIENTED_EDGE ( 'NONE', *, *, #214, .F. ) ;
#167 = ORIENTED_EDGE ( 'NONE', *, *, #3, .F. ) ;
#168 = ORIENTED_EDGE ( 'NONE', *, *, #139, .F. ) ;
#169 = CIRCLE ( 'NONE', #274, 4.000000000000000000 ) ;
#170 = CARTESIAN_POINT ( 'NONE',  ( 1.499999999999999334, 8.708099243547831492, -310.8999999999999773 ) ) ;
#171 = CARTESIAN_POINT ( 'NONE',  ( 4.000000000000000000, 0.000000000000000000, -337.2137084989847153 ) ) ;
#172 = ORIENTED_EDGE ( 'NONE', *, *, #3, .T. ) ;
#173 = DIRECTION ( 'NONE',  ( 1.000000000000000000, 0.000000000000000000, -0.000000000000000000 ) ) ;
#174 = EDGE_CURVE ( 'NONE', #83, #248, #24, .T. ) ;
#175 = CARTESIAN_POINT ( 'NONE',  ( 1.499999999999999556, 7.882283384394282777, -319.8774854631936364 ) ) ;
#176 = LINE ( 'NONE', #157, #43 ) ;
#177 = VECTOR ( 'NONE', #119, 1000.000000000000000 ) ;
#178 = ADVANCED_FACE ( 'NONE', ( #233, #50 ), #114, .T. ) ;
#179 = EDGE_CURVE ( 'NONE', #163, #150, #256, .T. ) ;
#180 = CARTESIAN_POINT ( 'NONE',  ( 1.499999999999999334, 8.708099243547831492, -319.0636550296246696 ) ) ;
#181 = EDGE_LOOP ( 'NONE', ( #187, #265, #184, #246 ) ) ;
#182 = LINE ( 'NONE', #11, #91 ) ;
#183 = DIRECTION ( 'NONE',  ( 0.000000000000000000, 0.000000000000000000, 1.000000000000000000 ) ) ;
#184 = ORIENTED_EDGE ( 'NONE', *, *, #80, .T. ) ;
#185 =( LENGTH_UNIT ( ) NAMED_UNIT ( * ) SI_UNIT ( .MILLI., .METRE. ) );
#186 = ORIENTED_EDGE ( 'NONE', *, *, #37, .F. ) ;
#187 = ORIENTED_EDGE ( 'NONE', *, *, #76, .F. ) ;
#188 = DIRECTION ( 'NONE',  ( 1.000000000000000000, 0.000000000000000000, 0.000000000000000000 ) ) ;
#189 = CARTESIAN_POINT ( 'NONE',  ( 1.499999999999999778, 4.558474821375376074, -323.1116807407814804 ) ) ;
#190 = DIRECTION ( 'NONE',  ( 0.000000000000000000, 0.000000000000000000, 1.000000000000000000 ) ) ;
#191 = DIRECTION ( 'NONE',  ( -1.301042606982605321E-16, 1.000000000000000000, -0.000000000000000000 ) ) ;
#192 = FACE_OUTER_BOUND ( 'NONE', #62, .T. ) ;
#193 = CARTESIAN_POINT ( 'NONE',  ( 0.000000000000000000, 0.000000000000000000, -337.2137084989847153 ) ) ;
#194 = DIRECTION ( 'NONE',  ( 0.000000000000000000, 0.000000000000000000, 1.000000000000000000 ) ) ;
#195 = SHAPE_DEFINITION_REPRESENTATION ( #155, #208 ) ;
#196 =( LENGTH_UNIT ( ) NAMED_UNIT ( * ) SI_UNIT ( .MILLI., .METRE. ) );
#197 = LINE ( 'NONE', #266, #25 ) ;
#198 = ORIENTED_EDGE ( 'NONE', *, *, #139, .T. ) ;
#199 = ORIENTED_EDGE ( 'NONE', *, *, #156, .F. ) ;
#200 = FACE_OUTER_BOUND ( 'NONE', #140, .T. ) ;
#201 = ORIENTED_EDGE ( 'NONE', *, *, #129, .F. ) ;
#202 = CARTESIAN_POINT ( 'NONE',  ( 0.000000000000000000, 0.000000000000000000, -318.8999999999999773 ) ) ;
#203 = DIRECTION ( 'NONE',  ( 0.000000000000000000, 0.000000000000000000, 1.000000000000000000 ) ) ;
#204 = ADVANCED_FACE ( 'NONE', ( #51 ), #133, .F. ) ;
#205 = DIRECTION ( 'NONE',  ( 1.301042606982605321E-16, -1.000000000000000000, 0.000000000000000000 ) ) ;
#206 = CARTESIAN_POINT ( 'NONE',  ( 1.500000000000000000, 3.708099243547831492, -310.8999999999999773 ) ) ;
#207 = APPLICATION_CONTEXT ( 'automotive_design' ) ;
#208 = ADVANCED_BREP_SHAPE_REPRESENTATION ( 'slide_long_rod', ( #5, #6 ), #250 ) ;
#209 = DIRECTION ( 'NONE',  ( -1.301042606982605321E-16, 1.000000000000000000, 0.000000000000000000 ) ) ;
#210 = AXIS2_PLACEMENT_3D ( 'NONE', #88, #54, #238 ) ;
#211 = LINE ( 'NONE', #128, #231 ) ;
#212 = CARTESIAN_POINT ( 'NONE',  ( 0.000000000000000000, 0.000000000000000000, -325.8999999999999773 ) ) ;
#213 = AXIS2_PLACEMENT_3D ( 'NONE', #48, #113, #209 ) ;
#214 = EDGE_CURVE ( 'NONE', #23, #163, #151, .T. ) ;
#215 = CARTESIAN_POINT ( 'NONE',  ( -1.500000000000000444, 5.392467118535883230, -322.3061852018894342 ) ) ;
#216 = EDGE_CURVE ( 'NONE', #163, #141, #104, .T. ) ;
#217 = APPLICATION_PROTOCOL_DEFINITION ( 'draft international standard', 'automotive_design', 1998, #60 ) ;
#218 = CARTESIAN_POINT ( 'NONE',  ( 4.000000000000000000, 0.000000000000000000, 0.000000000000000000 ) ) ;
#219 = PRODUCT ( 'slide_long_rod', 'slide_long_rod', '', ( #116 ) ) ;
#220 = ORIENTED_EDGE ( 'NONE', *, *, #80, .F. ) ;
#221 = LINE ( 'NONE', #101, #36 ) ;
#222 = VECTOR ( 'NONE', #68, 1000.000000000000000 ) ;
#223 = VERTEX_POINT ( 'NONE', #135 ) ;
#224 = VERTEX_POINT ( 'NONE', #31 ) ;
#225 = DIRECTION ( 'NONE',  ( -0.000000000000000000, -0.000000000000000000, 1.000000000000000000 ) ) ;
#226 = ORIENTED_EDGE ( 'NONE', *, *, #46, .T. ) ;
#227 = AXIS2_PLACEMENT_3D ( 'NONE', #45, #126, #203 ) ;
#228 = FACE_OUTER_BOUND ( 'NONE', #242, .T. ) ;
#229 = DIRECTION ( 'NONE',  ( -1.000000000000000000, -1.301042606982605321E-16, 0.000000000000000000 ) ) ;
#230 = ADVANCED_FACE ( 'NONE', ( #239 ), #72, .T. ) ;
#231 = VECTOR ( 'NONE', #191, 1000.000000000000000 ) ;
#232 = ORIENTED_EDGE ( 'NONE', *, *, #37, .T. ) ;
#233 = FACE_BOUND ( 'NONE', #161, .T. ) ;
#234 = B_SPLINE_CURVE_WITH_KNOTS ( 'NONE', 3,
 ( #103, #75, #77, #162, #40, #124 ),
 .UNSPECIFIED., .F., .F.,
 ( 4, 2, 4 ),
 ( -0.001505472339981543239, 4.553649124439118623E-18, 0.001505472339981552346 ),
 .UNSPECIFIED. ) ;
#235 = PLANE ( 'NONE',  #227 ) ;
#236 = DIRECTION ( 'NONE',  ( 0.000000000000000000, 0.000000000000000000, 1.000000000000000000 ) ) ;
#237 = CLOSED_SHELL ( 'NONE', ( #178, #230, #32, #204, #71, #92, #85, #243, #17 ) ) ;
#238 = DIRECTION ( 'NONE',  ( -1.000000000000000000, 0.000000000000000000, 0.000000000000000000 ) ) ;
#239 = FACE_OUTER_BOUND ( 'NONE', #16, .T. ) ;
#240 = CARTESIAN_POINT ( 'NONE',  ( -1.500000000000000666, 7.055067077830531552, -320.6898658928036525 ) ) ;
#241 = DIRECTION ( 'NONE',  ( 0.000000000000000000, 0.000000000000000000, 1.000000000000000000 ) ) ;
#242 = EDGE_LOOP ( 'NONE', ( #252, #49 ) ) ;
#243 = ADVANCED_FACE ( 'NONE', ( #264 ), #258, .F. ) ;
#244 = ORIENTED_EDGE ( 'NONE', *, *, #90, .F. ) ;
#245 = ORIENTED_EDGE ( 'NONE', *, *, #42, .F. ) ;
#246 = ORIENTED_EDGE ( 'NONE', *, *, #136, .T. ) ;
#247 = COLOUR_RGB ( '',1.000000000000000000, 1.000000000000000000, 1.000000000000000000 ) ;
#248 = VERTEX_POINT ( 'NONE', #218 ) ;
#249 = EDGE_CURVE ( 'NONE', #144, #23, #55, .T. ) ;
#250 =( GEOMETRIC_REPRESENTATION_CONTEXT ( 3 ) GLOBAL_UNCERTAINTY_ASSIGNED_CONTEXT ( ( #29 ) ) GLOBAL_UNIT_ASSIGNED_CONTEXT ( ( #196, #138, #7 ) ) REPRESENTATION_CONTEXT ( 'NONE', 'WORKASPACE' ) );
#251 = PLANE ( 'NONE',  #47 ) ;
#252 = ORIENTED_EDGE ( 'NONE', *, *, #90, .T. ) ;
#253 = FILL_AREA_STYLE ('',( #272 ) ) ;
#254 = AXIS2_PLACEMENT_3D ( 'NONE', #93, #57, #97 ) ;
#255 = FACE_OUTER_BOUND ( 'NONE', #271, .T. ) ;
#256 = LINE ( 'NONE', #152, #134 ) ;
#257 = CARTESIAN_POINT ( 'NONE',  ( 0.000000000000000000, 0.000000000000000000, -323.9000000000000341 ) ) ;
#258 = PLANE ( 'NONE',  #210 ) ;
#259 = CARTESIAN_POINT ( 'NONE',  ( 0.000000000000000000, 0.000000000000000000, -337.2137084989847153 ) ) ;
#260 = CARTESIAN_POINT ( 'NONE',  ( 0.000000000000000000, 0.000000000000000000, -325.8999999999999773 ) ) ;
#261 = CARTESIAN_POINT ( 'NONE',  ( -1.500000000000000666, 8.708099243547831492, -310.8999999999999773 ) ) ;
#262 = AXIS2_PLACEMENT_3D ( 'NONE', #260, #59, #89 ) ;
#263 = VERTEX_POINT ( 'NONE', #261 ) ;
#264 = FACE_OUTER_BOUND ( 'NONE', #181, .T. ) ;
#265 = ORIENTED_EDGE ( 'NONE', *, *, #156, .T. ) ;
#266 = CARTESIAN_POINT ( 'NONE',  ( 1.499999999999999334, 8.708099243547831492, -318.8999999999999773 ) ) ;
#267 = DIRECTION ( 'NONE',  ( 0.000000000000000000, 0.000000000000000000, 1.000000000000000000 ) ) ;
#268 = ORIENTED_EDGE ( 'NONE', *, *, #174, .T. ) ;
#269 = AXIS2_PLACEMENT_3D ( 'NONE', #212, #194, #173 ) ;
#270 =( NAMED_UNIT ( * ) PLANE_ANGLE_UNIT ( ) SI_UNIT ( $, .RADIAN. ) );
#271 = EDGE_LOOP ( 'NONE', ( #199, #112, #159, #123 ) ) ;
#272 = FILL_AREA_STYLE_COLOUR ( '', #247 ) ;
#273 = PRESENTATION_STYLE_ASSIGNMENT (( #81 ) ) ;
#274 = AXIS2_PLACEMENT_3D ( 'NONE', #110, #190, #84 ) ;
#275 = CARTESIAN_POINT ( 'NONE',  ( 1.499999999999999556, 5.392411393681238785, -322.3062390792205747 ) ) ;
#276 = EDGE_CURVE ( 'NONE', #223, #248, #94, .T. ) ;
#277 = DIRECTION ( 'NONE',  ( 1.000000000000000000, 0.000000000000000000, 0.000000000000000000 ) ) ;
#278 = DIRECTION ( 'NONE',  ( 0.000000000000000000, 0.000000000000000000, 1.000000000000000000 ) ) ;
ENDSEC;
END-ISO-10303-21;
